<?xml version="1.0" encoding="utf-8"?>
<!-- Generator: Adobe Illustrator 19.0.0, SVG Export Plug-In . SVG Version: 6.00 Build 0)  -->
<svg version="1.1" xmlns="http://www.w3.org/2000/svg" xmlns:xlink="http://www.w3.org/1999/xlink" x="0px" y="0px"
	 viewBox="0 0 231 68.8" style="enable-background:new 0 0 231 68.8;" xml:space="preserve">
<style type="text/css">
	.st0{fill:#23E5E0;}
</style>
<g id="Слой_1">
</g>
<g id="Слой_2">
	<g id="XMLID_1_">
		<line id="XMLID_8_" class="st0" x1="121.5" y1="0.5" x2="121.5" y2="21.7"/>
		<path id="XMLID_15_" class="st0" d="M121.5,22.2c-0.3,0-0.5-0.2-0.5-0.5V0.5c0-0.3,0.2-0.5,0.5-0.5s0.5,0.2,0.5,0.5v21.2
			C122,22,121.8,22.2,121.5,22.2z"/>
	</g>
	<g id="XMLID_2_">
		<path id="XMLID_14_" class="st0" d="M121.5,22.2c-0.1,0-0.3,0-0.4-0.1l-8.9-8.9c-0.2-0.2-0.2-0.5,0-0.7s0.5-0.2,0.7,0l8.9,8.9
			c0.2,0.2,0.2,0.5,0,0.7C121.8,22.2,121.6,22.2,121.5,22.2z"/>
	</g>
	<g id="XMLID_3_">
		<path id="XMLID_13_" class="st0" d="M121.5,22.2c-0.1,0-0.3,0-0.4-0.1c-0.2-0.2-0.2-0.5,0-0.7l8.9-8.9c0.2-0.2,0.5-0.2,0.7,0
			s0.2,0.5,0,0.7l-8.9,8.9C121.8,22.2,121.6,22.2,121.5,22.2z"/>
	</g>
	<g id="XMLID_4_">
		<path id="XMLID_12_" class="st0" d="M230.5,1h-109c-0.3,0-0.5-0.2-0.5-0.5s0.2-0.5,0.5-0.5h109c0.3,0,0.5,0.2,0.5,0.5
			S230.8,1,230.5,1z"/>
	</g>
	<g id="XMLID_5_">
		<path id="XMLID_11_" class="st0" d="M230.5,68.8c-0.3,0-0.5-0.2-0.5-0.5V0.5c0-0.3,0.2-0.5,0.5-0.5s0.5,0.2,0.5,0.5v67.8
			C231,68.5,230.8,68.8,230.5,68.8z"/>
	</g>
	<g id="XMLID_6_">
		<path id="XMLID_10_" class="st0" d="M230.5,68.8H0.5c-0.3,0-0.5-0.2-0.5-0.5s0.2-0.5,0.5-0.5h230c0.3,0,0.5,0.2,0.5,0.5
			S230.8,68.8,230.5,68.8z"/>
	</g>
	<g id="XMLID_7_">
		<path id="XMLID_9_" class="st0" d="M0.5,68.8c-0.3,0-0.5-0.2-0.5-0.5V34.8c0-0.3,0.2-0.5,0.5-0.5S1,34.6,1,34.8v33.4
			C1,68.5,0.8,68.8,0.5,68.8z"/>
	</g>
</g>
</svg>
