<?xml version="1.0" encoding="utf-8"?>
<!-- Generator: Adobe Illustrator 22.0.0, SVG Export Plug-In . SVG Version: 6.00 Build 0)  -->
<svg version="1.1" id="Слой_1" xmlns="http://www.w3.org/2000/svg" xmlns:xlink="http://www.w3.org/1999/xlink" x="0px" y="0px"
	 viewBox="0 0 876.6 482.8" style="enable-background:new 0 0 876.6 482.8;" xml:space="preserve">
<style type="text/css">
	.st0{fill:#23E5E0; opacity:0.5;}
</style>
<g>
	<g>
		<path class="st0" d="M215,12.6c0-1.3,0.6-1.8,1.8-1.8c2.7,0.1,5.5,0,8.2,0c0.9,0,1.4,0.2,1.8,1.3c3.5,10.5,7.1,21.1,10.6,31.6
			c0.5,1.4,0.8,2.9,1.6,4.4c0.3-1.5,0.7-3,1-4.5c1.5-7.2,3.1-14.4,4.6-21.5c0.3-1.6,0.7-3.3,0.9-4.9c0.4-3.1-0.3-4-3.5-4.6
			c0.2-0.5,0.3-1.1,0.6-1.7c1.9,0,3.9,0,5.8,0c2,0,3.9,0,5.9,0c0.5,1.1,0.1,1.9-0.9,2.1c-2.2,0.5-2.7,2.3-3.1,4
			c-2.1,9-4,18.1-6,27.1c-0.9,4.2-2,8.5-2.9,12.7c-0.1,0.6-0.2,1.1-0.3,1.9c-1.3,0-2.7,0.1-4-0.1c-0.5-0.1-1.1-0.7-1.3-1.3
			c-2.1-6.1-4.2-12.2-6.3-18.3c-2.3-6.9-4.6-13.9-7-21.2c-0.3,1.5-0.6,2.8-0.8,4c-1,5-1.9,9.9-2.9,14.9c-1.1,5.2-2.2,10.4-3.3,15.6
			c-0.2,0.8-0.1,1.7,0,2.5c0.1,1.6,0.9,2.2,3.8,2.6c-0.8,0.6-1.2,1.3-1.7,1.3c-3.6,0.1-7.3,0.1-11.5,0.1c0.5-0.7,0.7-1.4,1-1.5
			c2.4-0.6,3.1-2.5,3.6-4.5c1.9-8.4,3.8-16.8,5.5-25.3c0.8-3.6,1.4-7.1,1.9-10.8C218.4,13.9,217.9,13.3,215,12.6z"/>
		<path class="st0" d="M713.5,17.8c-0.3,1.5-0.6,2.8-0.8,4c-1.2,6.1-2.5,12.3-3.7,18.4c-0.9,4.5-1.9,8.9-2.5,13.4
			c-0.4,2.7,0.4,3.3,3.3,3.7c-0.1,0.5-0.3,0.9-0.4,1.4c-4,0-7.9,0-12.3,0c0.4-0.7,0.6-1.4,0.9-1.5c2.4-0.5,3.1-2.4,3.6-4.3
			c2.6-11.3,5-22.6,7.5-33.9c0.2-1.1,0.2-2.3,0.2-3.4c-0.1-1.8-0.8-2.4-3.2-3c0-1.2,0.4-1.8,1.8-1.8c2.7,0.1,5.5,0.1,8.2,0
			c1.1,0,1.5,0.4,1.9,1.4c3.4,10.4,7,20.8,10.5,31.2c0.5,1.5,0.9,3,1.7,4.6c0.3-1.5,0.7-3,1-4.5c1.7-7.9,3.4-15.7,5-23.6
			c0.2-0.9,0.3-1.9,0.5-2.8c0.4-3.1-0.3-4-3.5-4.6c0.2-0.5,0.3-1.1,0.5-1.7c4,0,7.9,0,11.9,0c0.1,0.1,0.2,0.2,0.3,0.4
			c-0.4,0.6-0.8,1.5-1.4,1.6c-2.1,0.6-2.7,2.4-3.1,4c-2.1,9-4,18.1-6,27.1c-0.9,4.2-1.9,8.3-2.8,12.5c-0.1,0.6-0.3,1.2-0.5,2.1
			c-1.1,0-2.3-0.1-3.6,0c-1.1,0.1-1.4-0.4-1.8-1.3c-2.1-6.1-4.2-12.2-6.2-18.3C718.2,32.2,715.9,25.2,713.5,17.8z"/>
		<path class="st0" d="M544.4,58.7c-5.1,0-9.7,0-14.4,0c-0.1-0.7-0.4-1.2,0.8-1.6c2.4-0.8,3.1-2.5,2.4-5.1
			c-1.3-4.4-2.7-8.8-4.1-13.5c-1.6,1.9-3,3.5-4.3,5.1c-2,2.6-4,5.2-5.9,7.8c-0.5,0.7-0.9,1.4-1.1,2.2c-0.5,1.8,0,2.6,2.1,3.6
			c-0.1,0.4-0.2,0.8-0.3,1.3c-4.2,0-8.4,0-13.1,0c0.4-0.7,0.6-1.4,1-1.6c3-1.4,4.6-4.1,6.7-6.4c2.5-2.8,4.9-5.8,7.3-8.7
			c1.7-2,3.4-3.9,5-5.9c0.4-0.5,0.7-1.4,0.5-1.9c-2.2-6.2-4.5-12.5-7-18.6c-0.3-0.9-1.4-1.4-2-2.2c-0.4-0.5-0.7-1.1-1-1.6
			c0.5-0.3,1-0.8,1.5-0.8c4.2-0.1,8.5,0,12.7,0c-0.1,0.7-0.2,1.2-0.3,1.8c-3.2,1-3.9,2.1-2.8,6.4c0.9,3.7,2.3,7.3,3.5,11.2
			c1.3-1.6,2.4-3,3.5-4.4c2.1-2.9,4.4-5.7,6.3-8.7c1.4-2.1,0.7-3.6-2.2-4.8c0.7-0.6,1.3-1.4,1.8-1.4c3.9-0.1,7.8-0.1,12.3-0.1
			c-0.5,0.9-0.8,1.5-1.2,2c-2.7,2.7-5.5,5.3-8,8.1c-2.4,2.7-4.6,5.5-6.9,8.3c-0.9,1.1-1.9,2.1-2.8,3.2c-0.9,1.1-0.8,2-0.3,3.4
			c2.3,5.8,4.2,11.8,6.5,17.6c0.5,1.2,1.7,2.1,2.5,3.2C543.5,57.2,543.8,57.8,544.4,58.7z"/>
		<path class="st0" d="M325.1,51c0.8,0.8,1.3,1.4,2,2.2c-1.7,1.5-3.3,3-5,4.4c-1.9,1.5-4.1,1.9-6.4,1.5c-2.6-0.4-3.9-3.5-3.4-6.4
			c0.2-0.9,0.5-1.8,0.7-2.7c-0.1-0.1-0.2-0.1-0.4-0.2c-0.8,1-1.6,2.1-2.5,3.1c-2.3,2.6-4.4,5.2-8.1,6c-5.7,1.3-9.1-1.8-10-7.2
			c-0.9-5.8,0.2-11.1,2.8-16.2c2.1-4,4.9-7.4,9.3-9.1c3.8-1.4,7.7-1.5,11.5,0.1c0.5,0.2,1,0.4,1.7,0.7c0.9-4.1,1.7-8,2.5-12
			c0.6-2.8-0.7-4.1-4-4.3c0-1.4,0.6-1.9,2.1-1.9c3,0.1,5.9,0,9.1,0c-0.4,1.9-0.8,3.9-1.2,6c-2.1,9.3-4.2,18.7-6.3,28
			c-0.6,2.7-1.4,5.5-1.8,8.2c-0.2,1.2,0.2,2.5,0.7,3.6c0.2,0.5,1.8,0.6,2.5,0.3c1.1-0.6,2-1.6,2.9-2.5
			C324.3,52.2,324.6,51.7,325.1,51z M298.1,47.6c0,0.9-0.1,1.8,0,2.7c0.5,4.1,3.5,5.9,7.3,3.6c2.7-1.7,4.6-4.2,6.3-7
			c2.9-4.9,3.7-10.2,3.6-15.7c0-1.3-1.6-3-2.8-3.1c-3-0.2-5.8,0.1-8,2.4C299.8,35.3,298.5,41.3,298.1,47.6z"/>
		<path class="st0" d="M807,10.8c-0.1-1.6,0.8-2,2.2-1.9c2.9,0.1,5.8,0,8.9,0c-0.2,1-0.4,2.1-0.7,3.3c-2,9-4,18.1-6,27.1
			c-0.9,3.9-1.7,7.7-2.5,11.6c-0.1,0.7-0.3,1.5-0.2,2.1c0.2,0.7,0.6,1.7,1.2,1.9c0.7,0.3,1.9,0.2,2.5-0.2c1.3-0.9,2.5-2.2,3.8-3.5
			c0.4,0.7,0.9,1.4,1.5,2.3c-1.3,1.2-2.9,2.7-4.7,4.1c-1.9,1.5-4.2,1.8-6.4,1.4c-2.5-0.5-3.8-3.6-3.2-6.5c0.2-0.9,0.5-1.7,0.4-2.8
			c-0.4,0.5-0.9,0.9-1.3,1.5c-1.9,2.7-4.1,5.2-7,6.8c-3.2,1.7-8.2,1.8-10.7-2.1c-1.7-2.7-2.2-5.9-1.8-9.1c0.4-3,1-5.9,1.9-8.8
			c1.5-4.7,4.6-8.5,8.7-11c4.1-2.4,8.8-2.6,13.4-0.7c0.5,0.2,0.9,0.3,1.6,0.6c0.9-4.2,1.8-8.2,2.5-12.3
			C811.5,12.1,810.3,11,807,10.8z M789.1,47.7c0,0.8,0,1.7,0,2.5c0.1,2.2,1.7,4.3,3.2,4.5c2.1,0.3,3.9-0.4,5.5-1.8
			c6.4-5.8,8.7-13.1,8.5-21.5c0-1.6-1.6-3.2-3.2-3.4c-3.9-0.4-7,1.1-9.4,4.3C790.5,37,789.3,42.2,789.1,47.7z"/>
		<path class="st0" d="M166.6,57.4c0.4-1.7,0.9-3.3,1.2-4.8c0.3-1.5,0.6-3.1,0.9-4.7c1.1,0,2.2,0,3,0c0.5,1.7,1.1,3.3,1.6,4.9
			c0.7,2.1,2.5,2.9,4.3,3.1c2.9,0.3,5.8,0.4,8.6-1.3c2.8-1.7,3.6-4,4.1-6.9c0.7-4.5-2-7.3-5.2-9.7c-3-2.3-6.1-4.3-8.3-7.6
			c-2.8-4.1-1.8-10.1,0.5-13.4c3-4.2,7.4-5.9,12.5-6.1c4.5-0.2,8.9,0.4,13.2,1.8c-0.6,2.9-1.2,5.8-1.9,8.7c-1.2,0-2.2,0-3.2,0
			c-0.4-1.3-0.7-2.5-1-3.8c-0.5-2.1-2-3.4-4-3.5c-3.9-0.4-7.7,0-10.3,3.7c-2,2.9-2,7.7,0.6,10.1c2.3,2.2,4.8,4.2,7.3,6
			c6.9,5.1,7.6,12,3.9,18.5c-2.2,4-6.3,6.1-10.8,6.5C178,59.5,172.3,59.1,166.6,57.4z"/>
		<path class="st0" d="M29.1,47.5c-0.5,2.3-1.1,4.5-1.3,6.7c-0.2,3-2,3.7-4.6,4.1c-4.2,0.8-8.4,0.8-12.6,0.7
			C5.9,59,1.2,54.6,0.4,49.7c-1.1-7,0.2-13.7,2.4-20.2c1.6-4.6,3.9-8.7,7.2-12.2c3.1-3.2,6.9-5.4,11.5-6.1c5-0.8,9.8-0.1,14.5,1
			c0.3,0.1,0.5,0.3,0.8,0.5c-0.7,3-1.3,6-2,9.1c-1.1,0-2.1,0-3.2,0c-0.5-1.5-0.9-3.1-1.4-4.6c-0.7-1.9-2.3-2.8-4.1-3.1
			c-3.3-0.5-6.2,0.4-8.7,2.8c-3.8,3.6-6.3,8.1-7.9,13c-1.5,4.6-2.6,9.2-2.8,14.1c-0.1,2.8-0.1,5.5,1,8.2c0.9,2.1,2.4,3.3,4.5,3.8
			c4.3,1,8.9-0.9,11.4-4.6c0.5-0.7,1.1-1.3,1.4-2.1C25.6,47.1,27.1,47.1,29.1,47.5z"/>
		<path class="st0" d="M565.2,43.8c0,2.4-0.2,4.6,0,6.8c0.3,2.8,2,4,4.8,4.2c4.3,0.3,7.8-1.2,10.8-4.1c0.4-0.4,1-0.7,1.7-1.2
			c0.6,0.7,1.2,1.4,1.9,2.3c-4.6,5.3-10.1,8.5-17.7,6.9c-4.3-0.9-6.8-4-7.4-8.3c-0.7-4.8,0.2-9.3,2.2-13.4c2.8-5.8,7.1-10,13.8-11.3
			c2.9-0.5,5.7-0.8,8.5,0.4c2.4,1,4,4,3.7,6.6c-0.7,6.8-5.6,8.8-11.1,10.2c-2.3,0.6-4.8,0.6-7.3,0.8
			C567.9,43.9,566.6,43.8,565.2,43.8z M566.1,40.8c2.6-0.2,5-0.3,7.5-0.6c4.1-0.5,7.1-3.2,8-6.8c0.5-2.1-0.8-5-2.5-5.3
			c-2.2-0.3-4.4,0-6.1,1.4C569.6,32.4,567.2,36.2,566.1,40.8z"/>
		<path class="st0" d="M286.4,8.3c-1.3,0.6-2.5,1.1-3.7,1.7c-6.2,3.5-9.1,9.3-10.8,15.8c-1.6,6.2-1.5,12.5-1.1,18.7
			c0.4,5.7,1.8,11.2,5,16.1c2.3,3.6,5.3,6.4,9.4,7.8c0.4,0.1,0.8,0.4,1.3,0.6c-0.2,0.5-0.4,0.9-0.4,1.3c-0.2,1.1-0.6,1.3-1.8,0.9
			c-6.7-2.1-11.7-6.3-15-12.4c-3-5.7-4.3-11.8-4.5-18.3c-0.2-6.1,0.3-12,2.5-17.7c2.9-7.6,7.7-13.7,15.8-16.4c0.1,0,0.1,0,0.2,0
			C285.6,5.7,285.6,5.7,286.4,8.3z"/>
		<path class="st0" d="M777.4,8.3c-1.3,0.6-2.5,1.1-3.7,1.8c-6.2,3.5-9.1,9.3-10.8,15.8c-1.6,6.2-1.5,12.5-1.1,18.7
			c0.4,5.7,1.8,11.4,5.1,16.3c2.3,3.5,5.2,6.1,9.1,7.6c0.5,0.2,0.9,0.4,1.4,0.6c-0.2,0.5-0.4,0.9-0.4,1.3c-0.2,1.2-0.7,1.2-1.8,0.9
			c-6.6-2.1-11.6-6.2-14.9-12.3c-3.1-5.6-4.4-11.7-4.6-18.1c-0.2-6.1,0.2-12.2,2.5-17.9c1.7-4.3,3.7-8.4,7.4-11.5
			c2.7-2.3,5.4-4.2,8.8-5.3C776.7,5.7,776.6,5.6,777.4,8.3z"/>
		<path class="st0" d="M362.1,69.4c2.1-1.3,4.1-2.4,6-3.7c3.4-2.4,5.4-5.8,6.8-9.5c2.1-5.1,2.8-10.5,2.8-16
			c0.1-6.2-0.3-12.2-2.4-18.1c-1.9-5.3-5.1-9.5-10.1-12.4c-0.7-0.4-1.5-0.6-2.3-0.9c-1-0.4-1.2-1.1-0.7-2.1c0.5-1.1,1-0.9,2-0.6
			c4,1.2,7.4,3.5,10.4,6.4c1.4,1.3,2.5,2.9,3.5,4.6c3,4.9,4.9,10.4,5.3,16.1c0.4,4.8,0.4,9.7-0.5,14.5c-1.1,5.8-3.1,11-6.7,15.7
			c-2.5,3.2-5.8,5.4-9.4,7.1c-0.5,0.2-1,0.3-1.4,0.5C363,71.8,362.8,72.5,362.1,69.4z"/>
		<path class="st0" d="M855,69.4c2.1-1.2,4.1-2.3,6-3.6c3.4-2.4,5.4-5.9,6.9-9.7c2-5.1,2.7-10.4,2.8-15.8c0.1-6.2-0.3-12.2-2.4-18.1
			c-1.9-5.3-5.1-9.5-10-12.4c-0.7-0.4-1.5-0.6-2.3-0.9c-1-0.4-1.4-1-0.8-2.1c0.5-1,0.9-1,2-0.7c4.1,1.2,7.5,3.6,10.6,6.5
			c1.3,1.2,2.4,2.6,3.2,4.1c2.6,4.7,4.7,9.5,5.2,14.9c0.3,3.9,0.7,7.9,0.4,11.9c-0.6,8.3-3.1,15.9-9.2,22c-2.7,2.7-6,4.4-9.4,5.8
			C855.9,72,855.8,71.9,855,69.4z"/>
		<path class="st0" d="M675.3,31.1c0.2,1.1-0.4,1.3-1.3,1.3c-3.3,0-6.5,0-10.1-0.4c0.4-0.4,0.9-0.8,1.3-1.2c0.7-0.7,1.7-1.3,1.9-2.1
			c1.1-4,2-8,3-12.1c1.1-4.6,2.1-9.3,3.2-14.2c-2,0.2-4-0.1-5.7,0.6c-1.3,0.6-2.4,2.1-3,3.5c-0.8,1.9-2,2.1-3.8,1.7
			c0.6-2.8,1.2-5.5,1.8-8.3c9,0,18.1,0,27.3,0c-0.5,2.2-0.9,4.3-1.4,6.4c0,0.1-0.1,0.2-0.2,0.3c-0.6,2.3-0.6,2.3-3.1,2
			c-0.6-1.8,0.8-4.3-1.3-5.3c-1.6-0.8-3.7-0.7-5.7-1.1c-0.9,3.8-1.8,7.2-2.6,10.7c-1,4.5-2,9-2.9,13.5c-0.1,0.3-0.2,0.6-0.2,0.9
			C672.4,30.2,672.7,30.6,675.3,31.1z"/>
		<path class="st0" d="M823.9,73c0.8-2.6,2.1-4.8,3.8-6.8c3.3-3.8,6.8-7.5,10-11.3c2.4-2.9,2.9-6.1,1.2-9.4c-1.4-2.6-7.1-3-9.1-0.2
			c-0.1,0.2-0.3,0.4-0.4,0.7c-0.7,2.4-2.5,2.4-4.7,2c0-1.2-0.1-2.5,0-3.8c0-0.4,0.6-1,1-1.1c3.8-1.5,7.8-2.4,11.9-2
			c2.9,0.3,5.6,1.2,6.8,4.2c1.2,3,1.1,6-1,8.5c-1.9,2.3-4.2,4.5-6.2,6.7c-2.5,2.6-4.9,5.3-7.4,7.9c0.1,0.1,0.2,0.3,0.2,0.4
			c3.6,0,7.2,0.1,10.9-0.1c0.6,0,1.5-0.9,1.8-1.6c0.7-1.5,1.6-1.8,2.8-1.4c0,2,0,3.8,0,5.7c0,1.1-0.3,1.7-1.5,1.7
			c-6.5,0-12.9,0-19.4,0C824.5,73.2,824.3,73.1,823.9,73z"/>
		<path class="st0" d="M353.8,70.9c0,0.9,0,1.5,0,2.2c-6.5,0-12.9,0-19.4,0c0-0.6,0-1.3,0-2c1.7-0.2,3.3-0.4,4.9-0.6
			c1.8-0.2,2.3-1.6,2.3-3c0.1-5.9,0.1-11.9,0-17.8c0-2.2-1.2-2.9-3.2-1.9c-1.5,0.8-3,1.7-4.5,2.5c-0.3-0.7-0.6-1.4-1.1-2.3
			c4.7-2.3,8.8-5.2,13.5-7.1c0,8.6,0,16.8,0,25.1c0,4,1.2,5.1,5,5C352.1,70.9,352.8,70.9,353.8,70.9z"/>
		<path class="st0" d="M125,28.7c0,1.6,0,3,0,4.5c-14.3,0-28.5,0-42.9,0c0-1.4,0-2.9,0-4.5C96.4,28.7,110.6,28.7,125,28.7z"/>
		<path class="st0" d="M427.2,36.1c14.3,0,28.5,0,42.9,0c0,1.5,0,2.9,0,4.5c-14.3,0-28.5,0-42.9,0C427.2,39.1,427.2,37.7,427.2,36.1
			z"/>
		<path class="st0" d="M82.1,48c0-1.6,0-3,0-4.5c14.3,0,28.5,0,42.9,0c0,1.4,0,2.9,0,4.5C110.8,48,96.5,48,82.1,48z"/>
		<path class="st0" d="M641.2,32.4c-1.7,0-3.3,0-4.9,0c1.2-5.1,2.4-10.1,3.5-15.2c0.3-1.5,0.6-3,0.6-4.6c0.1-1.8-0.8-2.3-2.4-1.5
			c-1.1,0.6-2.1,1.4-3.3,2.2c-0.4-0.3-1-0.8-1.7-1.3c1.4-1.2,2.8-2.5,4.3-3.7c1.5-1.2,3.4-1.3,5.2-1c1.7,0.3,2.9,2.7,2.5,4.6
			c-0.1,0.5-0.2,0.9-0.1,1.5c3.5-4,7.1-7.3,13.3-5.9c-0.3,1.6-0.6,3.4-1,5c-0.1,0.3-1.1,0.6-1.7,0.6c-0.6,0-1.4-0.2-1.6-0.7
			c-1.2-1.9-2.6-2.2-4.3-0.8c-3.5,2.9-5.5,6.7-6.4,11.1C642.6,26,641.9,29.1,641.2,32.4z"/>
		<path class="st0" d="M599,19.8c0-1.3,0-2.4,0-3.7c9.6,0,19.2,0,28.8,0c0,1.3,0,2.4,0,3.7C618.3,19.8,608.7,19.8,599,19.8z"/>
	</g>
</g>
<g>
	<g>
		<g>
			<path class="st0" d="M808.9,267.4c0,1.6,0,3,0,4.5c-205.2,0-410.3,0-615.5,0c0-1.4,0-2.9,0-4.5
				C398.5,267.4,603.7,267.4,808.9,267.4z"/>
			<path class="st0" d="M724.8,259c-0.9-1-1.6-1.8-2.3-2.5c8.2-8,12.7-18.2,15.5-29.1c1.3-5.1,2.5-10.3,3.5-15.5
				c0.6-3.2,0.7-6.5,0.8-9.8c0.2-6.8,0.4-13.7,0.4-20.5c0-7.7-1-15.3-2.2-22.9c-1.2-7-3.1-13.8-5.8-20.4
				c-3.1-7.6-5.5-12.2-12.2-18.9c0.8-0.7,1.5-1.4,2.3-2.2c4.5,3.8,8.2,8.4,11.2,13.5c4.3,7.2,7.6,14.8,9.6,22.9
				c1.4,5.8,2.5,11.8,2.9,17.8c0.7,8.5,0.8,17,0.8,25.5c0,4.6-0.7,9.2-1.5,13.8c-1,5.6-2.1,11.2-3.8,16.6c-2.6,8.6-6.6,16.5-12,23.7
				C730,253.7,727.4,256.2,724.8,259z"/>
			<path class="st0" d="M526.1,116.7c1,1.1,1.6,1.9,2.3,2.7c-8.1,8-12.5,18.2-15.5,29.2c-2,7.1-3.1,14.4-3.9,21.7
				c-1.1,9.7-0.8,19.4-0.6,29.1c0.1,5.9,1.4,11.8,2.2,17.8c1,7.2,3.1,14.1,5.9,20.8c2.9,7,6.5,13.4,12.3,18.7
				c-0.7,0.6-1.3,1.2-1.9,1.7c-0.1,0.1-0.3,0.2-0.5,0.4c-4.5-4-8.3-8.5-11.3-13.6c-4.2-7.2-7.6-14.8-9.5-22.9
				c-1.4-5.8-2.5-11.8-2.9-17.8c-0.7-8.5-0.8-17-0.8-25.5c0-4.5,0.8-9,1.5-13.4c0.6-4.3,1.3-8.6,2.5-12.8c1.2-4.3,2.8-8.7,4.7-12.7
				c2.2-4.6,4.6-9.1,7.5-13.4C520.1,123.1,523.2,120.1,526.1,116.7z"/>
			<path class="st0" d="M347.4,128.4c2.9,2.3,5.9,4.3,8.5,6.9c2.3,2.3,4.3,4.9,6,7.7c4.6,7.8,7.5,16.2,9.1,25.1
				c1.7,9,1.9,18.1,1.5,27.1c-0.3,7.2-1.4,14.5-3.7,21.4c-1.7,5.1-3.9,10.1-6.3,15c-2.8,5.8-9.6,12.3-15.2,15.2
				c-1.5-1.8-1.1-3,0.8-4.3c3.6-2.5,6.2-6.2,8.3-10c3.8-6.7,6-13.9,7.5-21.4c2.2-10.5,2.4-21.1,1.9-31.7
				c-0.6-12.1-2.8-23.9-8.6-34.8c-2.4-4.5-5.2-8.7-9.5-11.6C345.9,131.6,346.2,130.2,347.4,128.4z"/>
			<path class="st0" d="M298.9,247.4c-3.6-3-7.1-5.5-10.1-8.5c-2-1.9-3.5-4.4-4.9-6.9c-4.2-7.5-7.2-15.5-8.7-24
				c-0.9-5.4-1.8-10.8-1.6-16.3c0.1-4.6-0.3-9.2,0.1-13.8c0.8-8.4,2.3-16.7,5.4-24.6c2.2-5.7,5-11,8.8-15.7
				c2.9-3.6,6.4-6.7,10.7-8.8c1.8,2,1.7,2.1-0.3,3.8c-4.9,4.1-8.7,9.1-11,15.1c-1.6,4.2-3.2,8.3-4.3,12.7c-1.2,4.8-1.8,9.8-2.4,14.8
				c-0.5,4.4-0.9,8.8-0.8,13.2c0.3,11.6,1.2,23.3,5.1,34.3c2.4,6.7,5.6,13.1,10.9,18.1c0.7,0.7,1.5,1.5,2.4,2
				c1.6,0.9,1.8,1.9,0.8,3.4C299.1,246.3,299.1,246.6,298.9,247.4z"/>
			<path class="st0" d="M485.6,324.1c-1.9,0.8-3.8,1.6-5.8,2.4c-0.4-0.8-0.8-1.6-1.2-2.5c3.9-1.8,7.7-3.5,11.5-5.3
				c4.1,9,8.2,18.1,12.4,27.3c3.8-13.1,7.5-26,11.2-38.8c1.9-6.5,3.7-13,5.5-19.5c0.3-1.1,0.6-2,2.2-2c14.7,0.1,29.4,0.1,44.1,0.1
				c0.3,0,0.5,0,0.9,0.1c0,1.5,0,2.9,0,4.5c-14.6,0-29.2,0-44,0c-1.5,5.1-3,10.1-4.5,15.1c-2,6.9-3.9,13.9-5.9,20.8
				c-2.6,9-5.2,18-7.9,27c-0.2,0.7-1,1.7-1.7,1.9c-1.1,0.3-2.3,0.4-3.1-1.3c-4.3-9.5-8.8-18.9-13.2-28.4
				C486.1,325,485.9,324.7,485.6,324.1z"/>
			<path class="st0" d="M304,196.4c5.4,0,10.4,0,15.5,0c0,0.6,0,1.1,0,1.6c-3.1,0.9-4,3-2.4,5.8c2.2,3.8,4.4,7.6,6.8,11.7
				c1.7-2.6,3.2-5,4.7-7.5c0.9-1.5,1.8-3.1,2.6-4.7c1.1-2.1,0.5-3.7-1.5-5c-0.4-0.3-0.6-1-1-1.8c4.7,0,8.9,0,13.2,0
				c0.5,1.2,0,1.9-1.1,2.6c-1.2,0.8-2.5,1.8-3.3,3c-3.6,5.3-7.1,10.6-10.6,16c-0.3,0.5-0.4,1.4-0.1,1.8c4,6.5,8,13,12.1,19.4
				c0.7,1.1,2,1.9,3,2.9c0.5,0.5,0.8,1,1.5,1.9c-5.6,0-10.6,0-16.3,0c0.7-0.7,1-1.3,1.4-1.4c2-0.7,2.9-2,2-4
				c-1.7-3.5-3.6-6.9-5.5-10.3c-0.7-1.3-1.5-2.5-2.5-4.1c-1,1.5-1.8,2.8-2.7,4.2c-1.6,2.7-3.3,5.3-4.8,8.1c-1.6,2.9-1.2,3.9,1.3,6.1
				c0.3,0.2,0.2,0.9,0.4,1.4c-4.5,0-8.8,0-13.6,0c0.3-0.6,0.4-1.3,0.8-1.5c2.1-0.7,3.5-2.2,4.6-3.9c3.8-5.8,7.6-11.5,11.4-17.3
				c0.2-0.4,0.1-1.3-0.2-1.7c-3.7-6.1-7.4-12.1-11.3-18.1c-0.8-1.3-2.3-2.2-3.3-3.4C304.5,197.8,304.4,197.1,304,196.4z"/>
			<path class="st0" d="M25.6,258.4c0.9-4.1,1.7-8,2.5-11.9c0.6-2.9-0.7-4.3-3.9-4.4c0.2-1.9,0.2-1.9,1.8-1.9c3,0,5.9,0,9.1,0
				c-0.2,1.3-0.5,2.9-0.8,4.4c-2.7,11.9-5.5,23.8-8.1,35.6c-0.3,1.3-0.4,2.7-0.4,4c0,0.7,0.6,1.7,1.1,1.9c0.8,0.3,2,0.2,2.6-0.3
				c1.3-0.9,2.4-2.2,3.8-3.4c0.5,0.6,1.1,1.3,1.7,2.1c-1.6,1.4-3.2,3-5,4.4c-1.9,1.5-4.2,1.7-6.4,1.4c-2.2-0.3-4-3.9-3.3-6.5
				c0.2-0.9,0.5-1.7,0.4-2.8c-0.7,0.8-1.3,1.7-2.1,2.5c-2,2-3.8,4.4-6.2,5.7c-5.5,3-11.1,0.5-12.2-6.2c-0.9-5.8,0.2-11.3,2.9-16.4
				c2.1-4,5-7.4,9.4-9.1c3.8-1.4,7.7-1.4,11.5,0.1C24.5,258,25,258.2,25.6,258.4z M23.6,263.7c0.3-4.3-3.3-4.7-6.8-4
				c-3.5,0.7-5.5,3.2-7.1,6c-2.8,4.9-3.8,10.3-3.4,16c0.2,3,2,4.7,4.8,4.4c1.3-0.2,2.8-0.9,3.8-1.8
				C20.9,279.1,23.1,272.3,23.6,263.7z"/>
			<path class="st0" d="M784.6,163.5c-7.7-0.2-9.5,0.4-11.8,8.8c-1.1,0-2.3,0-3.6,0c0-3.9,0-7.9,0-12c12.5,0,25.1,0,37.8,0
				c0,4,0,7.9,0,11.9c-1.1,0-2.1,0-3.2,0c-1.2-2.9-1.3-6.7-4.8-8.1c-2.3-0.9-4.9-0.8-7.6-1.2c0,1.1,0,1.8,0,2.5c0,9.6,0,19.2,0,28.8
				c0,2.7,0.2,5.4,0.4,8.2c0.1,2,1.6,3.5,3.6,4c0.5,0.1,0.8,0.7,1.2,1c-0.1,0.2-0.2,0.3-0.3,0.5c-5.3,0-10.7,0-16,0
				c-0.1-0.1-0.3-0.2-0.4-0.4c0.4-0.4,0.7-1,1.2-1.1c2.5-0.8,3.7-2.1,3.7-4.5c0-12.5,0-25.1,0-37.6
				C784.7,164.1,784.7,163.9,784.6,163.5z"/>
			<path class="st0" d="M542.3,304.4c-7.3-0.3-9.5-0.2-12,8.8c-1.1,0-2.3,0-3.6,0c0-4,0-7.9,0-12c12.6,0,25.1,0,37.8,0
				c0,3.9,0,7.8,0,11.9c-1,0-2.1,0-3.2,0c-2.7-8.6-3.8-8.9-12.4-8.8c0,0.7,0,1.4,0,2c0,10.6,0,21.3,0,31.9c0,1.8,0.2,3.6,0.4,5.4
				c0.2,1.9,1.7,3.3,3.7,3.7c0.5,0.1,0.8,0.6,1.2,1c-0.1,0.2-0.2,0.3-0.3,0.5c-5.4,0-10.8,0-16.9,0c0.7-0.7,1-1.3,1.4-1.4
				c2.9-1,3.8-2.1,3.8-5.2c0-12,0-23.9,0-35.9C542.3,305.6,542.3,305,542.3,304.4z"/>
			<path class="st0" d="M336,119.6c0,3.1,0,6.1,0,9.1c-3.2,0.5-3.2,0.5-4.2-2.3c-1.2-3.3-3.6-5.1-7.2-4.9c-1.9,0.1-4,0.1-5.6,1
				c-4,2-4.3,7.9-2.1,10.8c1.4,1.9,3.5,3.3,5.5,4.6c3,2,6.3,3.5,9.2,5.5c5.3,3.6,6,8,5,14.1c-0.9,4.9-4.2,7.7-8.6,8.5
				c-4.4,0.8-9.1,0.2-13.7,0c-1.8-0.1-3.6-0.7-5.5-1.1c0-3.2,0-6.3,0-9.5c3.2-0.4,3.2-0.4,4.3,2.4c1.5,3.7,4.2,5.8,8.5,5.7
				c3.1-0.1,6-0.4,7.9-3.2c2.7-4.1,1.4-10.1-3.1-12.9c-3-1.9-6.2-3.3-9.2-5.2c-3.1-2-6.3-4.1-7.3-8c-1.8-7,1.4-13.2,8.5-15.1
				C324.2,117.5,330,118.1,336,119.6z"/>
			<path class="st0" d="M674.4,238.3c5.3,0,10.3,0.1,15.3-0.1c1-0.1,2.1-1.4,3-2.3c0.5-0.5,0.5-1.4,0.7-2.2c0.9,0,1.8,0,3.1,0
				c-0.2,3.4-0.3,6.8-0.5,10.4c-9.6,0-19.2,0-28.9,0c-0.3-2.2,1.1-4,2.1-5.7c3.2-5.5,7.5-10.3,11.7-15c2.9-3.3,6.1-6.5,7.4-10.9
				c1.1-3.6,1.3-7.2-1.1-10.5c-2.7-3.8-10.8-3.6-13.2,1.8c-1.3,3.1-3.2,3-5.9,2.6c0-1.8,0-3.7,0-5.6c0-0.3,0.3-0.9,0.6-1
				c6.5-3.1,13.4-4.8,20.5-2.6c3.9,1.2,6.1,4.5,6.4,8.9c0.3,5.3-2.2,9.2-5.4,13c-5.2,6.1-10.4,12.3-15.6,18.4
				C674.6,237.6,674.6,237.8,674.4,238.3z"/>
			<path class="st0" d="M685.4,132.3c0,2.1,0,3.6,0,5.2c-4.2,0-8.3,0-12.4,0c1.7,1.8,3.5,3.2,4.7,5c1.1,1.6,2.3,3.6,2.5,5.5
				c0.6,5,0.3,10-3.4,14c-2.2,2.4-5.2,3.9-8.4,4.3c-4.4,0.6-8.7,0.5-12.7-2.2c-3.4-2.4-5.5-5.7-5.9-9.7c-0.4-4.2-0.2-8.4,1.8-12.5
				c2.2-4.5,5.8-7.3,10.5-7.9C669.8,133.1,677.5,132.9,685.4,132.3z M656.5,151.5c-0.3,2.9,0.4,5.8,1.9,8.6c2,3.6,7.3,5,10.9,2.8
				c2.9-1.7,3.7-4.6,4.2-7.6c0.9-5.5,0.3-10.6-3-15.3c-0.6-0.9-1.7-2-2.6-2.1c-3.7-0.2-6.9,0.8-9.2,4.1
				C656.7,144.9,656.4,148,656.5,151.5z"/>
			<path class="st0" d="M475.2,315c0,2.1,0,3.6,0,5.2c-4.2,0-8.3,0-12.4,0c1.7,1.8,3.5,3.2,4.7,5c1.1,1.6,2.3,3.6,2.5,5.5
				c0.6,5,0.3,10-3.4,14c-2.2,2.4-5.2,3.9-8.4,4.3c-4.4,0.6-8.7,0.5-12.7-2.2c-3.4-2.4-5.5-5.7-5.9-9.7c-0.4-4.2-0.2-8.4,1.8-12.5
				c2.2-4.5,5.8-7.3,10.5-7.9C459.6,315.8,467.3,315.6,475.2,315z M446.2,334.3c-0.3,2.9,0.4,5.8,1.9,8.6c2,3.6,7.3,5,10.9,2.8
				c2.9-1.7,3.7-4.6,4.2-7.6c0.9-5.5,0.3-10.6-3-15.3c-0.6-0.9-1.7-2-2.6-2.1c-3.7-0.2-6.9,0.8-9.2,4.1
				C446.5,327.6,446.2,330.7,446.2,334.3z"/>
			<path class="st0" d="M223.7,208c-2,0-4,0-6.1,0c1.8-7.9,3.7-15.6,5.4-23.4c0.3-1.3,0.3-2.8,0.1-4.1c-0.3-1.9-1.5-2.4-3.1-1.3
				c-1.4,0.9-2.6,2.2-4.2,3.4c-0.4-0.4-1.1-1-1.8-1.8c1.7-1.5,3.3-3,5-4.4c2.1-1.8,6.7-2.4,8.4-0.4c1.8,2,1.7,4.2,1.1,6.6
				c-0.1,0.5-0.2,0.9,0,1.6c0.9-1.2,1.9-2.4,2.8-3.5c2.7-3.2,5.7-5.7,10.2-5.9c5.1-0.2,7.3,4.5,6.5,8.5c-1.2,6.1-2.8,12.1-4.1,18.1
				c-0.2,0.9,0.2,2.4,0.7,2.7c0.8,0.4,2.3,0.3,3.1-0.2c1.3-0.7,2.3-2,3.7-3.2c0.4,0.4,1.1,1,1.9,1.8c-1.7,1.5-3.3,3-5,4.4
				c-1.9,1.6-4.2,1.9-6.6,1.6c-2.8-0.4-4.3-3.6-3.8-6.3c1-5.2,2.5-10.4,3.6-15.6c0.3-1.6,0.3-3.4,0.1-5c-0.3-2.2-3.3-3.4-5.1-2
				c-2.2,1.8-4.3,3.8-6.2,6c-2.2,2.4-3,5.4-3.7,8.5C225.8,198.6,224.7,203.2,223.7,208z"/>
			<path class="st0" d="M439.5,210c-1.8,0-3.3,0-5,0c0-6.6,0-13.2,0-19.9c-6.4,0-12.5,0-18.8,0c0-1.6,0-3,0-4.7c6.2,0,12.3,0,18.7,0
				c0-6.8,0-13.3,0-20c1.8,0,3.3,0,5.1,0c0,6.5,0,13.1,0,19.9c6.5,0,12.8,0,19.2,0c0,1.6,0,3,0,4.7c-6.3,0-12.6,0-19.2,0
				C439.5,196.8,439.5,203.4,439.5,210z"/>
			<path class="st0" d="M600.8,209.9c0-6.6,0-13.1,0-19.9c-6.3,0-12.5,0-18.7,0c0-1.6,0-3,0-4.7c6.1,0,12.3,0,18.7,0
				c0-6.8,0-13.3,0-20c1.8,0,3.3,0,5.1,0c0,6.5,0,13.1,0,19.9c6.5,0,12.8,0,19.2,0c0,1.6,0,3,0,4.7c-6.3,0-12.6,0-19.1,0
				c0,6.8,0,13.3,0,20C604.2,209.9,602.6,209.9,600.8,209.9z"/>
			<path class="st0" d="M646,189.9c0-1.6,0-3,0-4.5c24.5,0,48.9,0,73.5,0c0,1.4,0,2.9,0,4.5C695,189.9,670.6,189.9,646,189.9z"/>
			<path class="st0" d="M209.5,208c-4.4,0-8.9,0-14,0c0.7-0.7,1-1.4,1.4-1.5c2.1-0.5,3-1.9,3-3.9c0-12.9,0-25.7,0-38.6
				c0-2.4-1.1-3.4-4.2-3.9c0-0.5,0-1.1,0-1.9c3.3,0,6.6,0,10.1,0c0,0.5,0,1.2,0,1.9c0,11.8,0,23.5,0,35.3c0,2.7,0,5.3,0.5,7.9
				c0.2,1.2,1.6,2.1,2.4,3.1c0.3,0.4,0.8,0.7,1.2,1.1C209.8,207.7,209.7,207.8,209.5,208z"/>
			<path class="st0" d="M533.8,176.5c0-0.5,0-1,0-1.8c3.4,0,6.7,0,9.9,0c0,2,0,4.1,0,6.7c4-5.3,9-7.4,15.4-6.4c0,2.4,0,4.9,0,7.5
				c-1.9,0.3-3.6,0.5-5-1.5c-1.5-2.1-4.3-1.8-6.5-0.3c-3.3,2.3-4,5.6-4.1,9.2c0,4.4,0.2,8.8,0.4,13.2c0.1,1.8,1.4,3.1,3.3,3.5
				c0.5,0.1,0.8,0.6,1.3,0.9c-0.1,0.2-0.2,0.3-0.3,0.5c-4.6,0-9.2,0-14.5,0c0.6-0.7,0.8-1.3,1.3-1.5c1.9-0.8,2.7-2.2,2.7-4.3
				c0-7,0-14,0-21C537.6,178.2,536.8,177.2,533.8,176.5z"/>
			<path class="st0" d="M691.5,114.6c-0.4-4.7-0.4-4.8,3.8-6c3.5-1,7-1.3,10.7-0.6c6.3,1.1,7.2,8.9,4.1,12.5
				c-2.8,3.2-5.9,6.2-8.9,9.3c-1.6,1.7-3.1,3.6-4.9,5.7c4,0,7.6,0.1,11.2-0.1c0.7,0,1.6-0.9,1.9-1.6c0.6-1.4,1.6-1.7,2.8-1.4
				c0,2,0,3.9,0,5.8c0,1-0.2,1.6-1.4,1.6c-6.7,0-13.3,0-20.5,0c0.9-1.7,1.4-3.3,2.4-4.5c3.1-3.9,6.4-7.6,9.7-11.3
				c1.8-2,3.5-4,4.1-6.8c0.5-2.3-0.6-6.2-3-6.8c-2.7-0.7-5.6-0.7-7.5,2.2C694.6,114.9,694.5,114.9,691.5,114.6z"/>
			<path class="st0" d="M61.8,302.2c0,0.9,0,1.5,0,2.3c-6.5,0-12.9,0-19.4,0c0-0.7,0-1.4,0-2c1.6-0.2,3.3-0.4,4.9-0.6
				c1.8-0.2,2.4-1.6,2.4-3.2c0.1-5.9,0.1-11.8,0-17.6c0-2.2-1.1-2.9-3.1-2c-1.5,0.8-3,1.6-4.6,2.5c-0.3-0.6-0.6-1.3-1-2
				c3.7-2.9,12-7.1,13.4-7c0,8.7-0.1,17.3,0.1,26c0,2.7,0.8,3.5,4.1,3.6C59.6,302.2,60.6,302.2,61.8,302.2z"/>
			<path class="st0" d="M152.8,260c0,1.5,0,2.9,0,4.5c-14.3,0-28.6,0-43,0c0-1.5,0-2.9,0-4.5C124.1,260,138.4,260,152.8,260z"/>
			<path class="st0" d="M109.9,274.8c14.3,0,28.5,0,42.9,0c0,1.5,0,3,0,4.5c-14.3,0-28.5,0-42.9,0
				C109.9,277.9,109.9,276.5,109.9,274.8z"/>
			<path class="st0" d="M343,185.5c0,1.5,0,2.9,0,4.5c-13.6,0-27,0-40.6,0c0-1.5,0-2.9,0-4.5C315.9,185.5,329.4,185.5,343,185.5z"/>
			<g>
				<path class="st0" d="M423.9,434.5c0,2.1,0,3.6,0,5.2c-4.2,0-8.3,0-12.4,0c1.7,1.8,3.5,3.2,4.7,5c1.1,1.6,2.3,3.6,2.5,5.5
					c0.6,5,0.3,10-3.4,14c-2.2,2.4-5.2,3.9-8.4,4.3c-4.4,0.6-8.7,0.5-12.7-2.2c-3.4-2.4-5.5-5.7-5.9-9.7c-0.4-4.2-0.2-8.4,1.8-12.5
					c2.2-4.5,5.8-7.3,10.5-7.9C408.2,435.3,415.9,435.1,423.9,434.5z M394.9,453.7c-0.3,2.9,0.4,5.8,1.9,8.6c2,3.6,7.3,5,10.9,2.8
					c2.9-1.7,3.7-4.6,4.2-7.6c0.9-5.5,0.3-10.6-3-15.3c-0.6-0.9-1.7-2-2.6-2.1c-3.7-0.2-6.9,0.8-9.2,4.1
					C395.2,447.1,394.8,450.2,394.9,453.7z"/>
				<path class="st0" d="M426.8,441.9c4-1.8,7.7-3.5,11.6-5.3c4.1,9,8.2,18.1,12.3,27.3c2.5-8.4,4.9-16.6,7.3-24.9
					c3.2-11.2,6.3-22.3,9.5-33.5c0.3-1,0.5-1.9,2.1-1.9c15.4,0.1,30.7,0,46.1,0.1c0.3,0,0.6,0,1.1,0.1c0,1.5,0,2.9,0,4.5
					c-15.3,0-30.6,0-46,0c-2.2,7.4-4.4,14.6-6.5,21.8c-2,6.7-3.9,13.4-5.8,20c-2,7.1-4,14.1-6.1,21.1c-0.2,0.7-0.9,1.6-1.6,1.8
					c-1.2,0.3-2.5,0.4-3.3-1.4c-4.4-9.8-9-19.5-13.6-29.3c0-0.1-0.1-0.1-0.3-0.3c-1.8,0.7-3.7,1.5-5.7,2.4
					C427.7,443.7,427.3,442.9,426.8,441.9z"/>
				<path class="st0" d="M25.7,436.7c0.9-4.1,1.7-8.1,2.5-12c0.5-2.8-0.7-4-4-4.3c0-1.5,0.7-1.9,2.1-1.9c2.9,0.1,5.8,0,8.9,0
					c-0.1,0.8-0.2,1.9-0.5,3c-2.3,10.3-4.6,20.7-6.9,31c-0.6,2.7-1.4,5.5-1.8,8.2c-0.2,1.1,0.2,2.5,0.8,3.6c0.3,0.5,1.8,0.6,2.5,0.3
					c1.1-0.6,2-1.6,2.9-2.5c0.4-0.4,0.7-0.9,1.1-1.4c0.7,0.7,1.3,1.3,2.1,2c-1.7,1.5-3.4,3.1-5.1,4.5c-1.9,1.5-4.1,1.7-6.4,1.5
					c-2.2-0.3-4-3.8-3.4-6.5c0.2-0.9,0.5-1.8,0.8-3.2c-2.3,2.5-4.1,4.8-6.2,6.8c-2.5,2.4-5.6,3.6-9.2,2.5c-2.9-0.8-5.2-3.4-5.6-6.4
					c-1-7.1,0.3-13.8,4.4-19.6c4.8-6.8,11.1-9.3,19.6-6.2C24.7,436.3,25.1,436.5,25.7,436.7z M6.2,457.4c0,0.8-0.1,1.7,0,2.5
					c0.5,4.1,3.7,6.1,7.3,3.5c7.7-5.5,10.1-13.6,9.8-22.7c0-1.1-1.7-2.7-2.8-2.9c-2.9-0.6-5.7,0-8,2.3C7.9,445,6.6,451,6.2,457.4z"
					/>
				<path class="st0" d="M224.5,436.7c0.9-4.2,1.8-8.2,2.5-12.2c0.5-2.8-0.7-4-4-4.2c0.3-1.9,0.3-1.9,2-1.9c3,0,5.9,0,9.1,0
					c-0.2,1.2-0.5,2.5-0.8,3.9c-2.3,10.5-4.7,20.9-7.1,31.4c-0.5,2.4-1.2,4.7-1.5,7.1c-0.1,1.1,0.2,2.5,0.7,3.4
					c0.3,0.5,1.8,0.7,2.5,0.3c1.1-0.5,2-1.6,2.9-2.5c0.4-0.4,0.7-0.9,1.1-1.5c0.7,0.7,1.3,1.2,2.2,2c-1.7,1.5-3.3,3.1-5.1,4.5
					c-1.9,1.5-4.1,1.8-6.4,1.5c-2.2-0.2-4.1-3.8-3.4-6.4c0.2-0.9,0.5-1.8,0.4-2.9c-0.8,1-1.6,2.1-2.4,3.1c-2.3,2.7-4.5,5.3-8.2,6.1
					c-5.6,1.1-8.9-1.7-9.8-7.2c-1-5.7,0.2-11.1,2.8-16.2c2.1-4.1,5-7.6,9.5-9.2c3.7-1.4,7.5-1.4,11.3,0.1
					C223.3,436.2,223.8,436.4,224.5,436.7z M205.1,457.3c0,0.8,0,1.7,0,2.5c0.1,1.9,0.8,3.6,2.5,4.3c1.5,0.6,3.3,0.6,4.9-0.6
					c2.6-2,4.7-4.4,6.3-7.2c2.8-4.8,3.8-10.1,3.4-15.6c-0.1-1.1-1.7-2.7-2.8-2.9c-3-0.6-5.9,0.1-8.1,2.5
					C206.7,445.1,205.4,451,205.1,457.3z"/>
				<path class="st0" d="M494.2,467.3c-0.6,0.3-1.1,1-1.7,1c-4.4,0.1-8.9,0-13.6-0.4c0.5-0.4,1-0.9,1.5-1.1c2.2-0.8,3-2.6,3.4-4.6
					c2.3-10.4,4.5-20.8,6.8-31.3c0.5-2.4,1.1-4.7,1.7-7.1c-7-0.5-9.3-0.1-12.4,6.1c-1.1,2.2-2.4,2.8-4.5,2.1
					c0.4-1.9,0.8-3.9,1.2-5.8c0.4-1.9,0.9-3.7,1.4-5.7c12.1,0,24.3,0,36.6,0c-0.9,4.1-1.8,8.2-2.8,12.4c-1.1,0-2.1,0-3.2,0
					c-0.2-2-0.4-3.9-0.6-5.9c-0.2-2-1.2-3.1-3.4-3.1c-1.9,0-3.8-0.3-5.8-0.5c-2.7,12.3-5.4,24.3-8,36.3c-0.2,0.8-0.3,1.6-0.4,2.5
					C489.8,465.2,490.8,466.5,494.2,467.3z"/>
				<path class="st0" d="M46.8,478.5c3.9,0,7.1-0.1,10.4,0c1.4,0,2.2-0.6,2.8-1.7c0.9-1.6,0.9-1.5,2.7-1.4c0,1.9,0,3.8,0,5.7
					c0,1-0.2,1.6-1.4,1.6c-6.7,0-13.3,0-20.3,0c0.7-2.8,2.1-5.1,3.9-7.1c3.3-3.8,6.7-7.5,10.1-11.3c2.3-2.6,2.8-6.7,1.2-9.2
					c-2-3.1-7.1-3.2-9.1-0.1c-1.2,1.9-2.4,3.3-4.9,2.4c0,0-0.1-0.2-0.1-0.3c-0.2-4.4-0.3-4.5,3.9-5.6c3.4-1,6.9-1.2,10.5-0.7
					c6.6,1,7.4,9.2,4.1,12.7c-2.9,3.1-5.9,6.1-8.8,9.2C50.2,474.5,48.7,476.4,46.8,478.5z"/>
				<path class="st0" d="M240.9,459.9c-0.3-0.6-0.6-1.3-1.1-2.3c4.5-2.5,9-4.9,13.5-7.3c0,8.7,0,16.8,0,24.9c0,4.5,1,5.5,5.4,5.3
					c0.6,0,1.3,0,2,0c0,0.8,0,1.5,0,2.2c-6.4,0-12.9,0-19.4,0c0-0.7,0-1.4,0-2c1.7-0.2,3.3-0.4,5-0.6c1.7-0.2,2.3-1.6,2.3-3
					c0.1-5.9,0.1-11.9,0-17.8c0-2.2-1.2-2.9-3.2-1.8C243.9,458.1,242.4,459,240.9,459.9z"/>
				<path class="st0" d="M111.4,442.7c0-1.5,0-2.9,0-4.5c14.3,0,28.6,0,43,0c0,1.5,0,2.9,0,4.5C140.1,442.7,125.9,442.7,111.4,442.7
					z"/>
				<path class="st0" d="M304.8,450.1c0-1.5,0-3,0-4.5c14.3,0,28.5,0,42.9,0c0,1.4,0,2.9,0,4.5C333.5,450.1,319.2,450.1,304.8,450.1
					z"/>
				<path class="st0" d="M154.4,453.1c0,1.5,0,2.9,0,4.4c-14.3,0-28.6,0-43,0c0-1.4,0-2.9,0-4.4C125.7,453.1,140,453.1,154.4,453.1z
					"/>
			</g>
		</g>
	</g>
</g>
</svg>
