<?xml version="1.0" encoding="utf-8"?>
<!-- Generator: Adobe Illustrator 19.0.0, SVG Export Plug-In . SVG Version: 6.00 Build 0)  -->
<svg version="1.1" id="Слой_1" xmlns="http://www.w3.org/2000/svg" xmlns:xlink="http://www.w3.org/1999/xlink" x="0px" y="0px"
	 viewBox="0 0 76 92" style="enable-background:new 0 0 76 92;" xml:space="preserve">
<style type="text/css">
	.st0{fill:#0da5ce;}
</style>
<g>
	<g>
		<path id="XMLID_22_" class="st0" d="M1,92c-0.6,0-1-0.4-1-1V1c0-0.6,0.4-1,1-1s1,0.4,1,1v90C2,91.6,1.6,92,1,92z"/>
	</g>
	<g>
		<path id="XMLID_21_" class="st0" d="M52,2H1C0.4,2,0,1.6,0,1s0.4-1,1-1h51c0.6,0,1,0.4,1,1S52.6,2,52,2z"/>
	</g>
	<g>
		<path id="XMLID_20_" class="st0" d="M52,92H1c-0.6,0-1-0.4-1-1s0.4-1,1-1h51c0.6,0,1,0.4,1,1S52.6,92,52,92z"/>
	</g>
	<g>
		<path id="XMLID_19_" class="st0" d="M52,17c-0.6,0-1-0.4-1-1V1c0-0.6,0.4-1,1-1s1,0.4,1,1v15C53,16.6,52.6,17,52,17z"/>
	</g>
	<g>
		<path id="XMLID_18_" class="st0" d="M52,92c-0.6,0-1-0.4-1-1V76c0-0.6,0.4-1,1-1s1,0.4,1,1v15C53,91.6,52.6,92,52,92z"/>
	</g>
	<g>
		<path id="XMLID_17_" class="st0" d="M75,45H22c-0.6,0-1-0.4-1-1s0.4-1,1-1h53c0.6,0,1,0.4,1,1S75.6,45,75,45z"/>
	</g>
	<g>
		<path id="XMLID_16_" class="st0" d="M56.8,63.2c-0.3,0-0.5-0.1-0.7-0.3c-0.4-0.4-0.4-1,0-1.4l18.2-18.2c0.4-0.4,1-0.4,1.4,0
			s0.4,1,0,1.4L57.5,62.9C57.3,63.1,57.1,63.2,56.8,63.2z"/>
	</g>
	<g>
		<path id="XMLID_15_" class="st0" d="M75,45.2c-0.3,0-0.5-0.1-0.7-0.3L56.1,26.7c-0.4-0.4-0.4-1,0-1.4s1-0.4,1.4,0l18.2,18.2
			c0.4,0.4,0.4,1,0,1.4C75.5,45.1,75.3,45.2,75,45.2z"/>
	</g>
</g>
</svg>
