<?xml version="1.0" encoding="utf-8"?>
<!-- Generator: Adobe Illustrator 19.0.0, SVG Export Plug-In . SVG Version: 6.00 Build 0)  -->
<svg version="1.1" id="Capa_1" xmlns="http://www.w3.org/2000/svg" xmlns:xlink="http://www.w3.org/1999/xlink" x="0px" y="0px"
	 viewBox="-149 324.7 297 193.5" style="enable-background:new -149 324.7 297 193.5;" xml:space="preserve">
<path fill="#23e5e0" d="M145.9,397.9c-0.6-0.8-14.2-18.7-38.9-36.7c-32.8-23.9-70-36.5-107.5-36.5c-37.5,0-74.7,12.6-107.5,36.5
	c-24.7,18-38.3,35.9-38.9,36.7c-2.8,3.7-2.8,8.8,0,12.5c0.5,0.7,11,14.6,30.3,30.1l-14,28c-2.6,5.2-0.5,11.4,4.7,14
	c1.5,0.8,3.1,1.1,4.7,1.1c3.8,0,7.5-2.1,9.4-5.8l12.4-24.9c10.6,7,21.7,12.8,33,17.4l-12.4,24.8c-2.6,5.2-0.5,11.4,4.7,14
	c1.5,0.8,3.1,1.1,4.7,1.1c3.8,0,7.5-2.1,9.4-5.8l13.6-27.3c11.7,3.3,23.6,5.3,35.6,6v24.4c0,5.8,4.7,10.5,10.5,10.5
	c5.8,0,10.5-4.7,10.5-10.5v-24.4c12-0.7,23.9-2.8,35.6-6l13.6,27.3c1.8,3.7,5.5,5.8,9.4,5.8c1.6,0,3.2-0.4,4.7-1.1
	c5.2-2.6,7.3-8.9,4.7-14l-12.4-24.8c11.3-4.6,22.4-10.5,33-17.4l12.4,24.9c1.8,3.7,5.5,5.8,9.4,5.8c1.6,0,3.2-0.4,4.7-1.1
	c5.2-2.6,7.3-8.9,4.7-14l-14-28c19.2-15.5,29.8-29.4,30.3-30.1C148.7,406.7,148.7,401.6,145.9,397.9z M94.2,430.6
	c-29.5,21.3-61.4,32.1-94.7,32.1c-33.3,0-65.2-10.8-94.7-32.1c-13.9-10-24-20.2-29.7-26.5c5.7-6.3,15.8-16.4,29.7-26.5
	c29.5-21.3,61.4-32.1,94.7-32.1c33.3,0,65.2,10.8,94.7,32.1c13.9,10,24,20.2,29.7,26.5C118.2,410.4,108.1,420.6,94.2,430.6z"/>
</svg>
