<?xml version="1.0" encoding="utf-8"?>
<!-- Generator: Adobe Illustrator 19.0.0, SVG Export Plug-In . SVG Version: 6.00 Build 0)  -->
<svg version="1.1" id="Слой_1" xmlns="http://www.w3.org/2000/svg" xmlns:xlink="http://www.w3.org/1999/xlink" x="0px" y="0px"
	 viewBox="0 0 237.8 128" style="enable-background:new 0 0 237.8 128;" xml:space="preserve">
<style type="text/css">
	.st0{clip-path:url(#XMLID_27_);}
</style>
<g id="XMLID_2_">
	<g id="XMLID_6_">
		<defs>
			<rect id="XMLID_7_" y="0" width="237.8" height="128"/>
		</defs>
		<clipPath id="XMLID_27_">
			<use xlink:href="#XMLID_7_"  style="overflow:visible;"/>
		</clipPath>
		<path id="XMLID_8_" class="st0" fill="#23e5e0" d="M235.9,58.6c-0.5-0.6-11.3-15-31.1-29.4c-26.3-19.1-56-29.2-86-29.2s-59.7,10.1-86,29.2
			C13,43.6,2.1,58,1.7,58.6c-2.2,3-2.2,7.1,0,10C2.1,69.2,13,83.6,32.8,98c26.3,19.1,56,29.2,86,29.2s59.7-10.1,86-29.2
			c19.8-14.4,30.7-28.8,31.1-29.4C238.2,65.6,238.2,61.5,235.9,58.6L235.9,58.6z M165.7,63.6c0,25.8-21,46.9-46.9,46.9
			c-25.8,0-46.9-21-46.9-46.9s21-46.9,46.9-46.9S165.7,37.8,165.7,63.6L165.7,63.6z M19.3,63.6c7.1-7.9,23.1-23.4,46.1-34.4
			C59,39.1,55.2,50.9,55.2,63.6c0,12.7,3.8,24.6,10.2,34.5c-7.6-3.7-15.1-8.1-22.4-13.4C31.9,76.7,23.9,68.6,19.3,63.6L19.3,63.6z
			 M194.5,84.7c-7.3,5.3-14.8,9.7-22.4,13.4c6.5-10,10.2-21.8,10.2-34.5c0-12.7-3.8-24.6-10.2-34.5c7.6,3.7,15.1,8.1,22.4,13.4
			c11.1,8,19.2,16.1,23.7,21.2C213.7,68.6,205.6,76.7,194.5,84.7L194.5,84.7z M194.5,84.7"/>
	</g>
	<path id="XMLID_3_" fill="#23e5e0" d="M132.6,63.6c0,7.6-6.2,13.8-13.8,13.8c-7.6,0-13.8-6.2-13.8-13.8s6.2-13.8,13.8-13.8
		C126.4,49.8,132.6,56,132.6,63.6L132.6,63.6z M132.6,63.6"/>
</g>
</svg>
