<?xml version="1.0" encoding="utf-8"?>
<!-- Generator: Adobe Illustrator 19.0.0, SVG Export Plug-In . SVG Version: 6.00 Build 0)  -->
<svg version="1.1" id="Слой_1" xmlns="http://www.w3.org/2000/svg" xmlns:xlink="http://www.w3.org/1999/xlink" x="0px" y="0px"
	 viewBox="0 0 47.4 49.5" style="enable-background:new 0 0 47.4 49.5;" xml:space="preserve">
<style type="text/css">
	.st0{fill:#0da5ce;}
</style>
<g>
	<path class="st0" d="M23.7,30.3c-8.2,0-14.9-6.8-14.9-15.1S15.5,0,23.7,0s14.9,6.8,14.9,15.1S31.9,30.3,23.7,30.3z M23.7,2
		c-7.1,0-12.9,5.9-12.9,13.1c0,7.2,5.8,13.1,12.9,13.1s12.9-5.9,12.9-13.1C36.6,7.9,30.8,2,23.7,2z"/>
</g>
<g>
	<path class="st0" d="M1,49.5c-0.1,0-0.1,0-0.2,0c-0.5-0.1-0.9-0.6-0.8-1.2C2,37.9,10.3,30,20.7,28.7c0.6-0.1,1,0.3,1.1,0.9
		c0.1,0.5-0.3,1-0.9,1.1c-9.5,1.2-17.1,8.5-18.9,18C1.9,49.1,1.5,49.5,1,49.5z"/>
</g>
<g>
	<path class="st0" d="M20.8,30.7c-0.5,0-0.9-0.4-1-0.9c-0.1-0.5,0.3-1,0.9-1.1c1.8-0.2,3.4-0.3,5.2-0.1c0.6,0.1,1,0.5,0.9,1.1
		c-0.1,0.5-0.5,1-1.1,0.9c-1.7-0.2-3.2-0.1-4.8,0.1C20.9,30.7,20.8,30.7,20.8,30.7z"/>
</g>
<g>
	<path class="st0" d="M26.6,30.2c-0.3,0-0.5-0.1-0.8-0.1l0.1-1c0.3,0,0.6,0.1,0.8,0.1L26.6,30.2z"/>
</g>
<g>
	<path class="st0" d="M46.4,49.5c-0.5,0-0.9-0.3-1-0.8c-1.8-9.6-9.4-16.8-18.9-18c-0.5-0.1-0.9-0.6-0.9-1.1c0.1-0.5,0.6-0.9,1.1-0.9
		c10.4,1.3,18.7,9.2,20.6,19.6c0.1,0.5-0.3,1.1-0.8,1.2C46.5,49.5,46.5,49.5,46.4,49.5z"/>
</g>
</svg>
