<?xml version="1.0" encoding="utf-8"?>
<!-- Generator: Adobe Illustrator 17.0.0, SVG Export Plug-In . SVG Version: 6.00 Build 0)  -->
<!DOCTYPE svg PUBLIC "-//W3C//DTD SVG 1.1//EN" "http://www.w3.org/Graphics/SVG/1.1/DTD/svg11.dtd">
<svg version="1.1" id="Слой_1" xmlns="http://www.w3.org/2000/svg" xmlns:xlink="http://www.w3.org/1999/xlink" x="0px" y="0px"
	 width="233.825px" height="254.914px" viewBox="0 0 233.825 254.914" enable-background="new 0 0 233.825 254.914"
	 xml:space="preserve">
<metadata><?xpacket begin="﻿" id="W5M0MpCehiHzreSzNTczkc9d"?>
<x:xmpmeta xmlns:x="adobe:ns:meta/" x:xmptk="Adobe XMP Core 5.5-c014 79.151739, 2013/04/03-12:12:15        ">
   <rdf:RDF xmlns:rdf="http://www.w3.org/1999/02/22-rdf-syntax-ns#">
      <rdf:Description rdf:about=""
            xmlns:xmpMM="http://ns.adobe.com/xap/1.0/mm/"
            xmlns:stRef="http://ns.adobe.com/xap/1.0/sType/ResourceRef#"
            xmlns:stEvt="http://ns.adobe.com/xap/1.0/sType/ResourceEvent#"
            xmlns:xmp="http://ns.adobe.com/xap/1.0/"
            xmlns:xmpGImg="http://ns.adobe.com/xap/1.0/g/img/"
            xmlns:pdf="http://ns.adobe.com/pdf/1.3/"
            xmlns:dc="http://purl.org/dc/elements/1.1/"
            xmlns:xmpTPg="http://ns.adobe.com/xap/1.0/t/pg/"
            xmlns:stDim="http://ns.adobe.com/xap/1.0/sType/Dimensions#"
            xmlns:xmpG="http://ns.adobe.com/xap/1.0/g/">
         <xmpMM:RenditionClass>proof:pdf</xmpMM:RenditionClass>
         <xmpMM:DocumentID>xmp.did:f349c449-92e9-0049-9795-26235c9749ff</xmpMM:DocumentID>
         <xmpMM:InstanceID>xmp.iid:f349c449-92e9-0049-9795-26235c9749ff</xmpMM:InstanceID>
         <xmpMM:OriginalDocumentID>uuid:1f2477e6-9637-4892-ab0a-e249cbc6e20b</xmpMM:OriginalDocumentID>
         <xmpMM:DerivedFrom rdf:parseType="Resource">
            <stRef:instanceID>xmp.iid:6250cf00-30d7-0c48-a6f7-bc9c8a0b2327</stRef:instanceID>
            <stRef:documentID>xmp.did:6250cf00-30d7-0c48-a6f7-bc9c8a0b2327</stRef:documentID>
            <stRef:originalDocumentID>uuid:1f2477e6-9637-4892-ab0a-e249cbc6e20b</stRef:originalDocumentID>
            <stRef:renditionClass>proof:pdf</stRef:renditionClass>
         </xmpMM:DerivedFrom>
         <xmpMM:History>
            <rdf:Seq>
               <rdf:li rdf:parseType="Resource">
                  <stEvt:action>saved</stEvt:action>
                  <stEvt:instanceID>xmp.iid:6250cf00-30d7-0c48-a6f7-bc9c8a0b2327</stEvt:instanceID>
                  <stEvt:when>2017-11-18T23:48:16+03:00</stEvt:when>
                  <stEvt:softwareAgent>Adobe Illustrator CC (Windows)</stEvt:softwareAgent>
                  <stEvt:changed>/</stEvt:changed>
               </rdf:li>
               <rdf:li rdf:parseType="Resource">
                  <stEvt:action>saved</stEvt:action>
                  <stEvt:instanceID>xmp.iid:f349c449-92e9-0049-9795-26235c9749ff</stEvt:instanceID>
                  <stEvt:when>2017-11-18T23:49:32+03:00</stEvt:when>
                  <stEvt:softwareAgent>Adobe Illustrator CC (Windows)</stEvt:softwareAgent>
                  <stEvt:changed>/</stEvt:changed>
               </rdf:li>
            </rdf:Seq>
         </xmpMM:History>
         <xmp:CreateDate>2017-11-18T23:49:32+03:00</xmp:CreateDate>
         <xmp:CreatorTool>Adobe Illustrator CC (Windows)</xmp:CreatorTool>
         <xmp:ModifyDate>2017-11-18T23:49:32+03:00</xmp:ModifyDate>
         <xmp:MetadataDate>2017-11-18T23:49:32+03:00</xmp:MetadataDate>
         <xmp:Thumbnails>
            <rdf:Alt>
               <rdf:li rdf:parseType="Resource">
                  <xmpGImg:width>236</xmpGImg:width>
                  <xmpGImg:height>256</xmpGImg:height>
                  <xmpGImg:format>JPEG</xmpGImg:format>
                  <xmpGImg:image>/9j/4AAQSkZJRgABAgEASABIAAD/7QAsUGhvdG9zaG9wIDMuMAA4QklNA+0AAAAAABAASAAAAAEA&#xA;AQBIAAAAAQAB/+4ADkFkb2JlAGTAAAAAAf/bAIQABgQEBAUEBgUFBgkGBQYJCwgGBggLDAoKCwoK&#xA;DBAMDAwMDAwQDA4PEA8ODBMTFBQTExwbGxscHx8fHx8fHx8fHwEHBwcNDA0YEBAYGhURFRofHx8f&#xA;Hx8fHx8fHx8fHx8fHx8fHx8fHx8fHx8fHx8fHx8fHx8fHx8fHx8fHx8fHx8f/8AAEQgBAADsAwER&#xA;AAIRAQMRAf/EAaIAAAAHAQEBAQEAAAAAAAAAAAQFAwIGAQAHCAkKCwEAAgIDAQEBAQEAAAAAAAAA&#xA;AQACAwQFBgcICQoLEAACAQMDAgQCBgcDBAIGAnMBAgMRBAAFIRIxQVEGE2EicYEUMpGhBxWxQiPB&#xA;UtHhMxZi8CRygvElQzRTkqKyY3PCNUQnk6OzNhdUZHTD0uIIJoMJChgZhJRFRqS0VtNVKBry4/PE&#xA;1OT0ZXWFlaW1xdXl9WZ2hpamtsbW5vY3R1dnd4eXp7fH1+f3OEhYaHiImKi4yNjo+Ck5SVlpeYmZ&#xA;qbnJ2en5KjpKWmp6ipqqusra6voRAAICAQIDBQUEBQYECAMDbQEAAhEDBCESMUEFURNhIgZxgZEy&#xA;obHwFMHR4SNCFVJicvEzJDRDghaSUyWiY7LCB3PSNeJEgxdUkwgJChgZJjZFGidkdFU38qOzwygp&#xA;0+PzhJSktMTU5PRldYWVpbXF1eX1RlZmdoaWprbG1ub2R1dnd4eXp7fH1+f3OEhYaHiImKi4yNjo&#xA;+DlJWWl5iZmpucnZ6fkqOkpaanqKmqq6ytrq+v/aAAwDAQACEQMRAD8A9U4q7FXYq7FXYq7FXYq7&#xA;FXYq7FUNNqFtHtXm3gu/44qhH1S4c0iQL4ftHFWvT1OXqWAPieP4bYq79GXTbsy/SSf4YqtXTXZi&#xA;qyoWXqATt+GKrv0fep9hh/sWI/pirXPU4evIgda/EPv3xVUi1Y9JU+lf6HFUbDdQTfYYE/ynY4qq&#xA;4q7FXYq7FXYq7FXYq7FXYq7FXYq7FXYq7FXYq7FXYq7FXYqo3N3FAPiNW7IOuKpc0t5eMVQUTuBs&#xA;PpOKq36PjgiaWWshUV4DYYqiLCaKWM8EEZU0KjFUTirsVS2xhlW9kLKQPi3I23OKplirsVQ94tqs&#xA;ZeZK9gR9qvzxVA/UPUjE1sxIPRW2YU98VTC0WdYQJjV/vNMVVsVdirsVdirsVdirsVdirsVdirsV&#xA;dirsVdirsVdirsVQd7fiKsce8nc9hiqHtbB5j6s5IU707nFUzRERQqAKo6AYq5wpRg/2SKNXwxVL&#xA;Ypra0Z/TYzFtgBsB9OKqn1jUpf7uIIvif7cVd9X1JvtTBfkf6DFWzZ33a4P3nFWvS1RPsyB/bb+I&#xA;xV3167i/v4du7Db+oxVbO8V76axyBCCaq+1a+GKo6GJYoljHRRSuKr8VQN9cXUEqsn90QOwpXwxV&#xA;EW11HOlV2YfaXwxVWxV2KuxV2KuxV2KuxV2KuxV2KuxV2KuxV2KoO/vPRX00P7xu/gMVQ0FuI4jd&#xA;TryAoVTxqaVOKo+2uo7hSV2I6qcVW3V7HAKfak7KP44qhltrq6POdikfZB/TFUbDbQQj4FAP83U/&#xA;fiqpirsVdirsVdiqGn0+3l3A4N/Mv9MVQ/qXdmaSfvYex8MVR0M0cyc0NR38R88VQ91ewKxhZfUr&#xA;sw7DFUHPDLZzCSM/BX4T/A4qmVvcJPGHXr0YeBxVVxV2KuxV2KuxV2KuxV2KuxV2KuxV2KqVzOsE&#xA;Rc9eijxOKpfZW7XEpml3UGpr3OKpoyqylWFVOxGKpfIY7Nmjt6tNJTbrxxVWtLEIfVl+KY7770/t&#xA;xVF4q7FXYq7FXYq7FXYq7FXEAggioPUHFUvntpLV/Xt/s/tp7f0xVUtoraeQ3IqXJ3Q9jiqKkjSR&#xA;CjiqnriqVI0lldFW3Q9fdfHFU3BBAINQdwcVdirsVdirsVdirsVdirsVdirsVdiqU3sjXF0Ik6Ke&#xA;I+fc4qmkUaxRqi9FGKqd3ciCIt1Y7KPfFVGxtSo9eXeV9xXsDiqMxV2KuxV2KuxV2KuxV2KuxV2K&#xA;uxVLp0aznE0Y/cuaMv8An+GKpgjK6hlNVIqDiqG1C39WHkB8abj5dxiqnpdxyQwsd03X5YqjsVdi&#xA;rsVdirsVdirsVdirsVdiqldS+lA79wKD5nbFUvsIpPTlnQVkApH8++Kqtre3JmEMq8ieppQjFWlH&#xA;1y9LHeGLp4H/AG8VTHFXYq7FXYq7FXYqkuoecNDsbs2s0rNKhpJwUsEPgT/TMiGlnIWHS6rt/S4M&#xA;nhyJ4hzoXX48k3t54biFJ4XEkUgDI46EHKJRINF22LLHJESibieS/A2OxV2KuxVbLGskbI3RhTFU&#xA;Hp7tHI9q/VTVf8/xxVUl1K2RuIq5Gxp0/HFUE1LW+DL/AHZIYf6rYqm+KuxV2KuxV2KuxV2KuxV2&#xA;KuxVL9Xk+GOPxJY/RsMVRVnH6dtGvelT8zvirV7L6Vu7D7RHEfTiq3T4fTtl/mf4j9PTFUTirsVd&#xA;irsVdirsVeT65oeq2+rXCNbySCWRmikRSwcM1QQQOu+bvDmiYjd8o7S7Nz49RIGMjciQQLuy9C8q&#xA;2FzY6FbW9yKTDkzJ/LzYsF/HNXqJiUyQ+hdiaWeDSwhP6t/hZuk2yh2rsVdirsVdiqA1AGKeK5Xs&#xA;aN/n8sVVlsLTn6gWtdwCdsVUdWj+BJB2PE/TiqJspPUto27gUP0bYqrYq7FXYq7FXYq7FXYq7FXY&#xA;qlV/+8vlj/1V+/f+OKpriqA1Ml2hhH7Tf2D9eKo8AAADoOmKuxVxIAqdgOpxVjWq+fdIs5Gitw15&#xA;KuxKECMHw5nr9AOZePRyludnmtb7UafCeGF5JeXL5/qtKh+ZknLfTxx8PVNfv4Zf+Q83Vj2xN/3W&#xA;39b/AI6nOk+d9Hv5Fhctaztsqy04k+AcbffTMfJpJx35h3Oh9pNPnIifRI9/L5/rpkOYr0DENS/M&#xA;H6lf3Fp9Q9T0JGj5+txrxNK04HM/HouKIN8/J5DWe1Xg5ZY/DvhJF8X/AB1kej6j+kdNgvfT9L1g&#xA;T6deVKMR1oPDwzEyw4JEPR9n6v8AMYY5a4eLpz6rdX1vT9JgEt3JTlX0413diP5RhxYpTNBjr+0s&#xA;OljxZDz5DqfcxWb8yzzPo2FU7F5Nz9AXMwaDvLy2T2x39OPbzl+xVtPzJtmYC7s3jHd42D/gQv68&#xA;EtAehbcHthAmsmMj3G/1Mq0/UrHUbf6xZyiWOtCRUEHrQg7g5hTxmJovU6TWYtRDjxniCJyDkoe/&#xA;Tnav4r8Q+jFW7J+drGe4FPu2xV1+nK0k9hX7jiqhpLVhdf5Wr94xVHYq7FXYq7FXYq7FXYq7FXYq&#xA;lR+LVf8AZ/qGKpkbiAGhkUEdQWGKoO4o2pQjsAD+s4qj8VdirDvzB1ySCKPTIG4tOvO4YdeFaBf9&#xA;lQ1zP0WGzxHo8d7VdpShEYIGjIXL3d3x6sR0PQrzWLowW9FVBWWVvsoD/E9hmdmzDGLLyXZvZmTV&#xA;5OGHIcz0DLf+Va2fpU+uyer/ADcF4/8AA1r+OYP583yet/0H4+H+8lxe4V8v2pJceRNai1CO2jAl&#xA;hlO10NkUDrzH7J9u/bMmOsgY39jpcvsxqY5hAeqJ/i6D3936ej0bT7T6nZQ2vqNN6KhfUf7Rpmpn&#xA;LiJL6HpcHg4owsy4RVl5P5j/AOO9qH/Gd/8AiWbvB9A9z5V2v/jeT+ufvej+T/8AlG7H/Vb/AIm2&#xA;arVf3hfRewP8Sx+4/eWCed7mWbzFcq5qsIWOMeC8Qf1k5sdJEDGHhvaTNKeskDyjQHyTnyv5R0XU&#xA;NKS7uJHlmcsHRGChKEgAgb1pvvlGo1M4yoO47F7B02owDJMmUjzAPJV1L8uIShbTrhlcdIpqEH/Z&#xA;KBT7sjj15/iDbrPZGNXhlv3S/WP1Fknl/SV0vSobQUMgHKZh3kb7X9BmJmycciXo+ytCNLgjj68z&#xA;7+v6kxyp2K2YViceKkfhiqE02RVtCWYKAxFTsO2KoiSSKSGRUdWPE7Ag9sVQWkHeUf6v8cVTLFXY&#xA;q7FXYq7FXYq7FXYq7FUqG2q/7L+GKqzaShYkSEAmtKYq1IoTUoF7BQB9FRiqYYq7FXlnnh2bzNdg&#xA;nZBGF+Xpqf1nNzpB+7D5d7SyJ1s/Lh/3IZX+XcMa6JJIv25Jm5nv8KgAZh64+v4PU+yeMDSkjmZn&#xA;7gyjMJ6h2KuxV5B5j/472of8Z3/4lm9wfQPc+Rdr/wCN5P65+96P5P8A+Ubsf9Vv+Jtmq1X94X0X&#xA;sD/EsfuP3lI/OflO7urltSsF9V3AE8A+1VRQMvjsOmZGk1IA4ZOj9ouwsmWfjYhxE/UOu3UfqYVF&#xA;Nf2E5Mby2s67GhZGHsembAiMh3h4yGTLgnsZQl8QWQ6Z5/1a2ZVvAt3D3JAWQD2YbfeMxcmiieWz&#xA;0Gi9qdRjNZP3kfkfn+sM/wBN1G11GzS7tW5RP2OxBHVSPEZrMmMwNF77R6vHqMYyQNxP4oonIOS1&#xA;IaRsfAHFUus7YT2RQkr+85Aj5AYqqx2C24eTmWIQ7Up2xVS0j7UvyH8cVTLFXYq7FXYq7FXYq7FX&#xA;Yq7FUquf3epBu3JT+rFU1xVAX/wXVvL2rQ/Qf7cVR+KuxV55+YmnPFqUV8o/dXCBGbwkTan0rTNr&#xA;oclx4e5899rNIY5hlH0zFfEfs/SpeSvMsGmSSWl4StrOwdZOoR6UqQOxAGHV6cz3HMNXs72xHTE4&#xA;8m2OW99x/az39L6V6fq/XYPT/n9RKffXNZ4UuVF7z8/p+Hi8SFf1gkV/5/0u3vYoYFNzBX9/OuwX&#xA;/VB+1mTDRSIs7F0Wq9qcGPKIxHHH+KQ6e7vZHa3Vvd26XFvIJYZBVHXpmLKJiaL0eDPDLATgbiXk&#xA;vmP/AI72of8AGd/+JZu8H0D3Pk/a/wDjeT+ufvej+T/+Ubsf9Vv+Jtmq1X94X0XsD/EsfuP3lSbz&#xA;lo8eqzafOxi9I8RcHdC37SmnSh2w/lZmIkGqXtDp46iWGR4eHbi6X1HlSZS2+lanCPUSG7iP2W+F&#xA;xv4MK0+jKRKUD1Dsp4sGpjuI5I/A/a82836ZpunaoIbB/gZOUkXLl6bVI416/Qc2+lySlG5Pm/b+&#xA;iw6fPw4jtW458J7mRflq0n1O9U19MSIV8ORU8v1DMTX8w9F7Hk+HkHTiH3b/AKGZZgPYqV2/C2kP&#xA;+SR9+2KqenLxtE/yqn8cVX3jcbWU/wCSR9+2KobSF+CRvEgfd/t4qj8VdirsVdirsVdirsVdirsV&#xA;SzVkpJHIO4p92/8AHFUwhk9SJH/mAOKofUo+dsSOqEN9HTFVa1l9WBH7kb/MbHFVXFUNqOnWuo2j&#xA;2l0vKJ/DYgjoVPYjJ45mJsONq9Jj1GM45i4n8bPPtU8haxauTaAXkHYqQrge6k/qzaY9ZA89i+f6&#xA;32X1GI3j/eR+35fqSseWtfJp9Qnr/qEZd48O8OrHY+r/ANTn8k50j8v9SnkV9QItYAd0BDSMPalQ&#xA;Pp+7MfLrYj6dy7nQeyubIbzeiPzl+ofjZ6BaWlvaW0dtboI4YhRFGayUjI2XvsGCGKAhAVEPN9d8&#xA;ua5PrN7NDZyPFJM7I4AoQTseubbDngIAE9HzntPsjVT1OSUccjEyNM58sW09roVpBcIY5kVg6N1F&#xA;XJzW6iQMyQ9x2Nhni0sITFSA5fEsV1n8vr0SvNp0onRiW9KU0kBP+Ufhb6aZm4taKqWzy3aHspkE&#xA;jLCeIHoefz5H7Ehby35iicj6jOG6EopI+9ajMnx8Z6h0R7H1kD/dz+H7EVYeSdfu3AeD6tH3kmNK&#xA;f7H7X4ZCerhHrbk6X2c1eU7x4B3y/VzeiaLpFtpNglpAS1CWkkOxZz1JzVZcpnKy+h9naCGlxDHH&#xA;4nvPejsrc5Bao5KJCv2pG6fL+3FUXGgSNUHRQB92KoXVZONuE7ufwG+Kr9OThar4sS2KonFXYq7F&#xA;XYq7FXYq7FXYq7FUNqEXqWzU6p8Q+jr+GKoW1eaSzeGJqSIajelVPh9OKqlnYyozPMftAgrWta+O&#xA;KusWMM8lq571T/P5Yqj8VdirsVdirsVdirsVdirsVdirsVdirsVS6MtcXck4FViH7seJHT+uKuh1&#xA;Gf1RHKlammwoRXFVO/czXaxLvxoo+Z64qmiKFUKOiig+jFW8VdirsVdirsVdirsVdirsVcRUUPTF&#xA;UoFbO93+x/xqcVTcEEVHTFUHqEDECePaSPc08B/TFVe1uFniDD7Q2YeBxVVxV2KuxV2KuxV2KuxV&#xA;2KuxV2KuxVBahcHa3i3kfZqdge2Koi2gEEIQderHxOKuuZUhjMpA5AUXxqcVQOmQl5WnfenQ+LHr&#xA;iqZ4q7FXYq7FXYq7FXYq7FXYq7FXYqhNRtvVi5qPjTf5juMVWaZdcl9Fz8S/Y9x4fRiqOxVL54ZL&#xA;SX14RWI/bTwxVGwTxzJzQ1HcdwcVX4q7FXYq7FXYq7FXYq7FXYqhry8WEcF+KU9F8Pniq2ytClZp&#xA;d5m337V/jiqLxVKbuZrq4WKPdQaL7nucVTOGJYoljXoO/icVX4q7FXYq7FXYq7FXYq7FXYq7FXYq&#xA;7FUrvrVoZPXi2WtTT9k4qrrdvPaP6W1wAKqOvXcjFW9PtXiRmk6v+yfD3xVZNaSwP61qdv2o/wDP&#xA;riqrb6hFL8L/ALuTpQ9MVRWKuxV2KuxV2KuxVpmVQSxoB1JxVBTX7O3pWqlmP7f9MVVLSxER9SQ8&#xA;5jvXwxVQuLa5S79aGp5GtR29jireoXvWGI7nZ2H6sVVdPs/RXm4/eN28BiqLxV2KuxV2KuxV2Kux&#xA;V2KuxV2KuxV2KuxVxAYEEVB2IOKpVdWsltJ60JPAHY+HzxVH2k5nhDkUPQ08RiqtiqFvobQpzl+E&#xA;9Ay9a4qh40vYkDwOJojuAfD5HFVQamUNJoWU+39DTFVRdStD1Yr8wf4VxVd+kbP/AH5+Df0xVY2q&#xA;Wo6cm+Q/riqn9fuZdoIT/rHf+gxVattJPLxuZxyG/pgiv9MVR0UMUS8Y14jv4nFV5IAqemKpdeaj&#xA;WsUB67Fx/DFV9jYcKSyj4/2VPb54qjsVdirsVdirsVdirsVdirsVdirsVdirsVdirsVd1xVyqqii&#xA;gAeAxVDXF/HBKI2UnapI7Yqo3SG89P0HDKK8gTQivcjFUbFGI41QdFFMVXEAihFRiqm1rbt1iX7h&#xA;iqCtjbS3DRmBQBWh+R74qjlggX7Maj5AYqvxVLp7adL5ZY1JVmBr4eNcVRU97BDsW5N/Ku5xVL5J&#xA;7q8bggon8o6fScVRtpYRw0Zvik8ew+WKorFXYq7FXYq7FXYq7FXYq7FXYq7FXYq7FXYq7FXYq7FX&#xA;Yqpz20MwpItT2buMVQEumTIeULcqdB0bFVgvb6A0kBI/yx/HFVdNXT9uMj5Gv66YqqjU7U9SR8x/&#xA;TFUPBJYwzNKJS3KtF4nau+Kq7apbDpyb5D+uKqL6uf2I/pY/wGKqXPULnYV4nw+EffiqtBpQG8zV&#xA;/wAlf64qjkjSNeKKFXwGKrsVdirsVdirsVdirsVdirsVdirsVdirsVdirsVdirsVdirsVdirsVcQ&#xA;CKHceGKqL2dq/WMfRt+rFVM6ZanoCPkf64qt/RVt4t94/piq9dNtB1Un5k/wxVVS2gT7Mag+NN8V&#xA;VMVdirsVdirsVdirsVdirsVdirsVdirsVdirsVdirsVdirsVdirsVdirsVdirsVdirsVdirsVdir&#xA;sVdirsVdirsVdirsVdirsVdirsVdirsVdirsVdirsVdirsVdirsVdirsVdirsVdirsVdirsVdirs&#xA;VdirsVdirsVdirsVdirsVdirsVdirsVQfran/vhfvH9cVd62p/74X7x/XFXetqf++F+8f1xV3ran&#xA;/vhfvH9cVd62p/74X7x/XFXetqf++F+8f1xV3ran/vhfvH9cVd62p/74X7x/XFXetqf++F+8f1xV&#xA;3ran/vhfvH9cVd62p/74X7x/XFXetqf++F+8f1xV3ran/vhfvH9cVd62p/74X7x/XFXetqf++F+8&#xA;f1xV3ran/vhfvH9cVd62p/74X7x/XFXetqf++F+8f1xV3ran/vhfvH9cVd62p/74X7x/XFXetqf+&#xA;+F+8f1xV3ran/vhfvH9cVd62p/74X7x/XFXetqf++F+8f1xV3ran/vhfvH9cVd62p/74X7x/XFXe&#xA;tqf++F+8f1xV3ran/vhfvH9cVd62p/74X7x/XFV/qX3o19JfV5U41FONOvXxxVE4q7FXYq7FXYq7&#xA;FXYq7FXYq7FXYq7FXYq7FXYq7FXYq7FXYq7FXYq7FXYq7FXYq7FXYq7FXYq7FXYq7FXYq7FXYq7F&#xA;XYq7FXYq7FXYq7FXYq7FXYq7FXYqore2bT+gs8ZnqR6QdS9RuRxrXJcBq62aRqcZlwCUeLusX8lb&#xA;ItzsVdirsVdirsVdiqjDe2c7mOGeOVwKlEdWIA2rQHJGBHMNOPU45moyjI+RBVsi3OxV2KuxV2Ku&#xA;xV2KuxV2KuxV2KuxV2KpZ5lXU20acaaWF18PHgaPx5DlxPjTLsHDxji5Os7YGc6aXgfXty5896QP&#xA;kpNaTTpBqnqA8/3Anr6gWgrXlvSvTLNWYcXpcL2djqRhPj8XPbi518WQ5ivQOxV2KuxV2KuxV55p&#xA;n/kxX/4z3H/Jt82uT/F/gHz3R/8AGwf68/8Acyeh5qn0J2KuxV2KuxV2KuxV55+X/wDykV3/AMYJ&#xA;P+TqZtdb/dj3vnvst/jk/wCpL/dReh5qn0J2KuxV2Ku6Yqk175w8v2jmN7oSSDYrEC9PpHw/jmRD&#xA;S5JdHTajt/SYjRnZ8t/2KMPnry5K/EztHXoXRgPvAOSOjyDo04/abRyNcRHvBTuC4guIhLBIssTf&#xA;ZdCGB+kZjGJBou7xZYZI8UCJR7wqYGxBajrWl6coN5cLETuE3LH5KtTlkMUp8g4Wr7RwacfvJCP3&#xA;/IbpV/j7y7yp6klK9fTNMv8AyWR1X+ijR3zl8k107WtL1FSbO4WUjcpuGHzVqHKJ4pQ5h2uk7Rwa&#xA;gfu5CX3/ACO6NytzVC/voLG0ku7gkQxAFyoqdyB0+nJQgZGg4+q1MMGM5J/TFR0nV7LVbZri0LGN&#xA;HMZ5DieQAP8AxtksuIwNFq0Ovx6qBnjuga/HzRU8yQQSTP8AYiUu1NzRRU5ACzTlZcghEyPKIv5I&#xA;HR9f07V/W+plj6HH1OS8ft1p/wARyzLhlDn1cHs/tTDq+Lw79NXY77/Uo3/mzQbGQxS3IeVTRkjB&#xA;cg+5Gw+/JQ005bgNOq7d0mE8Mp3LuG/7EPB558uSuEM7R16M6MB94rkzo8g6OPi9pdHI1xEe8FPY&#xA;pY5Y1kicPG4qrqQQQe4IzGIrm72E4yAlE2CuwMnnmmf+TFf/AIz3H/Jt82uT/F/gHz3R/wDGwf68&#xA;/wDcyeh5qn0J2KpNqHm7QbFzHJcepKvVIgXp8yPh/HMiGmnLo6fVdvaTCeEyuXdHf9iGg8++XpX4&#xA;tJJDX9qRDT/heWSOjyBxsXtRo5GiZR94/VadNqFoLF75ZBJbRo0pkjIYFUBJpT5ZRwHi4eruTqsf&#xA;hHKDcACbG+wUNI1uw1aOSSzLFYiFbkvHciuSy4ZQ5tGg7SxaqJOO6Hej8qc955+X/wDykV3/AMYJ&#xA;P+TqZtdb/dj3vnvst/jk/wCpL/dRZjqXmLRtNbhdXKrL/vpau/0ha0+nNfjwTnyD2Os7W02nNZJj&#xA;i7uZ+z9KATz55cZgDLIgP7TRtT8K5adHkdfH2n0ZNWR/mlO7S9tLyETWsyzRH9pDXfwPgcx5QMTR&#xA;d3g1OPNHixyEo+StkW5gnm7W72/1IaFppJHIRy8DQu56qT/KvfNlpsIjHjk8L292llz5vyuHvo11&#xA;Pd7h1+1NNJ8haTbRK18Dd3BFWqSIwfBQKV+nKcmtkT6dg7PQ+y+nxxBy+uf2fD9qMuvJfl2dCv1X&#xA;0m7PEzKR+JX7xlcdXkHVzM3s7o8grg4fMEj9n2ITy75VvdI1KaT62WsSPgiG3Mn+cHYcfbLM+pE4&#xA;jbdxOyexMukzSPHeLoO/3+7y/YjPNev/AKH08PHQ3c5KQA7gU+0xH+Tlemw+JLfkHM7c7U/KYbj/&#xA;AHkto/pPwY55d8oPqq/pTV5HZZzySOvxOP5mbqAe1My8+q4PTB53snsA6oePqCSJbgdT5k93cyb/&#xA;AAl5c4cPqKU6Vq1fvrXMP8zk73pf5B0dV4Y+39bGfMXlB9LX9KaPI6rAebx1+KMD9pW6kDvXMzBq&#xA;uP0z6vNdrdgHSjx9OSBHcjqPMHu72ReU9e/S+ncpaC7gIScDvts9P8r9eYmpw8EtuReh7C7U/N4b&#xA;l/eR2l+v4/ev84f8o3ff6q/8TXHS/wB4Gfb/APiWT3D7wlv5cf8AHDn/AOYl/wDk3Hluu+se513s&#xA;j/isv+GH/cxZBq3/AByr3/jBL/xA5i4vqHvd/rv7jJ/Ul9zzDQJ9TcT6Xp3wzagUDyA04pGG5b9h&#xA;8W+bjNGO0pfwvmPZeXOeLBh+rLVnuAu/v/Fs10/yHodvEBco13NT4ndmVa+yqR+Nc189ZMnbZ7XS&#xA;ezGlxx9Y45d5sfYP2rNV8haRcQMbJTa3IFUIZmQnwYMW/DDj1swfVuGGu9l9PkifCHBPpua+N39i&#xA;TeRtTurPVpNHuKhJC4EbfsSpUmnzocyNZjEo8YdN7NazJh1B00+RvbukHoGat7955pn/AJMV/wDj&#xA;Pcf8m3za5P8AF/gHz3R/8bB/rz/3Mnoeap9CYX558w3CSro9kxEjgfWGT7R5/ZjFPHvmw0eAVxl4&#xA;z2l7VnGX5fFzP1Vz35RVtC8hWUMKzaovr3LCphqQie3w/aP4ZHNrSTUdg3dmey+KERLP6p93QfLn&#xA;9ycT+U/L00fA2UailAyVRvvBGUDU5B1dvk7C0cxRxge7b7mJ6tYX/lgXCW7tPpOoRyQlW6q7oQK9&#xA;qjx7jM3FOOar2lF5TXaXL2ZxCB4sGWMo+4kH7fPqEx/LX/eG8/4yr/xHKtf9Qdj7H/3WT+sPuZjm&#xA;A9g8k0rUb2y1C5+oqWu7pWt4SNyGeRTUDx+HbN5kgJRHFyG75LodXlw5p+EP3kwYj4yH6mZ6T5F0&#xA;+JBNqdby8f4pOTHgCd+27fM5r8uskdo7B7PQezOGI4s/7zIee+37fij7nyf5dnjKG0WM9njJVh9x&#xA;p9+Vx1WQdXOzez+jmK4APdsw69s9S8o6rHPbSGS1l+yTsHUdUceI8cz4SjnjR5vIanT5+yc4nA3C&#xA;X2/0Zef9oZ7+mLP9EfpXl/o3per79Ps/Ou3zzWeEePh6vd/n8f5fx/4OHi/Z7+nvYV+X8Yudcury&#xA;X4pVjZgT/NI25+6ubDWmoAB4v2Vj4mqnkl9QBPxkXoWat9BdirsVefee+Vz5js7QmicI1A95HIJ/&#xA;Vm00e2Ml8/8Aaa8mshj6UPtkXoCIiIqIOKKAqqOgA2AzVk299GIiAByDeLJp0V0ZHAZGBDKehB2I&#xA;xBRKIkKPIvP/ACMGtvMt5aA1QJIh+ccgAObTWb4wXgfZoHHrcmPpUh8pBlPnD/lG77/VX/ia5h6X&#xA;+8D0/b/+JZPcPvCW/lx/xw5/+Yl/+TceW676x7nXeyP+Ky/4Yf8AcxZBq3/HKvf+MEv/ABA5i4vq&#xA;Hvd/rv7jJ/Ul9zDPy0t42ub64I+ONI0X5OWJ/wCIDNhr5bAPG+x2IGeSfUAD53+pnuax7x2KvPJA&#xA;F/MUcdv36nb3QVzaj/F/g+ezFdsbfzx/uXoeap9CeeaZ/wCTFf8A4z3H/Jt82uT/ABf4B890f/Gw&#xA;f68/9zJ6HmqfQnnejqt759mkl+IRzTOoP/FZKp922bXL6cAruD572fEZu1ZSl0lI/LYfJ6JmqfQn&#xA;Yqlfmi2S48v3yMAeETSrXsYxzH/Ecu08qmHV9tYRk0mQHpEn/S7/AKEi/LX/AHhvP+Mq/wDEcydf&#xA;9QdH7H/3WT+sPuZjmA9g838jWyTeZpHcVMCSSL8+QT/jfNtrJVj975x7NYRPWkn+ESP21+l6Rmpf&#xA;R3YqkPni2Sby5cMw+KEpIh8DyCn8GOZOklWQOh9pMIno5E/w0R86+4sS+uyf4B9Gp4/XfRp/k8fW&#xA;/wCJZncH7+/6P7Hk/wAyf5J4f9t4fs4/vVvLco0PzZPZXHwRyFoAx2G5DRt9P8cjnHiYhIe9u7Iy&#xA;fktfLFPYG4/pifj+l6LmqfRHYq1yXlxqOVK070xRYumCfmJaSw31nqUY+HiIy3YOjFlr86/hmy0M&#xA;gYmLwvtZglDLDMO6viDY/HkzPTr+C/sYbuE1SVQaeB7qfcHbMDJAxJBey0mqjnxRyR5SH4HwROQc&#xA;lD6jfQWFlNdzGkcSlqeJ7KPcnbJwgZEAOPq9THBilklyiPwPiwv8vLWWfUbzUpBsFKV7F5GDNT5c&#xA;fxzYa6QERF4z2TwynmyZj3V8SbP3fayTzh/yjd9/qr/xNcxNL/eB6Pt//EsnuH3hLfy4/wCOHP8A&#xA;8xL/APJuPLdd9Y9zrvZH/FZf8MP+5iyDVv8AjlXv/GCX/iBzFxfUPe7/AF39xk/qS+5iP5Zf9LL/&#xA;AJ4f8zMzu0P4fj+h5L2N/wAr/mf75nGa57d2KvPJv/JjD/jOn/JsZtB/i/wfPcn/ABsf54/3L0PN&#xA;W+hPPNM/8mK//Ge4/wCTb5tcn+L/AAD57o/+Ng/15/7mT0PNU+hPOpZf0H56eab4YJZWdm7enPUk&#xA;/wCxJ/DNqB4mGhz/AFPneSf5LtQyl9MpE/Cf6j9z0UEMAQag7gjoRmqfQwb3DsUpB521OOz0OaLl&#xA;+/ux6Ua9yD9s/ILmVpMfFMHoHQ+0esjh0so/xZPSP0/Ylv5a/wC8N5/xlX/iOW6/6g632P8A7rJ/&#xA;WH3MxzAeweWeV9Tj0/zGskp4wyl4ZGPQBzsT7cgM3Wox8WPZ8t7F1g0+s4pbRlcT8f209TzSvqTs&#xA;VYt+YGpxwaSLEN+/u2FV7iNDyJ+8AZm6LHcuLoHlvarWxhp/C/in9w3+/wDSlf6Fm/5V9Xj+95/X&#xA;OPfj9mv/ACL3y7xR4/2Os/k6X8kcvVfifDl/ud0681+VF1ZRc2xEd9GKb/ZkXsrHsR2P+Yx9NqeD&#xA;Y8nddudhjVjjhtlH+y8j+g/gEVv5n8z6IottRtGmjj2VpAQ1B4SCqsPvzJlp8eTeJdFi7Z12iHBm&#xA;hxAd/wDxXI/arN+YGq3X7vT9N/enYbtMa/JVTI/kox+qX6G4+1WfLthxer4y+4BG+WtD106kdY1W&#xA;d0lZSohqOTKR0YDZVHULleozQ4eCIc3sfs3VHN+Z1EiJd3f7+gHl9zI9T0221GyktLkVjkHUdVI6&#xA;MPcZiY8hgbD0Ws0cNRjOOfI/Z5sHSz81eV53Nqhu7FjU8VLofdlHxIff9ebEzxZhvsXiI6fX9mSP&#xA;hjjxHysfEc4n8bon/lZNxx4fo0et/wAZDSv+rwr+OR/ID+c5P+i+dV4Xq/rfo4f0oZ7TzV5onT60&#xA;htLFTVeSlEHuFPxOf89skJYsI23LjSwa/tOY4xwYh5UPlzkfxszjTNNtdNso7S2FI06k9WY9WPuc&#xA;12TIZmy9votHDT4xjhyH2+aB83qW8uXoUEkqtAP9dcs0v94HC7eBOjyV3D7wl35dI66JOGUqfrLb&#xA;EU/3WmXa4+se513slEjTSv8A1Q/7mKf6qCdLvANyYJKD/YHMXH9Q97vtd/cT/qS+5if5axun6R5K&#xA;Vr6NKin+/Mztefp+P6HlPY+JHi2P5n++Ztmue1dirz6aOT/lYYbiePrp8VDT+7GbQH9x8HgMkD/L&#xA;F1txj/cvQc1b37zvzDb6jonmY6vBHzhdzLHIQSlXFHRqdOpza4JRyY+Avnna2LNotb+YiLiTYPTf&#xA;mD9qeeXfM2ravqNDZ+lp4RuUgqQH2Iq5oD4UAzGz6eMI8/U7zsntnUavN/d8OKjv5+/9CN80eWot&#xA;ZtlKER3kNfSkPQg/stTt+rK9PqDjPk5nbXY8dZAVtkjyP6D+NmK2mueZvLgFre2zS2ybIJK0A/yJ&#xA;BUU+/M2WHHl3B3eWwdpa3s793khxQHK/0S/tRv8AysS9uP3dnplZz9kc2l/4VVU/jlf5EDnLZzf9&#xA;FuTJ6ceL1e8y+wALf8P6reWt9rGuEmdLaX6tbd1IRuJKjZadh49cPjRiRCHKwx/krUZoZNTqvqGO&#xA;XDH/ADTW3Sug7+aK/LhHWyvOSlayr1FP2chrzuHK9kIkYp2P4h9zMMwHr3mHlvRI9T1K+tbhWQNB&#xA;IY5KH4XEiUYZuM+XgiCO98y7H7OGpzZMcxXoNHuPFHdNY9S82eXR9Wubf67Zx7RS0YgKOgDjp8mG&#xA;UnHiy7g0XaR1naHZ/onHxMY5Hfl7/wBBWy/mJqE49Oy08LKelWaU/wDAqqYjQxHMscntbmntix1L&#xA;3mX2ABbpHlTVtWvhqOucljJDMkm0klOi8f2Fw5dTGEeGDDQdh6jVZfG1Vgdx5nyroPwGe8E4cOI4&#xA;U48abU6Upmst7zhFVWz/AP/Z</xmpGImg:image>
               </rdf:li>
            </rdf:Alt>
         </xmp:Thumbnails>
         <pdf:Producer>Adobe PDF library 10.01</pdf:Producer>
         <dc:format>image/svg+xml</dc:format>
         <xmpTPg:NPages>1</xmpTPg:NPages>
         <xmpTPg:HasVisibleTransparency>False</xmpTPg:HasVisibleTransparency>
         <xmpTPg:HasVisibleOverprint>False</xmpTPg:HasVisibleOverprint>
         <xmpTPg:MaxPageSize rdf:parseType="Resource">
            <stDim:w>82.488422</stDim:w>
            <stDim:h>89.927849</stDim:h>
            <stDim:unit>Millimeters</stDim:unit>
         </xmpTPg:MaxPageSize>
         <xmpTPg:PlateNames>
            <rdf:Seq>
               <rdf:li>Cyan</rdf:li>
               <rdf:li>Magenta</rdf:li>
               <rdf:li>Yellow</rdf:li>
            </rdf:Seq>
         </xmpTPg:PlateNames>
         <xmpTPg:SwatchGroups>
            <rdf:Seq>
               <rdf:li rdf:parseType="Resource">
                  <xmpG:groupName>Группа образцов по умолчанию</xmpG:groupName>
                  <xmpG:groupType>0</xmpG:groupType>
               </rdf:li>
            </rdf:Seq>
         </xmpTPg:SwatchGroups>
      </rdf:Description>
   </rdf:RDF>
</x:xmpmeta>
                                                                                                    
                                                                                                    
                                                                                                    
                                                                                                    
                                                                                                    
                                                                                                    
                                                                                                    
                                                                                                    
                                                                                                    
                                                                                                    
                                                                                                    
                                                                                                    
                                                                                                    
                                                                                                    
                                                                                                    
                                                                                                    
                                                                                                    
                                                                                                    
                                                                                                    
                                                                                                    
                           
<?xpacket end="w"?>
	</metadata>
<g>
	<g>
		<g>
			<path fill="#23E5E0" d="M17.031,224.415c-2.418,0-4.598,0.561-6.54,1.683c-1.943,1.124-3.455,2.688-4.533,4.695
				c-1.08,2.008-1.618,4.307-1.618,6.896c0,2.59,0.539,4.901,1.618,6.929c1.079,2.029,2.59,3.606,4.533,4.727
				c1.943,1.123,4.122,1.683,6.54,1.683c2.202,0,4.218-0.388,6.054-1.165c1.834-0.776,3.377-1.899,4.629-3.367l2.462,2.59
				c-1.512,1.813-3.411,3.216-5.698,4.209c-2.289,0.993-4.835,1.49-7.641,1.49c-3.238,0-6.13-0.723-8.677-2.17
				c-2.548-1.445-4.544-3.474-5.99-6.087C0.723,243.916,0,240.97,0,237.689c0-3.28,0.723-6.226,2.169-8.838s3.442-4.641,5.99-6.087
				c2.547-1.446,5.439-2.17,8.677-2.17c2.632,0,5.039,0.432,7.219,1.295c2.179,0.864,4.047,2.073,5.601,3.627l-2.46,2.914
				C24.433,225.754,21.045,224.415,17.031,224.415z"/>
		</g>
		<g>
			<path fill="#23E5E0" d="M60.61,222.764c2.59,1.446,4.62,3.464,6.087,6.054s2.202,5.526,2.202,8.806
				c0,3.325-0.734,6.292-2.202,8.903c-1.467,2.613-3.497,4.642-6.087,6.087c-2.589,1.447-5.526,2.17-8.806,2.17
				c-3.281,0-6.216-0.723-8.806-2.17c-2.59-1.445-4.62-3.474-6.087-6.087c-1.468-2.611-2.202-5.579-2.202-8.903
				c0-3.28,0.733-6.216,2.202-8.806c1.467-2.59,3.497-4.608,6.087-6.054c2.59-1.446,5.525-2.17,8.806-2.17
				C55.084,220.594,58.021,221.318,60.61,222.764z M45.199,226.033c-1.943,1.123-3.455,2.698-4.533,4.727
				c-1.08,2.029-1.618,4.339-1.618,6.928c0,2.634,0.539,4.965,1.618,6.993c1.079,2.031,2.59,3.606,4.533,4.727
				c1.943,1.123,4.144,1.684,6.605,1.684s4.662-0.561,6.605-1.684c1.943-1.122,3.453-2.697,4.533-4.727
				c1.079-2.028,1.618-4.36,1.618-6.993c0-2.589-0.54-4.898-1.618-6.928c-1.08-2.029-2.59-3.604-4.533-4.727
				c-1.943-1.122-4.144-1.684-6.605-1.684S47.142,224.912,45.199,226.033z"/>
		</g>
		<g>
			<path fill="#23E5E0" d="M82.432,208.777c0.56,0.582,0.842,1.306,0.842,2.169c0,0.864-0.292,1.597-0.875,2.202
				c-0.582,0.605-1.285,0.906-2.104,0.906c-0.864,0-1.587-0.301-2.169-0.906c-0.583-0.604-0.875-1.337-0.875-2.202
				c0-0.863,0.292-1.587,0.875-2.169c0.582-0.583,1.305-0.875,2.169-0.875C81.158,207.902,81.87,208.194,82.432,208.777z
				 M78.093,220.724h4.339v33.931h-4.339V220.724z"/>
		</g>
		<g>
			<path fill="#23E5E0" d="M122.352,224.123c2.309,2.354,3.465,5.58,3.465,9.681v20.85h-4.404V234.84
				c0-3.193-0.885-5.698-2.655-7.511c-1.771-1.813-4.231-2.719-7.381-2.719c-3.497,0.043-6.293,1.123-8.386,3.237
				c-2.095,2.116-3.293,4.965-3.594,8.549v18.26h-4.339v-33.931h4.339v7.9c1.165-2.632,2.882-4.619,5.148-5.957
				c2.266-1.337,5.018-2.029,8.256-2.073C116.858,220.594,120.042,221.771,122.352,224.123z"/>
		</g>
		<g>
			<path fill="#23E5E0" d="M144.464,250.835c1.166,0,2.374-0.497,3.627-1.49l0.971,3.367c-1.986,1.425-3.842,2.137-5.568,2.137
				c-2.029,0-3.649-0.68-4.856-2.04c-1.21-1.36-1.814-3.292-1.814-5.795v-40.407h4.339v39.954
				C141.162,249.41,142.263,250.835,144.464,250.835z"/>
		</g>
		<g>
			<path fill="#23E5E0" d="M186.62,220.724v33.931h-4.339v-7.641c-1.295,2.504-3.108,4.446-5.439,5.828
				c-2.33,1.382-5.03,2.072-8.094,2.072c-3.195,0-6.044-0.733-8.547-2.202c-2.504-1.467-4.446-3.518-5.828-6.151
				c-1.382-2.632-2.072-5.612-2.072-8.936c0-3.323,0.69-6.281,2.072-8.871c1.382-2.59,3.313-4.62,5.795-6.087
				s5.299-2.202,8.451-2.202c3.108,0,5.838,0.691,8.191,2.072c2.351,1.382,4.176,3.325,5.471,5.828v-7.641H186.62z M178.267,247.823
				c2.33-2.223,3.669-5.126,4.014-8.709v-2.719c-0.345-3.583-1.684-6.509-4.014-8.775c-2.332-2.266-5.245-3.4-8.742-3.4
				c-2.46,0-4.663,0.583-6.605,1.748c-1.943,1.165-3.476,2.774-4.598,4.824c-1.123,2.052-1.684,4.371-1.684,6.962
				c0,2.59,0.55,4.9,1.651,6.928c1.101,2.031,2.633,3.616,4.598,4.76c1.964,1.144,4.177,1.716,6.637,1.716
				C173.021,251.158,175.935,250.047,178.267,247.823z"/>
		</g>
		<g>
			<path fill="#23E5E0" d="M225.957,222.764c2.483,1.446,4.414,3.476,5.795,6.087c1.382,2.611,2.073,5.58,2.073,8.903
				c0,3.281-0.691,6.216-2.073,8.806c-1.382,2.59-3.302,4.609-5.763,6.054c-2.46,1.447-5.267,2.17-8.419,2.17
				c-3.108,0-5.827-0.701-8.159-2.106c-2.33-1.402-4.144-3.355-5.439-5.86v7.835h-4.339v-48.048h4.339v21.952
				c1.252-2.504,3.054-4.457,5.408-5.861c2.351-1.402,5.06-2.104,8.126-2.104C220.658,220.594,223.475,221.318,225.957,222.764z
				 M223.271,249.313c1.942-1.143,3.452-2.73,4.532-4.759c1.079-2.028,1.62-4.339,1.62-6.929c0-2.547-0.541-4.834-1.62-6.863
				c-1.08-2.029-2.59-3.615-4.532-4.759c-1.943-1.144-4.123-1.717-6.54-1.717c-2.462,0-4.653,0.573-6.573,1.717
				c-1.922,1.144-3.432,2.73-4.533,4.759c-1.101,2.029-1.651,4.316-1.651,6.863c0,2.59,0.54,4.901,1.62,6.929
				c1.079,2.029,2.59,3.616,4.532,4.759c1.943,1.144,4.144,1.716,6.606,1.716C219.148,251.028,221.328,250.457,223.271,249.313z"/>
		</g>
	</g>
	<g>
		<g>
			<path fill="#23E5E0" d="M91.427,74.886c-2.761,0-5.001,0.934-6.721,2.803c-1.72,1.87-2.581,4.291-2.581,7.264
				c0,3.058,0.861,5.523,2.581,7.39c1.72,1.87,3.96,2.803,6.721,2.803c4.078,0,7.137-1.338,9.175-4.013l5.161,4.269
				c-1.529,2.209-3.546,3.908-6.053,5.096c-2.507,1.19-5.415,1.784-8.729,1.784c-3.355,0-6.339-0.721-8.951-2.166
				c-2.612-1.443-4.641-3.472-6.084-6.084c-1.445-2.612-2.167-5.617-2.167-9.016c0-3.44,0.733-6.477,2.198-9.11
				c1.466-2.633,3.504-4.672,6.117-6.116c2.612-1.444,5.616-2.167,9.015-2.167c3.099,0,5.872,0.542,8.314,1.626
				c2.443,1.083,4.428,2.622,5.957,4.618l-5.033,4.779C98.053,76.14,95.08,74.886,91.427,74.886z"/>
		</g>
		<g>
			<path fill="#23E5E0" d="M120.29,54.626c0.892,0.934,1.338,2.125,1.338,3.568c0,1.401-0.446,2.569-1.338,3.504
				c-0.893,0.934-2.019,1.401-3.377,1.401c-1.36,0-2.485-0.467-3.377-1.401c-0.892-0.934-1.338-2.103-1.338-3.504
				c0-1.444,0.446-2.634,1.338-3.568c0.892-0.933,2.018-1.401,3.377-1.401C118.271,53.225,119.397,53.693,120.29,54.626z
				 M112.835,67.879h8.282v34.086h-8.282V67.879z"/>
		</g>
		<g>
			<path fill="#23E5E0" d="M146.441,74.823c-1.763-0.552-3.387-0.828-4.874-0.828c-1.401,0-2.516,0.245-3.345,0.733
				c-0.828,0.489-1.242,1.242-1.242,2.262c0,1.062,0.52,1.879,1.561,2.453c1.04,0.574,2.686,1.179,4.937,1.816
				c2.378,0.722,4.332,1.433,5.861,2.134c1.53,0.701,2.856,1.742,3.982,3.122c1.126,1.38,1.689,3.196,1.689,5.448
				c0,3.313-1.274,5.861-3.823,7.645s-5.756,2.675-9.621,2.675c-2.634,0-5.203-0.414-7.708-1.242
				c-2.507-0.828-4.631-2.007-6.372-3.536l2.867-5.798c1.529,1.317,3.355,2.348,5.48,3.09c2.124,0.744,4.141,1.115,6.053,1.115
				c1.529,0,2.749-0.265,3.663-0.796c0.914-0.531,1.37-1.327,1.37-2.39c0-1.189-0.531-2.081-1.592-2.675
				c-1.062-0.595-2.783-1.252-5.161-1.976c-2.294-0.679-4.163-1.347-5.607-2.006c-1.445-0.658-2.698-1.657-3.76-2.995
				c-1.062-1.338-1.592-3.09-1.592-5.256c0-3.355,1.22-5.914,3.663-7.677c2.443-1.763,5.512-2.644,9.207-2.644
				c2.25,0,4.469,0.318,6.657,0.955c2.187,0.637,4.131,1.529,5.83,2.677l-2.995,5.989C149.914,76.14,148.204,75.375,146.441,74.823z
				"/>
		</g>
	</g>
	<g>
		<line fill="#E5E5E5" x1="0" y1="187.873" x2="233.825" y2="187.873"/>
		<rect x="0" y="186.561" fill="#E5E5E5" width="233.825" height="2.624"/>
	</g>
	<path fill="#E5E5E5" d="M159.476,126.065c24.857-24.858,24.857-65.304,0-90.161c-12.041-12.042-28.051-18.673-45.081-18.673
		s-33.039,6.632-45.081,18.673c-24.858,24.858-24.858,65.304,0,90.161c12.041,12.041,28.051,18.673,45.081,18.673
		C131.424,144.738,147.434,138.106,159.476,126.065z M71.509,38.099c11.455-11.455,26.685-17.764,42.885-17.764
		s31.431,6.309,42.885,17.764c11.455,11.455,17.764,26.685,17.764,42.885s-6.309,31.431-17.764,42.885
		c-11.455,11.455-26.685,17.764-42.885,17.764s-31.431-6.309-42.885-17.764C47.862,100.222,47.862,61.746,71.509,38.099z"/>
	<path fill="#E5E5E5" d="M165.224,17.934c-0.993-0.801-2.445-0.645-3.245,0.346c-0.8,0.992-0.645,2.445,0.346,3.245
		c18.074,14.588,28.439,36.26,28.439,59.458c0,20.399-7.944,39.577-22.368,54.001c-14.425,14.424-33.602,22.368-54.001,22.368
		c-12.789,0-25.441-3.222-36.588-9.318c-1.118-0.612-2.521-0.201-3.132,0.917c-0.611,1.118-0.201,2.521,0.917,3.132
		c11.825,6.466,25.242,9.884,38.803,9.884c21.632,0,41.968-8.424,57.264-23.72s23.72-35.633,23.72-57.264
		C195.379,56.384,184.388,33.403,165.224,17.934z"/>
	<path fill="#E5E5E5" d="M65.978,140.046c-17.763-14.58-27.951-36.107-27.951-59.062c0-20.399,7.944-39.577,22.368-54.001
		C74.819,12.559,93.996,4.615,114.395,4.615c12.585,0,25.058,3.125,36.071,9.038c1.123,0.604,2.522,0.182,3.125-0.941
		c0.603-1.123,0.182-2.522-0.941-3.125C140.968,3.315,127.739,0,114.395,0C92.764,0,72.427,8.424,57.131,23.72
		s-23.72,35.633-23.72,57.264c0,24.342,10.803,47.169,29.638,62.629c0.429,0.352,0.947,0.524,1.463,0.524
		c0.667,0,1.329-0.288,1.785-0.844C67.106,142.308,66.963,140.854,65.978,140.046z"/>
	<path fill="#E5E5E5" d="M112.087,9.136v3.704c0,1.275,1.033,2.308,2.308,2.308c1.275,0,2.308-1.033,2.308-2.308V9.136
		c0-1.275-1.033-2.308-2.308-2.308S112.087,7.861,112.087,9.136z"/>
	<path fill="#E5E5E5" d="M112.087,149.128v3.704c0,1.275,1.033,2.308,2.308,2.308c1.275,0,2.308-1.033,2.308-2.308v-3.704
		c0-1.275-1.033-2.308-2.308-2.308S112.087,147.853,112.087,149.128z"/>
	<path fill="#E5E5E5" d="M186.243,83.292c1.275,0,2.308-1.033,2.308-2.308c0-1.275-1.033-2.308-2.308-2.308h-3.704
		c-1.275,0-2.308,1.033-2.308,2.308c0,1.275,1.033,2.308,2.308,2.308H186.243z"/>
	<path fill="#E5E5E5" d="M48.559,80.984c0-1.275-1.033-2.308-2.308-2.308h-3.704c-1.275,0-2.308,1.033-2.308,2.308
		c0,1.275,1.033,2.308,2.308,2.308h3.704C47.526,83.292,48.559,82.259,48.559,80.984z"/>
	<path fill="#E5E5E5" d="M162.58,35.107c0.591,0,1.181-0.225,1.632-0.676l2.619-2.619c0.901-0.902,0.901-2.362,0-3.264
		c-0.902-0.901-2.362-0.901-3.264,0l-2.619,2.619c-0.901,0.902-0.901,2.362,0,3.264C161.399,34.881,161.99,35.107,162.58,35.107z"/>
	<path fill="#E5E5E5" d="M64.578,127.537l-2.619,2.619c-0.901,0.902-0.901,2.362,0,3.264c0.45,0.45,1.041,0.676,1.632,0.676
		c0.591,0,1.181-0.225,1.632-0.676l2.619-2.619c0.901-0.902,0.901-2.362,0-3.264C66.941,126.636,65.479,126.636,64.578,127.537z"/>
	<path fill="#E5E5E5" d="M160.948,127.537c-0.901,0.902-0.901,2.362,0,3.264l2.619,2.619c0.451,0.45,1.041,0.676,1.632,0.676
		c0.591,0,1.181-0.225,1.632-0.676c0.901-0.902,0.901-2.362,0-3.264l-2.619-2.619C163.311,126.636,161.85,126.636,160.948,127.537z"
		/>
	<path fill="#E5E5E5" d="M61.959,28.548c-0.901,0.902-0.901,2.362,0,3.264l2.619,2.619c0.45,0.45,1.041,0.676,1.632,0.676
		c0.591,0,1.181-0.225,1.632-0.676c0.901-0.902,0.901-2.362,0-3.264l-2.619-2.619C64.321,27.647,62.86,27.647,61.959,28.548z"/>
	<path fill="#E5E5E5" d="M141.147,14.262l-1.488,3.392c-0.512,1.167,0.019,2.528,1.186,3.041c0.302,0.132,0.616,0.195,0.926,0.195
		c0.888,0,1.735-0.516,2.114-1.381l1.488-3.392c0.512-1.167-0.019-2.528-1.186-3.041C143.021,12.565,141.659,13.095,141.147,14.262z
		"/>
	<path fill="#E5E5E5" d="M84.905,142.46l-1.488,3.392c-0.512,1.167,0.019,2.528,1.186,3.04c0.302,0.132,0.616,0.195,0.926,0.195
		c0.888,0,1.735-0.516,2.114-1.381l1.488-3.392c0.512-1.167-0.019-2.528-1.186-3.04C86.779,140.762,85.417,141.293,84.905,142.46z"
		/>
	<path fill="#E5E5E5" d="M177.725,106.247c-1.167-0.512-2.528,0.019-3.041,1.186c-0.512,1.167,0.019,2.528,1.186,3.041l3.392,1.488
		c0.302,0.132,0.616,0.195,0.926,0.195c0.888,0,1.735-0.516,2.114-1.381c0.512-1.167-0.019-2.528-1.186-3.041L177.725,106.247z"/>
	<path fill="#E5E5E5" d="M51.991,55.916c0.888,0,1.735-0.516,2.114-1.381c0.512-1.167-0.019-2.528-1.186-3.041l-3.392-1.488
		c-1.167-0.511-2.529,0.019-3.041,1.186s0.019,2.528,1.186,3.041l3.392,1.488C51.367,55.853,51.681,55.916,51.991,55.916z"/>
	<path fill="#E5E5E5" d="M180.491,52.72l-3.451,1.346c-1.188,0.463-1.774,1.802-1.311,2.989c0.356,0.912,1.227,1.47,2.15,1.47
		c0.279,0,0.562-0.051,0.838-0.158l3.451-1.346c1.188-0.463,1.774-1.802,1.311-2.989C183.016,52.845,181.679,52.258,180.491,52.72z"
		/>
	<path fill="#E5E5E5" d="M47.461,109.406c0.279,0,0.563-0.051,0.838-0.158l3.451-1.346c1.187-0.463,1.775-1.802,1.311-2.988
		c-0.463-1.187-1.801-1.773-2.988-1.311l-3.451,1.346c-1.187,0.463-1.775,1.802-1.311,2.989
		C45.667,108.848,46.538,109.406,47.461,109.406z"/>
	<path fill="#E5E5E5" d="M138.324,142.318c-1.188,0.463-1.774,1.802-1.311,2.989l1.346,3.451c0.356,0.912,1.227,1.47,2.151,1.47
		c0.279,0,0.562-0.051,0.838-0.158c1.188-0.463,1.774-1.802,1.311-2.989l-1.346-3.451
		C140.849,142.441,139.512,141.855,138.324,142.318z"/>
	<path fill="#E5E5E5" d="M87.442,11.9c-1.187,0.463-1.774,1.802-1.311,2.989l1.346,3.451c0.356,0.912,1.227,1.47,2.151,1.47
		c0.279,0,0.563-0.051,0.838-0.158c1.187-0.463,1.774-1.802,1.311-2.988l-1.346-3.451C89.968,12.024,88.63,11.438,87.442,11.9z"/>
</g>
</svg>
