<?xml version="1.0" encoding="utf-8"?>
<!-- Generator: Adobe Illustrator 19.0.0, SVG Export Plug-In . SVG Version: 6.00 Build 0)  -->
<svg version="1.1" id="Слой_1" xmlns="http://www.w3.org/2000/svg" xmlns:xlink="http://www.w3.org/1999/xlink" x="0px" y="0px"
	 viewBox="0 0 46.4 30.4" style="enable-background:new 0 0 46.4 30.4;" xml:space="preserve">
<g>
	<path fill="#0da5ce" d="M46.4,3.9c0-1-0.4-1.9-1-2.6c0,0,0,0,0,0c0,0,0,0,0,0C44.6,0.5,43.6,0,42.5,0H3.9C2.8,0,1.8,0.5,1.1,1.2
		c0,0,0,0,0,0c0,0,0,0,0,0C0.4,2,0,2.9,0,3.9v22.7c0,1,0.4,1.9,1.1,2.6c0,0,0,0,0,0c0,0,0,0,0,0c0.7,0.7,1.7,1.2,2.8,1.2h38.6
		c1.1,0,2.1-0.5,2.8-1.2c0,0,0,0,0,0c0,0,0,0,0,0c0.7-0.7,1.1-1.6,1.1-2.6V3.9z M31.2,14L44.6,2.9c0.1,0.3,0.2,0.6,0.2,0.9v22.7
		c0,0.3-0.1,0.6-0.2,0.9L31.2,14z M42.5,1.6c0.3,0,0.7,0.1,0.9,0.2L23.2,18.6L3,1.8c0.3-0.1,0.6-0.2,0.9-0.2H42.5z M1.8,27.4
		c-0.1-0.3-0.2-0.6-0.2-0.9V3.9c0-0.3,0.1-0.6,0.2-0.9L15.2,14L1.8,27.4z M3.9,28.8c-0.4,0-0.7-0.1-1-0.3L16.4,15l6.3,5.2
		c0.1,0.1,0.3,0.2,0.5,0.2c0.2,0,0.4-0.1,0.5-0.2L30,15l13.5,13.5c-0.3,0.2-0.7,0.3-1,0.3H3.9z M3.9,28.8"/>
</g>
</svg>
