<?xml version="1.0" encoding="utf-8"?>
<!-- Generator: Adobe Illustrator 19.0.0, SVG Export Plug-In . SVG Version: 6.00 Build 0)  -->
<svg version="1.1" id="Слой_1" xmlns="http://www.w3.org/2000/svg" xmlns:xlink="http://www.w3.org/1999/xlink" x="0px" y="0px"
	 viewBox="0 0 567.1 567.3" style="enable-background:new 0 0 567.1 567.3;" xml:space="preserve">
<style type="text/css">
	.st0{opacity:0.4;}
	.st1{fill:#23E5E0;}
</style>
<g id="XMLID_26_">
	<g id="XMLID_27_" class="st0">
		<g id="XMLID_698_">
			<g id="XMLID_699_">
				<path id="XMLID_700_" class="st1" d="M66.1,113.6c4.1,3.1,5.2,6.3,3.2,8.9c-1.8,2.3-5.1,2.3-9.1-0.7c-4-3-4.9-6.4-3.1-8.8
					C59,110.5,62.3,110.7,66.1,113.6z M61.4,120.2c3.1,2.3,5.6,2.7,6.7,1.2c1.2-1.7-0.1-3.9-3.1-6.2c-2.9-2.2-5.4-2.9-6.7-1.2
					C57.2,115.4,58.1,117.8,61.4,120.2z"/>
			</g>
		</g>
		<g id="XMLID_21_">
			<g id="XMLID_22_">
				<path id="XMLID_23_" class="st1" d="M58.4,122.9c4.2,2.9,5.4,6.1,3.5,8.8c-1.7,2.4-5,2.5-9.1-0.3c-4.1-2.9-5.1-6.2-3.4-8.7
					C51.1,120.1,54.5,120.2,58.4,122.9z M53.9,129.7c3.2,2.2,5.7,2.5,6.7,1c1.2-1.7-0.2-3.9-3.4-6.1c-3-2.1-5.5-2.7-6.7-1
					C49.5,125.1,50.6,127.4,53.9,129.7z"/>
			</g>
		</g>
		<g id="XMLID_688_">
			<g id="XMLID_689_">
				<path id="XMLID_690_" class="st1" d="M73.6,104.3c3.9,3.2,4.9,6.5,2.8,9c-1.9,2.3-5.2,2-9.1-1.1c-3.9-3.2-4.6-6.6-2.7-9
					C66.7,100.9,70,101.3,73.6,104.3z M68.7,110.7c3,2.5,5.5,3,6.6,1.5c1.3-1.6,0.1-3.9-2.9-6.3c-2.8-2.3-5.3-3.1-6.6-1.5
					C64.7,105.8,65.5,108.2,68.7,110.7z"/>
			</g>
		</g>
		<g id="XMLID_684_">
			<g id="XMLID_685_">
				<path id="XMLID_686_" class="st1" d="M73.9,95.9L73.9,95.9l-0.7,2.9l-1.4-0.7l0.9-3.6l1.2-1.3l11.1,10l-1.3,1.5L73.9,95.9z"/>
			</g>
		</g>
		<g id="XMLID_680_">
			<g id="XMLID_681_">
				<path id="XMLID_682_" class="st1" d="M82.2,87L82.2,87l-0.8,2.9L80,89.1l1-3.6l1.2-1.2l10.7,10.5l-1.4,1.4L82.2,87z"/>
			</g>
		</g>
		<g id="XMLID_675_">
			<g id="XMLID_676_">
				<path id="XMLID_677_" class="st1" d="M98.7,78.6c3.5,3.7,4,7,1.6,9.3c-2.1,2-5.4,1.4-8.9-2.2c-3.4-3.7-3.7-7.2-1.5-9.2
					C92.2,74.3,95.4,75.2,98.7,78.6z M92.9,84.3c2.7,2.8,5,3.6,6.4,2.4c1.5-1.4,0.6-3.9-2-6.6c-2.5-2.7-4.9-3.8-6.4-2.4
					C89.6,78.9,90.1,81.4,92.9,84.3z"/>
			</g>
		</g>
		<g id="XMLID_670_">
			<g id="XMLID_671_">
				<path id="XMLID_672_" class="st1" d="M107.7,70.8c3.3,3.9,3.7,7.2,1.2,9.4c-2.2,1.9-5.5,1.1-8.8-2.6c-3.3-3.8-3.4-7.3-1.1-9.3
					C101.4,66.2,104.6,67.2,107.7,70.8z M101.7,76.2c2.5,3,4.9,3.8,6.3,2.6c1.6-1.3,0.7-3.8-1.7-6.7c-2.4-2.8-4.7-4-6.3-2.6
					C98.6,70.7,99.1,73.2,101.7,76.2z"/>
			</g>
		</g>
		<g id="XMLID_665_">
			<g id="XMLID_666_">
				<path id="XMLID_667_" class="st1" d="M117.1,63.4c3.1,4,3.4,7.4,0.8,9.4c-2.3,1.8-5.5,0.9-8.6-3c-3.1-3.9-3.1-7.4-0.7-9.3
					C111,58.5,114.2,59.6,117.1,63.4z M110.9,68.6c2.4,3.1,4.7,4.1,6.2,2.9c1.6-1.3,0.9-3.8-1.4-6.8c-2.3-2.9-4.5-4.2-6.2-2.9
					C108,62.9,108.4,65.4,110.9,68.6z"/>
			</g>
		</g>
		<g id="XMLID_660_">
			<g id="XMLID_661_">
				<path id="XMLID_662_" class="st1" d="M126.8,56.3c3,4.1,3.1,7.5,0.4,9.4c-2.4,1.7-5.6,0.6-8.5-3.4c-2.9-4.1-2.8-7.6-0.3-9.3
					C120.9,51.2,124,52.5,126.8,56.3z M120.3,61.3c2.3,3.2,4.5,4.3,6,3.2c1.7-1.2,1.1-3.7-1.2-6.8c-2.1-3-4.3-4.4-6-3.2
					C117.7,55.5,118,58,120.3,61.3z"/>
			</g>
		</g>
		<g id="XMLID_656_">
			<g id="XMLID_657_">
				<path id="XMLID_658_" class="st1" d="M129.2,48.3L129.2,48.3l-1.4,2.6l-1.2-1.1l1.8-3.3l1.4-0.9l8.2,12.5l-1.6,1.1L129.2,48.3z"
					/>
			</g>
		</g>
		<g id="XMLID_652_">
			<g id="XMLID_653_">
				<path id="XMLID_654_" class="st1" d="M139.5,41.8L139.5,41.8l-1.6,2.6l-1.1-1.1l1.9-3.2l1.5-0.9l7.6,12.8l-1.7,1L139.5,41.8z"/>
			</g>
		</g>
		<g id="XMLID_648_">
			<g id="XMLID_649_">
				<path id="XMLID_650_" class="st1" d="M150.1,35.7L150.1,35.7l-1.7,2.5l-1.1-1.2l2-3.1l1.5-0.8l7.1,13.2l-1.7,0.9L150.1,35.7z"/>
			</g>
		</g>
		<g id="XMLID_643_">
			<g id="XMLID_644_">
				<path id="XMLID_645_" class="st1" d="M168.3,32.7c2.2,4.6,1.7,7.9-1.3,9.4c-2.6,1.3-5.6-0.3-7.8-4.8c-2.2-4.5-1.4-7.9,1.3-9.3
					C163.4,26.6,166.3,28.4,168.3,32.7z M161.1,36.4c1.7,3.5,3.7,5,5.4,4.2c1.9-0.9,1.7-3.5,0-6.9c-1.6-3.3-3.5-5.1-5.4-4.2
					C159.6,30.2,159.3,32.7,161.1,36.4z"/>
			</g>
		</g>
		<g id="XMLID_638_">
			<g id="XMLID_639_">
				<path id="XMLID_640_" class="st1" d="M179.3,27.9c2,4.7,1.4,8-1.7,9.3c-2.7,1.2-5.6-0.6-7.6-5.1c-2-4.6-1.1-8,1.7-9.2
					C174.7,21.7,177.4,23.5,179.3,27.9z M171.9,31.3c1.5,3.6,3.5,5.1,5.2,4.4c1.9-0.8,1.9-3.4,0.3-6.9c-1.5-3.4-3.3-5.2-5.2-4.4
					C170.6,25.1,170.3,27.6,171.9,31.3z"/>
			</g>
		</g>
		<g id="XMLID_633_">
			<g id="XMLID_634_">
				<path id="XMLID_635_" class="st1" d="M190.5,23.6c1.8,4.8,1,8-2.1,9.2c-2.7,1-5.6-0.8-7.3-5.4c-1.8-4.7-0.7-8,2.1-9.1
					C186.1,17.2,188.8,19.2,190.5,23.6z M183,26.7c1.4,3.6,3.3,5.3,5,4.6c1.9-0.7,2-3.3,0.6-6.9c-1.3-3.4-3-5.4-5-4.6
					C182,20.4,181.5,22.9,183,26.7z"/>
			</g>
		</g>
		<g id="XMLID_628_">
			<g id="XMLID_629_">
				<path id="XMLID_630_" class="st1" d="M201.8,19.8c1.6,4.8,0.7,8.1-2.5,9.1c-2.8,0.9-5.5-1.1-7.1-5.7c-1.6-4.8-0.4-8.1,2.5-9
					C197.7,13.2,200.3,15.3,201.8,19.8z M194.2,22.6c1.2,3.7,3,5.4,4.8,4.8c2-0.6,2.1-3.3,0.9-6.9c-1.2-3.5-2.8-5.5-4.8-4.8
					C193.5,16.3,192.9,18.7,194.2,22.6z"/>
			</g>
		</g>
		<g id="XMLID_624_">
			<g id="XMLID_625_">
				<path id="XMLID_626_" class="st1" d="M206.5,12.8L206.5,12.8l-2.2,2.1l-0.8-1.4l2.7-2.6l1.7-0.5l4.1,14.4l-1.9,0.5L206.5,12.8z"
					/>
			</g>
		</g>
		<g id="XMLID_620_">
			<g id="XMLID_621_">
				<path id="XMLID_622_" class="st1" d="M218.3,9.7L218.3,9.7l-2.3,2l-0.7-1.4l2.8-2.5l1.7-0.4l3.4,14.5l-1.9,0.4L218.3,9.7z"/>
			</g>
		</g>
		<g id="XMLID_615_">
			<g id="XMLID_616_">
				<path id="XMLID_617_" class="st1" d="M236.7,11.5c1,5-0.4,8.1-3.6,8.7c-2.9,0.5-5.3-1.8-6.3-6.6c-0.9-4.9,0.7-8,3.7-8.6
					C233.5,4.4,235.8,6.8,236.7,11.5z M228.8,13.2c0.7,3.8,2.3,5.8,4.1,5.4c2-0.4,2.6-2.9,1.8-6.7c-0.7-3.6-2.1-5.8-4.1-5.4
					C228.9,6.8,228,9.2,228.8,13.2z"/>
			</g>
		</g>
		<g id="XMLID_611_">
			<g id="XMLID_612_">
				<path id="XMLID_613_" class="st1" d="M242.3,5.1L242.3,5.1l-2.4,1.8l-0.6-1.5l3-2.2l1.7-0.2l2.2,14.8l-1.9,0.3L242.3,5.1z"/>
			</g>
		</g>
		<g id="XMLID_606_">
			<g id="XMLID_607_">
				<path id="XMLID_608_" class="st1" d="M260.5,8.4c0.5,5.1-1.1,8-4.4,8.4c-2.9,0.3-5.2-2.2-5.7-7.1c-0.5-5,1.4-8,4.4-8.3
					C257.9,1.1,260,3.7,260.5,8.4z M252.4,9.5c0.4,3.9,1.8,5.9,3.6,5.8c2.1-0.2,2.8-2.7,2.4-6.5c-0.4-3.7-1.6-6-3.6-5.8
					C253,3.2,252,5.4,252.4,9.5z"/>
			</g>
		</g>
		<g id="XMLID_602_">
			<g id="XMLID_603_">
				<path id="XMLID_604_" class="st1" d="M266.5,2.6L266.5,2.6L264,4.2l-0.5-1.5l3.2-1.9l1.7-0.1l0.9,14.9l-2,0.1L266.5,2.6z"/>
			</g>
		</g>
		<g id="XMLID_597_">
			<g id="XMLID_598_">
				<path id="XMLID_599_" class="st1" d="M284.3,7.5c0.1,5.1-1.8,7.9-5.1,8c-2.9,0-4.9-2.7-5.1-7.6c-0.1-5,2-7.8,5.1-7.9
					C282.4,0,284.3,2.7,284.3,7.5z M276.2,7.8c0.1,3.9,1.3,6.1,3.1,6c2.1,0,3-2.5,3-6.3c-0.1-3.7-1-6.1-3.1-6
					C277.4,1.6,276.2,3.8,276.2,7.8z"/>
			</g>
		</g>
		<g id="XMLID_593_">
			<g id="XMLID_594_">
				<path id="XMLID_595_" class="st1" d="M290.9,2.2L290.9,2.2l-2.7,1.3L287.9,2l3.3-1.7l1.7,0l-0.4,14.9l-2-0.1L290.9,2.2z"/>
			</g>
		</g>
		<g id="XMLID_588_">
			<g id="XMLID_589_">
				<path id="XMLID_590_" class="st1" d="M308.3,8.6c-0.4,5.1-2.4,7.7-5.7,7.5c-2.9-0.2-4.7-3.1-4.4-8c0.3-5,2.7-7.6,5.7-7.4
					C307,0.9,308.6,3.8,308.3,8.6z M300.1,8.2c-0.3,3.9,0.8,6.2,2.6,6.3c2.1,0.1,3.2-2.2,3.5-6c0.3-3.7-0.5-6.1-2.6-6.3
					C301.9,2.1,300.4,4.2,300.1,8.2z"/>
			</g>
		</g>
		<g id="XMLID_583_">
			<g id="XMLID_584_">
				<path id="XMLID_585_" class="st1" d="M320.2,9.9c-0.6,5.1-2.8,7.6-6.1,7.3c-2.9-0.3-4.6-3.3-4-8.2c0.6-5,3-7.5,6-7.1
					C319.2,2.1,320.7,5.1,320.2,9.9z M312.1,9.2c-0.4,3.9,0.5,6.2,2.3,6.4c2.1,0.2,3.3-2.1,3.7-5.8c0.4-3.7-0.2-6.2-2.3-6.4
					C314,3.1,312.5,5.1,312.1,9.2z"/>
			</g>
		</g>
		<g id="XMLID_578_">
			<g id="XMLID_579_">
				<path id="XMLID_580_" class="st1" d="M332,11.7c-0.8,5-3.1,7.5-6.4,7c-2.9-0.5-4.4-3.5-3.7-8.4c0.8-5,3.3-7.3,6.3-6.9
					C331.4,3.9,332.7,7,332,11.7z M323.9,10.7c-0.6,3.8,0.2,6.2,2.1,6.5c2,0.3,3.4-1.9,4-5.7c0.6-3.6,0-6.2-2.1-6.5
					C326.1,4.7,324.5,6.6,323.9,10.7z"/>
			</g>
		</g>
		<g id="XMLID_573_">
			<g id="XMLID_574_">
				<path id="XMLID_575_" class="st1" d="M343.7,14c-1,5-3.4,7.4-6.7,6.7c-2.9-0.6-4.3-3.7-3.3-8.5c1-4.9,3.7-7.2,6.6-6.6
					C343.5,6.3,344.7,9.4,343.7,14z M335.7,12.6c-0.8,3.8,0,6.2,1.8,6.6c2,0.4,3.5-1.8,4.2-5.5c0.7-3.6,0.3-6.2-1.8-6.6
					C338.2,6.8,336.5,8.7,335.7,12.6z"/>
			</g>
		</g>
		<g id="XMLID_569_">
			<g id="XMLID_570_">
				<path id="XMLID_571_" class="st1" d="M351.3,10.3L351.3,10.3l-2.9,0.7l0-1.6l3.6-0.9l1.7,0.4L350,23.4l-1.9-0.5L351.3,10.3z"/>
			</g>
		</g>
		<g id="XMLID_565_">
			<g id="XMLID_566_">
				<path id="XMLID_567_" class="st1" d="M363,13.4L363,13.4l-2.9,0.6l0.1-1.6l3.6-0.8l1.7,0.5l-4.2,14.3l-1.9-0.6L363,13.4z"/>
			</g>
		</g>
		<g id="XMLID_561_">
			<g id="XMLID_562_">
				<path id="XMLID_563_" class="st1" d="M374.7,17.1L374.7,17.1l-3,0.5l0.1-1.6l3.7-0.6l1.6,0.6l-4.9,14.1l-1.8-0.6L374.7,17.1z"/>
			</g>
		</g>
		<g id="XMLID_556_">
			<g id="XMLID_557_">
				<path id="XMLID_558_" class="st1" d="M389.3,28.4c-1.9,4.7-4.6,6.7-7.7,5.4c-2.7-1.1-3.6-4.3-1.8-9c1.8-4.7,4.9-6.4,7.7-5.3
					C390.4,20.7,391,24,389.3,28.4z M381.7,25.7c-1.4,3.6-1.1,6.1,0.6,6.8c1.9,0.8,3.7-1.1,5.1-4.7c1.3-3.4,1.4-6-0.6-6.8
					C385.1,20.3,383.2,21.9,381.7,25.7z"/>
			</g>
		</g>
		<g id="XMLID_551_">
			<g id="XMLID_552_">
				<path id="XMLID_553_" class="st1" d="M400.3,33.2c-2.1,4.6-4.9,6.4-8,5.1c-2.7-1.2-3.4-4.5-1.4-9c2-4.6,5.1-6.2,7.9-5
					C401.7,25.6,402.2,28.9,400.3,33.2z M392.7,30.1c-1.6,3.6-1.4,6.1,0.3,6.8c1.9,0.8,3.8-1,5.3-4.5c1.5-3.4,1.6-6-0.3-6.8
					C396.5,25,394.4,26.4,392.7,30.1z"/>
			</g>
		</g>
		<g id="XMLID_546_">
			<g id="XMLID_547_">
				<path id="XMLID_548_" class="st1" d="M411,38.5c-2.3,4.6-5.2,6.2-8.2,4.8c-2.6-1.3-3.2-4.6-1-9.1c2.2-4.5,5.4-6,8.1-4.6
					C412.8,30.9,413.1,34.3,411,38.5z M403.6,35.1c-1.7,3.5-1.6,6,0,6.8c1.9,0.9,3.8-0.8,5.5-4.2c1.6-3.3,1.9-5.9,0-6.8
					C407.6,30.1,405.4,31.5,403.6,35.1z"/>
			</g>
		</g>
		<g id="XMLID_542_">
			<g id="XMLID_543_">
				<path id="XMLID_544_" class="st1" d="M419.3,36.8L419.3,36.8l-3-0.1l0.4-1.5l3.7,0l1.5,0.8l-7.2,13.1l-1.7-0.9L419.3,36.8z"/>
			</g>
		</g>
		<g id="XMLID_537_">
			<g id="XMLID_538_">
				<path id="XMLID_539_" class="st1" d="M431.7,50.5c-2.7,4.3-5.7,5.7-8.5,4c-2.5-1.5-2.8-4.9-0.2-9.1c2.6-4.3,5.9-5.5,8.5-3.9
					C434.1,43.1,434.2,46.4,431.7,50.5z M424.7,46.4c-2,3.3-2.2,5.8-0.6,6.8c1.8,1.1,3.9-0.5,5.9-3.7c1.9-3.1,2.4-5.7,0.6-6.8
					C429,41.8,426.8,43,424.7,46.4z"/>
			</g>
		</g>
		<g id="XMLID_533_">
			<g id="XMLID_534_">
				<path id="XMLID_535_" class="st1" d="M440.1,49.5L440.1,49.5l-3-0.3l0.5-1.5l3.7,0.4l1.4,1l-8.3,12.4l-1.6-1.1L440.1,49.5z"/>
			</g>
		</g>
		<g id="XMLID_528_">
			<g id="XMLID_529_">
				<path id="XMLID_530_" class="st1" d="M451.3,64.2c-3,4.1-6.2,5.2-8.9,3.3c-2.4-1.7-2.3-5.1,0.6-9.1c3-4,6.4-5,8.8-3.2
					C454.4,57,454.2,60.3,451.3,64.2z M444.7,59.5c-2.3,3.1-2.7,5.6-1.2,6.7c1.7,1.2,3.9-0.1,6.2-3.2c2.2-3,2.9-5.5,1.2-6.7
					C449.4,55.3,447.1,56.3,444.7,59.5z"/>
			</g>
		</g>
		<g id="XMLID_524_">
			<g id="XMLID_525_">
				<path id="XMLID_526_" class="st1" d="M459.8,63.9L459.8,63.9l-2.9-0.6l0.7-1.4l3.6,0.7l1.3,1.1l-9.4,11.6l-1.5-1.2L459.8,63.9z"
					/>
			</g>
		</g>
		<g id="XMLID_519_">
			<g id="XMLID_520_">
				<path id="XMLID_521_" class="st1" d="M469.7,79.5c-3.4,3.8-6.6,4.7-9.1,2.5c-2.2-1.9-1.9-5.3,1.4-9c3.3-3.8,6.8-4.4,9-2.4
					C473.3,72.6,472.8,75.9,469.7,79.5z M463.4,74.3c-2.6,2.9-3.1,5.4-1.7,6.6c1.6,1.4,3.9,0.2,6.4-2.7c2.4-2.8,3.3-5.2,1.7-6.6
					C468.5,70.5,466.1,71.3,463.4,74.3z"/>
			</g>
		</g>
		<g id="XMLID_515_">
			<g id="XMLID_516_">
				<path id="XMLID_517_" class="st1" d="M478.1,80L478.1,80l-2.9-0.8l0.8-1.4l3.6,1l1.2,1.2l-10.3,10.8l-1.4-1.4L478.1,80z"/>
			</g>
		</g>
		<g id="XMLID_510_">
			<g id="XMLID_511_">
				<path id="XMLID_512_" class="st1" d="M486.7,96.4c-3.7,3.5-7,4.1-9.3,1.7c-2-2.1-1.4-5.4,2.1-8.9c3.6-3.5,7.1-3.8,9.2-1.6
					C490.9,89.9,490.1,93.1,486.7,96.4z M480.9,90.7c-2.8,2.7-3.6,5.1-2.3,6.4c1.4,1.5,3.9,0.5,6.6-2.1c2.7-2.5,3.8-4.9,2.3-6.4
					C486.3,87.3,483.8,87.9,480.9,90.7z"/>
			</g>
		</g>
		<g id="XMLID_505_">
			<g id="XMLID_506_">
				<path id="XMLID_507_" class="st1" d="M494.6,105.4c-3.8,3.4-7.2,3.8-9.4,1.3c-1.9-2.2-1.2-5.5,2.5-8.8c3.8-3.3,7.3-3.5,9.3-1.2
					C499.1,99,498.2,102.2,494.6,105.4z M489.1,99.4c-2.9,2.6-3.8,4.9-2.6,6.3c1.4,1.6,3.8,0.7,6.7-1.8c2.8-2.4,4-4.7,2.6-6.3
					C494.6,96.3,492.1,96.7,489.1,99.4z"/>
			</g>
		</g>
		<g id="XMLID_500_">
			<g id="XMLID_501_">
				<path id="XMLID_502_" class="st1" d="M502.1,114.6c-4,3.2-7.3,3.5-9.4,0.9c-1.8-2.3-0.9-5.5,2.9-8.7c3.9-3.1,7.4-3.2,9.3-0.8
					C506.9,108.5,505.8,111.7,502.1,114.6z M496.9,108.5c-3,2.4-4,4.8-2.8,6.2c1.3,1.6,3.8,0.9,6.8-1.5c2.9-2.3,4.2-4.6,2.8-6.2
					C502.5,105.6,500,105.9,496.9,108.5z"/>
			</g>
		</g>
		<g id="XMLID_495_">
			<g id="XMLID_496_">
				<path id="XMLID_497_" class="st1" d="M509.2,124.3c-4.1,3-7.5,3.2-9.4,0.5c-1.7-2.4-0.7-5.6,3.3-8.5c4-3,7.5-2.9,9.3-0.4
					C514.3,118.3,513.1,121.4,509.2,124.3z M504.2,117.9c-3.1,2.3-4.2,4.6-3.1,6.1c1.2,1.7,3.8,1,6.8-1.2c3-2.2,4.3-4.4,3.1-6.1
					C510,115.2,507.5,115.4,504.2,117.9z"/>
			</g>
		</g>
		<g id="XMLID_490_">
			<g id="XMLID_491_">
				<path id="XMLID_492_" class="st1" d="M515.9,134.2c-4.2,2.8-7.6,2.8-9.4,0.1c-1.6-2.4-0.5-5.6,3.6-8.4c4.2-2.8,7.7-2.5,9.4,0
					C521.2,128.5,519.9,131.5,515.9,134.2z M511.2,127.6c-3.2,2.2-4.4,4.4-3.4,5.9c1.2,1.7,3.7,1.2,6.9-0.9c3.1-2.1,4.5-4.2,3.4-5.9
					C517.1,125.1,514.6,125.3,511.2,127.6z"/>
			</g>
		</g>
		<g id="XMLID_485_">
			<g id="XMLID_486_">
				<path id="XMLID_487_" class="st1" d="M522.2,144.4c-4.3,2.6-7.7,2.5-9.4-0.3c-1.5-2.5-0.2-5.6,4-8.2c4.3-2.6,7.8-2.2,9.3,0.4
					C527.7,138.9,526.3,141.9,522.2,144.4z M517.8,137.5c-3.3,2-4.6,4.2-3.6,5.8c1.1,1.8,3.7,1.4,6.9-0.6c3.1-1.9,4.7-4,3.6-5.8
					C523.8,135.4,521.3,135.4,517.8,137.5z"/>
			</g>
		</g>
		<g id="XMLID_480_">
			<g id="XMLID_481_">
				<path id="XMLID_482_" class="st1" d="M528,154.8c-4.5,2.5-7.8,2.2-9.4-0.7c-1.4-2.6,0-5.6,4.3-8c4.4-2.4,7.9-1.9,9.3,0.8
					C533.8,149.6,532.2,152.5,528,154.8z M523.9,147.8c-3.4,1.9-4.8,4-3.9,5.6c1,1.8,3.6,1.5,6.9-0.3c3.2-1.8,4.9-3.8,3.9-5.6
					C530,145.9,527.5,145.9,523.9,147.8z"/>
			</g>
		</g>
		<g id="XMLID_475_">
			<g id="XMLID_476_">
				<path id="XMLID_477_" class="st1" d="M533.4,165.5c-4.6,2.3-7.9,1.8-9.4-1.1c-1.3-2.6,0.3-5.6,4.7-7.8c4.5-2.2,7.9-1.5,9.3,1.2
					C539.4,160.5,537.7,163.4,533.4,165.5z M529.6,158.3c-3.5,1.7-4.9,3.8-4.1,5.4c0.9,1.9,3.5,1.7,6.9,0c3.3-1.6,5-3.6,4.1-5.4
					C535.7,156.7,533.2,156.5,529.6,158.3z"/>
			</g>
		</g>
		<g id="XMLID_470_">
			<g id="XMLID_471_">
				<path id="XMLID_472_" class="st1" d="M538.3,176.4c-4.6,2.1-8,1.5-9.3-1.6c-1.2-2.7,0.5-5.6,5-7.6c4.6-2,8-1.2,9.2,1.6
					C544.5,171.7,542.6,174.5,538.3,176.4z M534.8,169.1c-3.6,1.6-5.1,3.6-4.3,5.2c0.8,1.9,3.4,1.8,6.9,0.3c3.4-1.5,5.2-3.3,4.3-5.2
					C541,167.8,538.5,167.5,534.8,169.1z"/>
			</g>
		</g>
		<g id="XMLID_465_">
			<g id="XMLID_466_">
				<path id="XMLID_467_" class="st1" d="M542.7,187.6c-4.7,1.9-8,1.1-9.2-2c-1.1-2.7,0.8-5.6,5.3-7.4c4.7-1.8,8-0.8,9.1,2
					C549.1,183.1,547.1,185.8,542.7,187.6z M539.5,180.1c-3.6,1.4-5.2,3.3-4.6,5.1c0.8,1.9,3.4,2,6.9,0.6c3.4-1.3,5.3-3.1,4.6-5.1
					C545.8,179,543.3,178.6,539.5,180.1z"/>
			</g>
		</g>
		<g id="XMLID_460_">
			<g id="XMLID_461_">
				<path id="XMLID_462_" class="st1" d="M546.6,198.9c-4.8,1.6-8.1,0.8-9.1-2.4c-0.9-2.8,1-5.5,5.7-7.2c4.7-1.6,8.1-0.5,9,2.4
					C553.2,194.7,551.1,197.3,546.6,198.9z M543.7,191.3c-3.7,1.3-5.4,3.1-4.8,4.8c0.7,2,3.3,2.1,6.9,0.9c3.5-1.2,5.5-2.9,4.8-4.8
					C550.1,190.5,547.6,189.9,543.7,191.3z"/>
			</g>
		</g>
		<g id="XMLID_455_">
			<g id="XMLID_456_">
				<path id="XMLID_457_" class="st1" d="M550,210.4c-4.9,1.4-8.1,0.4-9-2.8c-0.8-2.8,1.2-5.5,6-6.9c4.8-1.4,8.1-0.1,8.9,2.8
					C556.8,206.5,554.6,209,550,210.4z M547.5,202.6c-3.7,1.1-5.5,2.9-5,4.6c0.6,2,3.2,2.3,6.8,1.2c3.5-1,5.6-2.6,5-4.6
					C553.8,202.1,551.4,201.5,547.5,202.6z"/>
			</g>
		</g>
		<g id="XMLID_450_">
			<g id="XMLID_451_">
				<path id="XMLID_452_" class="st1" d="M552.9,222c-4.9,1.2-8.1,0.1-8.9-3.2c-0.7-2.8,1.5-5.4,6.3-6.6c4.9-1.2,8.1,0.2,8.8,3.2
					C559.8,218.4,557.6,220.8,552.9,222z M550.8,214.1c-3.8,0.9-5.6,2.6-5.2,4.4c0.5,2,3.1,2.4,6.8,1.5c3.6-0.9,5.7-2.4,5.2-4.4
					C557.1,213.9,554.7,213.2,550.8,214.1z"/>
			</g>
		</g>
		<g id="XMLID_445_">
			<g id="XMLID_446_">
				<path id="XMLID_447_" class="st1" d="M555.3,233.7c-5,1-8.1-0.3-8.8-3.5c-0.6-2.9,1.7-5.3,6.5-6.4c4.9-1,8,0.6,8.6,3.6
					C562.4,230.4,560,232.7,555.3,233.7z M553.5,225.8c-3.8,0.8-5.7,2.4-5.4,4.2c0.4,2,3,2.5,6.7,1.8c3.6-0.7,5.8-2.1,5.4-4.2
					C559.9,225.8,557.5,225,553.5,225.8z"/>
			</g>
		</g>
		<g id="XMLID_440_">
			<g id="XMLID_441_">
				<path id="XMLID_442_" class="st1" d="M557.2,245.5c-5,0.8-8.1-0.6-8.6-3.9c-0.5-2.9,1.9-5.3,6.8-6.1c5-0.8,8,0.9,8.5,3.9
					C564.4,242.6,561.9,244.8,557.2,245.5z M555.8,237.5c-3.8,0.6-5.8,2.1-5.5,3.9c0.3,2,2.9,2.6,6.6,2.1c3.6-0.6,5.9-1.9,5.5-3.9
					C562.1,237.8,559.8,236.9,555.8,237.5z"/>
			</g>
		</g>
		<g id="XMLID_435_">
			<g id="XMLID_436_">
				<path id="XMLID_437_" class="st1" d="M558.6,257.4c-5.1,0.6-8.1-1-8.4-4.3c-0.3-2.9,2.2-5.2,7.1-5.8c5-0.6,8,1.3,8.3,4.3
					C565.9,254.7,563.4,256.8,558.6,257.4z M557.5,249.3c-3.9,0.4-5.9,1.9-5.7,3.7c0.2,2.1,2.7,2.8,6.5,2.3c3.7-0.4,6-1.6,5.7-3.7
					C563.8,249.9,561.5,248.9,557.5,249.3z"/>
			</g>
		</g>
		<g id="XMLID_430_">
			<g id="XMLID_431_">
				<path id="XMLID_432_" class="st1" d="M559.5,269.3c-5.1,0.4-8-1.3-8.2-4.6c-0.2-2.9,2.4-5.1,7.3-5.5c5-0.3,7.9,1.6,8.1,4.7
					C566.9,267,564.2,269,559.5,269.3z M558.7,261.2c-3.9,0.3-6,1.6-5.9,3.5c0.1,2.1,2.6,2.9,6.4,2.6c3.7-0.3,6-1.4,5.9-3.4
					C565,262.1,562.8,261,558.7,261.2z"/>
			</g>
		</g>
		<g id="XMLID_426_">
			<g id="XMLID_427_">
				<path id="XMLID_428_" class="st1" d="M565.1,275.6L565.1,275.6l-1.5-2.6l1.5-0.4l1.8,3.2l0,1.7l-14.9,0.4l-0.1-2L565.1,275.6z"
					/>
			</g>
		</g>
		<g id="XMLID_422_">
			<g id="XMLID_423_">
				<path id="XMLID_424_" class="st1" d="M565.2,287.8L565.2,287.8l-1.4-2.7l1.5-0.4l1.7,3.3l0,1.7l-14.9-0.2l0-2L565.2,287.8z"/>
			</g>
		</g>
		<g id="XMLID_417_">
			<g id="XMLID_418_">
				<path id="XMLID_419_" class="st1" d="M559,305.2c-5.1-0.3-7.8-2.3-7.6-5.7c0.2-2.9,3-4.7,8-4.5c5,0.3,7.6,2.6,7.5,5.6
					C566.7,303.8,563.8,305.5,559,305.2z M559.3,297.1c-3.9-0.2-6.2,0.8-6.3,2.7c-0.1,2.1,2.2,3.2,6,3.4c3.7,0.2,6.1-0.6,6.3-2.7
					C565.4,298.7,563.3,297.3,559.3,297.1z"/>
			</g>
		</g>
		<g id="XMLID_412_">
			<g id="XMLID_413_">
				<path id="XMLID_414_" class="st1" d="M557.9,317.1c-5.1-0.5-7.7-2.7-7.3-6c0.3-2.9,3.2-4.6,8.1-4.1c5,0.5,7.5,2.9,7.2,6
					C565.6,316.1,562.6,317.6,557.9,317.1z M558.4,309c-3.9-0.4-6.2,0.6-6.4,2.4c-0.2,2.1,2.1,3.3,5.9,3.7c3.7,0.4,6.2-0.3,6.4-2.4
					C564.5,310.9,562.5,309.4,558.4,309z"/>
			</g>
		</g>
		<g id="XMLID_407_">
			<g id="XMLID_408_">
				<path id="XMLID_409_" class="st1" d="M556.2,328.9c-5-0.7-7.5-3-7.1-6.3c0.4-2.9,3.4-4.5,8.3-3.8c5,0.7,7.4,3.3,6.9,6.3
					C563.9,328.2,560.9,329.6,556.2,328.9z M557.1,320.9c-3.8-0.6-6.2,0.3-6.5,2.1c-0.3,2,1.9,3.4,5.7,3.9c3.6,0.5,6.2-0.1,6.5-2.1
					C563.1,323,561.1,321.4,557.1,320.9z"/>
			</g>
		</g>
		<g id="XMLID_402_">
			<g id="XMLID_403_">
				<path id="XMLID_404_" class="st1" d="M554,340.7c-5-1-7.4-3.3-6.8-6.6c0.5-2.9,3.6-4.3,8.5-3.4c4.9,0.9,7.2,3.6,6.7,6.6
					C561.7,340.3,558.6,341.6,554,340.7z M555.3,332.7c-3.8-0.7-6.2,0-6.6,1.8c-0.4,2,1.8,3.5,5.6,4.2c3.6,0.7,6.2,0.2,6.6-1.8
					C561.1,335.1,559.3,333.4,555.3,332.7z"/>
			</g>
		</g>
		<g id="XMLID_398_">
			<g id="XMLID_399_">
				<path id="XMLID_400_" class="st1" d="M557.8,348.2L557.8,348.2l-0.8-2.9l1.6,0l0.9,3.6l-0.4,1.7l-14.5-3.4l0.4-1.9L557.8,348.2z
					"/>
			</g>
		</g>
		<g id="XMLID_393_">
			<g id="XMLID_394_">
				<path id="XMLID_395_" class="st1" d="M548,363.9c-4.9-1.4-7.1-4-6.2-7.1c0.8-2.8,4-4,8.7-2.7c4.8,1.4,6.9,4.2,6.1,7.1
					C555.8,364.2,552.6,365.2,548,363.9z M550,356c-3.7-1.1-6.2-0.5-6.7,1.3c-0.6,2,1.5,3.6,5.2,4.6c3.5,1,6.1,0.8,6.7-1.3
					C555.7,358.9,553.9,357.1,550,356z"/>
			</g>
		</g>
		<g id="XMLID_388_">
			<g id="XMLID_389_">
				<path id="XMLID_390_" class="st1" d="M544.3,375.2c-4.8-1.6-6.9-4.3-5.9-7.4c0.9-2.8,4.1-3.8,8.8-2.3c4.8,1.6,6.7,4.5,5.7,7.4
					C552,375.9,548.8,376.7,544.3,375.2z M546.6,367.5c-3.7-1.2-6.2-0.8-6.7,1c-0.6,2,1.3,3.7,5,4.9c3.5,1.2,6.1,1,6.7-1
					C552.1,370.6,550.5,368.7,546.6,367.5z"/>
			</g>
		</g>
		<g id="XMLID_383_">
			<g id="XMLID_384_">
				<path id="XMLID_385_" class="st1" d="M540.1,386.4c-4.8-1.8-6.7-4.6-5.5-7.7c1-2.7,4.3-3.6,8.9-1.9c4.7,1.8,6.5,4.8,5.4,7.6
					C547.8,387.5,544.5,388.1,540.1,386.4z M542.8,378.8c-3.6-1.4-6.1-1-6.8,0.7c-0.7,1.9,1.2,3.7,4.7,5.1c3.4,1.3,6,1.3,6.8-0.7
					C548.1,382.2,546.6,380.2,542.8,378.8z"/>
			</g>
		</g>
		<g id="XMLID_378_">
			<g id="XMLID_379_">
				<path id="XMLID_380_" class="st1" d="M535.4,397.4c-4.7-2-6.5-4.9-5.2-7.9c1.2-2.7,4.5-3.4,9-1.5c4.6,2,6.3,5.1,5.1,7.8
					C543.1,398.8,539.8,399.3,535.4,397.4z M538.4,389.9c-3.6-1.5-6.1-1.3-6.8,0.4c-0.8,1.9,1,3.8,4.5,5.3c3.4,1.5,6,1.5,6.8-0.4
					C543.6,393.5,542.1,391.5,538.4,389.9z"/>
			</g>
		</g>
		<g id="XMLID_374_">
			<g id="XMLID_375_">
				<path id="XMLID_376_" class="st1" d="M537.5,405.6L537.5,405.6l-0.1-3l1.6,0.3l0.2,3.7l-0.8,1.6l-13.5-6.5l0.9-1.8L537.5,405.6z
					"/>
			</g>
		</g>
		<g id="XMLID_369_">
			<g id="XMLID_370_">
				<path id="XMLID_371_" class="st1" d="M524.6,418.8c-4.5-2.4-6.1-5.4-4.5-8.3c1.4-2.6,4.7-3,9.1-0.7c4.4,2.4,5.8,5.6,4.4,8.3
					C532.1,420.8,528.8,421.1,524.6,418.8z M528.2,411.5c-3.4-1.8-5.9-1.8-6.8-0.2c-1,1.8,0.7,3.8,4,5.6c3.2,1.7,5.8,2.1,6.8,0.2
					C533.1,415.6,531.8,413.5,528.2,411.5z"/>
			</g>
		</g>
		<g id="XMLID_364_">
			<g id="XMLID_365_">
				<path id="XMLID_366_" class="st1" d="M518.5,429.1c-4.4-2.6-5.8-5.7-4.1-8.5c1.5-2.5,4.9-2.8,9.1-0.3c4.3,2.6,5.6,5.8,4,8.4
					C525.9,431.4,522.6,431.5,518.5,429.1z M522.4,422c-3.3-2-5.8-2.1-6.8-0.5c-1.1,1.8,0.5,3.9,3.8,5.8c3.2,1.9,5.7,2.3,6.8,0.5
					C527.1,426.3,525.9,424.1,522.4,422z"/>
			</g>
		</g>
		<g id="XMLID_360_">
			<g id="XMLID_361_">
				<path id="XMLID_362_" class="st1" d="M519.5,437.5L519.5,437.5l0.3-3l1.5,0.5l-0.3,3.7l-0.9,1.4l-12.5-8.2l1.1-1.6L519.5,437.5z
					"/>
			</g>
		</g>
		<g id="XMLID_355_">
			<g id="XMLID_356_">
				<path id="XMLID_357_" class="st1" d="M505,448.9c-4.1-3-5.3-6.1-3.4-8.8c1.7-2.4,5.1-2.4,9.1,0.5c4.1,2.9,5.1,6.3,3.3,8.8
					C512.2,451.8,508.9,451.6,505,448.9z M509.6,442.1c-3.2-2.3-5.6-2.6-6.7-1.1c-1.2,1.7,0.2,3.9,3.3,6.1c3,2.1,5.5,2.8,6.7,1.1
					C513.9,446.8,512.9,444.5,509.6,442.1z"/>
			</g>
		</g>
		<g id="XMLID_351_">
			<g id="XMLID_352_">
				<path id="XMLID_353_" class="st1" d="M505.3,457.3L505.3,457.3l0.5-2.9l1.5,0.6l-0.6,3.6l-1.1,1.4l-11.7-9.2l1.2-1.5
					L505.3,457.3z"/>
			</g>
		</g>
		<g id="XMLID_346_">
			<g id="XMLID_347_">
				<path id="XMLID_348_" class="st1" d="M489.9,467.4c-3.9-3.3-4.8-6.6-2.6-9.1c1.9-2.2,5.3-1.9,9,1.3c3.8,3.3,4.5,6.7,2.5,9
					C496.8,470.9,493.5,470.5,489.9,467.4z M495,461.1c-2.9-2.5-5.4-3.1-6.6-1.7c-1.3,1.6-0.2,3.9,2.7,6.4c2.8,2.4,5.2,3.3,6.6,1.7
					C498.9,466.1,498.1,463.7,495,461.1z"/>
			</g>
		</g>
		<g id="XMLID_342_">
			<g id="XMLID_343_">
				<path id="XMLID_344_" class="st1" d="M489.5,475.8L489.5,475.8l0.8-2.9l1.4,0.8l-1,3.6l-1.2,1.3l-10.9-10.2l1.3-1.4L489.5,475.8
					z"/>
			</g>
		</g>
		<g id="XMLID_337_">
			<g id="XMLID_338_">
				<path id="XMLID_339_" class="st1" d="M473.2,484.5c-3.6-3.6-4.2-7-1.8-9.3c2.1-2,5.4-1.5,8.9,2c3.5,3.6,3.9,7.1,1.7,9.2
					C479.8,488.7,476.5,487.9,473.2,484.5z M478.8,478.7c-2.7-2.8-5.1-3.5-6.4-2.2c-1.5,1.4-0.5,3.9,2.2,6.6
					c2.6,2.6,4.9,3.7,6.4,2.2C482.3,484.1,481.7,481.6,478.8,478.7z"/>
			</g>
		</g>
		<g id="XMLID_332_">
			<g id="XMLID_333_">
				<path id="XMLID_334_" class="st1" d="M464.3,492.6c-3.4-3.8-3.9-7.1-1.4-9.3c2.2-2,5.5-1.2,8.8,2.4c3.3,3.7,3.6,7.2,1.3,9.3
					C470.7,497,467.5,496.1,464.3,492.6z M470.2,487c-2.6-2.9-5-3.7-6.3-2.5c-1.5,1.4-0.7,3.8,1.9,6.7c2.5,2.7,4.8,3.9,6.3,2.5
					C473.4,492.5,472.9,490,470.2,487z"/>
			</g>
		</g>
		<g id="XMLID_327_">
			<g id="XMLID_328_">
				<path id="XMLID_329_" class="st1" d="M455.1,500.2c-3.2-3.9-3.6-7.3-1-9.4c2.3-1.9,5.5-1,8.7,2.8c3.2,3.9,3.3,7.4,0.9,9.3
					C461.3,504.9,458.1,503.9,455.1,500.2z M461.2,494.9c-2.5-3-4.8-3.9-6.2-2.8c-1.6,1.3-0.8,3.8,1.6,6.8c2.3,2.8,4.6,4.1,6.2,2.8
					C464.2,500.5,463.8,498,461.2,494.9z"/>
			</g>
		</g>
		<g id="XMLID_323_">
			<g id="XMLID_324_">
				<path id="XMLID_325_" class="st1" d="M453.3,508.4L453.3,508.4l1.3-2.7l1.2,1l-1.6,3.4l-1.4,1l-9-11.9l1.6-1.2L453.3,508.4z"/>
			</g>
		</g>
		<g id="XMLID_319_">
			<g id="XMLID_320_">
				<path id="XMLID_321_" class="st1" d="M443.4,515.6L443.4,515.6l1.4-2.7l1.2,1l-1.7,3.3l-1.4,1l-8.5-12.3l1.6-1.1L443.4,515.6z"
					/>
			</g>
		</g>
		<g id="XMLID_314_">
			<g id="XMLID_315_">
				<path id="XMLID_316_" class="st1" d="M425.6,520.6c-2.7-4.3-2.6-7.7,0.2-9.4c2.5-1.5,5.6-0.3,8.3,3.9c2.7,4.3,2.3,7.7-0.3,9.3
					C431.1,526.1,428.1,524.7,425.6,520.6z M432.4,516.1c-2.1-3.3-4.2-4.5-5.8-3.6c-1.8,1.1-1.3,3.7,0.7,6.9c2,3.1,4,4.7,5.8,3.6
					C434.6,522.1,434.5,519.6,432.4,516.1z"/>
			</g>
		</g>
		<g id="XMLID_309_">
			<g id="XMLID_310_">
				<path id="XMLID_311_" class="st1" d="M415.2,526.5c-2.5-4.4-2.2-7.8,0.6-9.4c2.5-1.4,5.6,0,8.1,4.2c2.5,4.4,2,7.8-0.7,9.3
					C420.5,532.2,417.6,530.7,415.2,526.5z M422.2,522.3c-1.9-3.4-4-4.7-5.6-3.8c-1.8,1-1.5,3.6,0.4,6.9c1.8,3.2,3.8,4.8,5.6,3.8
					C424.1,528.4,424.2,525.9,422.2,522.3z"/>
			</g>
		</g>
		<g id="XMLID_304_">
			<g id="XMLID_305_">
				<path id="XMLID_306_" class="st1" d="M404.6,532c-2.3-4.5-1.9-7.9,1-9.4c2.6-1.3,5.6,0.2,7.9,4.6c2.3,4.5,1.6,7.9-1.1,9.3
					C409.6,537.9,406.7,536.3,404.6,532z M411.7,528.1c-1.8-3.5-3.8-4.9-5.5-4c-1.8,0.9-1.6,3.5,0.1,6.9c1.7,3.3,3.6,5,5.5,4
					C413.4,534.3,413.6,531.8,411.7,528.1z"/>
			</g>
		</g>
		<g id="XMLID_299_">
			<g id="XMLID_300_">
				<path id="XMLID_301_" class="st1" d="M393.7,537c-2.1-4.6-1.6-8,1.5-9.3c2.7-1.2,5.6,0.5,7.7,4.9c2.1,4.6,1.3,8-1.5,9.2
					C398.5,543.2,395.7,541.4,393.7,537z M401,533.4c-1.6-3.5-3.6-5-5.3-4.3c-1.9,0.9-1.8,3.5-0.2,6.9c1.5,3.3,3.4,5.2,5.3,4.3
					C402.4,539.7,402.7,537.2,401,533.4z"/>
			</g>
		</g>
		<g id="XMLID_294_">
			<g id="XMLID_295_">
				<path id="XMLID_296_" class="st1" d="M382.6,541.6c-1.9-4.7-1.2-8,1.9-9.3c2.7-1.1,5.6,0.7,7.5,5.3c1.9,4.6,0.9,8-1.9,9.2
					C387.1,547.9,384.4,546,382.6,541.6z M390.1,538.3c-1.5-3.6-3.4-5.2-5.1-4.5c-1.9,0.8-1.9,3.4-0.5,6.9c1.4,3.4,3.2,5.3,5.1,4.5
					C391.2,544.6,391.6,542.1,390.1,538.3z"/>
			</g>
		</g>
		<g id="XMLID_290_">
			<g id="XMLID_291_">
				<path id="XMLID_292_" class="st1" d="M378.4,548.9L378.4,548.9l2-2.2l0.9,1.3l-2.5,2.7l-1.6,0.6l-5-14.1l1.8-0.7L378.4,548.9z"
					/>
			</g>
		</g>
		<g id="XMLID_285_">
			<g id="XMLID_286_">
				<path id="XMLID_287_" class="st1" d="M359.9,549.2c-1.5-4.9-0.5-8.1,2.7-9.1c2.8-0.9,5.5,1.2,7,5.9c1.5,4.8,0.2,8.1-2.7,9
					C363.9,555.9,361.3,553.7,359.9,549.2z M367.6,546.6c-1.1-3.7-2.9-5.5-4.7-4.9c-2,0.6-2.2,3.2-1.1,6.9c1.1,3.5,2.7,5.5,4.7,4.9
					C368.2,552.9,368.8,550.5,367.6,546.6z"/>
			</g>
		</g>
		<g id="XMLID_280_">
			<g id="XMLID_281_">
				<path id="XMLID_282_" class="st1" d="M348.4,552.2c-1.3-4.9-0.2-8.1,3-8.9c2.8-0.7,5.4,1.4,6.7,6.2c1.3,4.9-0.1,8.1-3.1,8.8
					C352,559.1,349.6,556.8,348.4,552.2z M356.2,549.9c-1-3.8-2.7-5.6-4.5-5.1c-2,0.5-2.4,3.1-1.4,6.8c0.9,3.6,2.4,5.7,4.5,5.1
					C356.5,556.3,357.2,553.9,356.2,549.9z"/>
			</g>
		</g>
		<g id="XMLID_276_">
			<g id="XMLID_277_">
				<path id="XMLID_278_" class="st1" d="M343.2,558.9L343.2,558.9l2.3-1.9l0.7,1.4l-2.8,2.4l-1.7,0.4l-3.1-14.6l1.9-0.4
					L343.2,558.9z"/>
			</g>
		</g>
		<g id="XMLID_271_">
			<g id="XMLID_272_">
				<path id="XMLID_273_" class="st1" d="M324.9,556.8c-0.8-5,0.6-8.1,3.8-8.6c2.9-0.5,5.3,1.9,6.1,6.8c0.8,4.9-0.8,8-3.8,8.5
					C327.9,563.9,325.7,561.5,324.9,556.8z M332.9,555.2c-0.6-3.8-2.2-5.8-4-5.5c-2,0.3-2.6,2.9-2,6.7c0.6,3.6,1.9,5.9,4,5.5
					C332.6,561.5,333.5,559.2,332.9,555.2z"/>
			</g>
		</g>
		<g id="XMLID_267_">
			<g id="XMLID_268_">
				<path id="XMLID_269_" class="st1" d="M319.2,563L319.2,563l2.5-1.7l0.6,1.5l-3,2.1l-1.7,0.2l-1.8-14.8l1.9-0.2L319.2,563z"/>
			</g>
		</g>
		<g id="XMLID_262_">
			<g id="XMLID_263_">
				<path id="XMLID_264_" class="st1" d="M301.1,559.3c-0.4-5.1,1.2-8,4.5-8.3c2.9-0.2,5.1,2.3,5.5,7.3c0.4,5-1.5,7.9-4.6,8.2
					C303.5,566.7,301.5,564,301.1,559.3z M309.1,558.4c-0.3-3.9-1.7-6-3.5-5.8c-2.1,0.2-2.9,2.7-2.5,6.5c0.3,3.7,1.4,6,3.5,5.8
					C308.4,564.7,309.5,562.5,309.1,558.4z"/>
			</g>
		</g>
		<g id="XMLID_258_">
			<g id="XMLID_259_">
				<path id="XMLID_260_" class="st1" d="M294.9,565L294.9,565l2.6-1.5l0.4,1.5l-3.2,1.9l-1.7,0.1l-0.6-14.9l2-0.1L294.9,565z"/>
			</g>
		</g>
		<g id="XMLID_253_">
			<g id="XMLID_254_">
				<path id="XMLID_255_" class="st1" d="M277.1,559.7c0.1-5.1,2-7.9,5.3-7.8c2.9,0,4.9,2.8,4.8,7.8c-0.1,5-2.3,7.7-5.3,7.7
					C278.8,567.3,277.1,564.5,277.1,559.7z M285.3,559.6c0.1-3.9-1.1-6.1-2.9-6.1c-2.1,0-3.1,2.4-3.2,6.2c-0.1,3.7,0.8,6.1,2.9,6.1
					C283.9,565.8,285.2,563.7,285.3,559.6z"/>
			</g>
		</g>
		<g id="XMLID_249_">
			<g id="XMLID_250_">
				<path id="XMLID_251_" class="st1" d="M270.5,564.9L270.5,564.9l2.7-1.3l0.3,1.6l-3.3,1.6l-1.7-0.1l0.7-14.9l2,0.1L270.5,564.9z"
					/>
			</g>
		</g>
		<g id="XMLID_244_">
			<g id="XMLID_245_">
				<path id="XMLID_246_" class="st1" d="M253.3,558.2c0.5-5.1,2.6-7.7,5.9-7.4c2.9,0.3,4.6,3.2,4.2,8.1c-0.5,5-2.9,7.5-5.9,7.3
					C254.4,565.9,252.9,562.9,253.3,558.2z M261.4,558.7c0.4-3.9-0.6-6.2-2.5-6.3c-2.1-0.2-3.3,2.1-3.6,5.9
					c-0.3,3.7,0.4,6.2,2.5,6.3C259.6,564.8,261,562.7,261.4,558.7z"/>
			</g>
		</g>
		<g id="XMLID_239_">
			<g id="XMLID_240_">
				<path id="XMLID_241_" class="st1" d="M241.4,556.6c0.7-5,2.9-7.6,6.2-7.1c2.9,0.4,4.5,3.4,3.9,8.3c-0.7,5-3.2,7.4-6.2,7
					C242.2,564.4,240.8,561.3,241.4,556.6z M249.5,557.5c0.5-3.9-0.4-6.2-2.2-6.4c-2.1-0.3-3.4,2-3.9,5.8c-0.5,3.6,0.1,6.2,2.2,6.4
					C247.4,563.5,249,561.5,249.5,557.5z"/>
			</g>
		</g>
		<g id="XMLID_234_">
			<g id="XMLID_235_">
				<path id="XMLID_236_" class="st1" d="M229.7,554.5c0.9-5,3.2-7.4,6.5-6.8c2.9,0.5,4.3,3.6,3.5,8.4c-0.9,4.9-3.5,7.3-6.5,6.7
					C230.1,562.3,228.8,559.2,229.7,554.5z M237.7,555.7c0.7-3.8-0.1-6.2-1.9-6.5c-2-0.4-3.4,1.8-4.1,5.6c-0.6,3.6-0.1,6.2,1.9,6.5
					C235.3,561.7,237,559.8,237.7,555.7z"/>
			</g>
		</g>
		<g id="XMLID_230_">
			<g id="XMLID_231_">
				<path id="XMLID_232_" class="st1" d="M222.2,558.5L222.2,558.5l2.9-0.8l0,1.6l-3.6,1l-1.7-0.4l3.3-14.6l1.9,0.4L222.2,558.5z"/>
			</g>
		</g>
		<g id="XMLID_226_">
			<g id="XMLID_227_">
				<path id="XMLID_228_" class="st1" d="M210.3,555.6L210.3,555.6l2.9-0.7l0,1.6l-3.6,0.8l-1.7-0.5l3.9-14.4l1.9,0.5L210.3,555.6z"
					/>
			</g>
		</g>
		<g id="XMLID_222_">
			<g id="XMLID_223_">
				<path id="XMLID_224_" class="st1" d="M198.6,552.1L198.6,552.1l2.9-0.5l-0.1,1.6l-3.6,0.7l-1.6-0.5l4.5-14.2l1.9,0.6
					L198.6,552.1z"/>
			</g>
		</g>
		<g id="XMLID_218_">
			<g id="XMLID_219_">
				<path id="XMLID_220_" class="st1" d="M187.1,548.2L187.1,548.2l3-0.4l-0.2,1.6l-3.7,0.5l-1.6-0.6l5.2-14l1.8,0.7L187.1,548.2z"
					/>
			</g>
		</g>
		<g id="XMLID_213_">
			<g id="XMLID_214_">
				<path id="XMLID_215_" class="st1" d="M172.7,536.6c2-4.7,4.8-6.6,7.8-5.3c2.7,1.1,3.5,4.4,1.6,9c-1.9,4.6-5,6.3-7.8,5.2
					C171.4,544.3,170.8,541,172.7,536.6z M180.3,539.5c1.5-3.6,1.2-6.1-0.5-6.8c-1.9-0.8-3.8,1-5.2,4.6c-1.4,3.4-1.5,6,0.5,6.8
					C176.7,544.8,178.7,543.3,180.3,539.5z"/>
			</g>
		</g>
		<g id="XMLID_208_">
			<g id="XMLID_209_">
				<path id="XMLID_210_" class="st1" d="M161.8,531.6c2.2-4.6,5.1-6.3,8.1-4.9c2.6,1.2,3.3,4.6,1.2,9.1c-2.1,4.5-5.3,6.1-8,4.8
					C160.2,539.2,159.8,535.9,161.8,531.6z M169.3,534.8c1.7-3.5,1.5-6-0.2-6.8c-1.9-0.9-3.8,0.9-5.4,4.3c-1.6,3.3-1.7,5.9,0.2,6.8
					C165.5,539.9,167.6,538.5,169.3,534.8z"/>
			</g>
		</g>
		<g id="XMLID_203_">
			<g id="XMLID_204_">
				<path id="XMLID_205_" class="st1" d="M151.2,526c2.4-4.5,5.3-6.1,8.3-4.6c2.6,1.4,3.1,4.7,0.8,9.1c-2.3,4.4-5.5,5.9-8.2,4.5
					C149.3,533.6,149,530.2,151.2,526z M158.5,529.6c1.8-3.4,1.8-6,0.1-6.8c-1.8-1-3.8,0.7-5.6,4.1c-1.7,3.3-2,5.8-0.1,6.8
					C154.5,534.5,156.6,533.2,158.5,529.6z"/>
			</g>
		</g>
		<g id="XMLID_198_">
			<g id="XMLID_199_">
				<path id="XMLID_200_" class="st1" d="M140.9,520.1c2.6-4.4,5.6-5.9,8.5-4.2c2.5,1.5,2.9,4.8,0.4,9.1c-2.5,4.3-5.8,5.6-8.4,4.1
					C138.6,527.5,138.5,524.2,140.9,520.1z M148,523.9c2-3.4,2-5.9,0.4-6.8c-1.8-1-3.9,0.6-5.8,3.9c-1.8,3.2-2.2,5.7-0.4,6.8
					C143.7,528.7,145.9,527.5,148,523.9z"/>
			</g>
		</g>
		<g id="XMLID_194_">
			<g id="XMLID_195_">
				<path id="XMLID_196_" class="st1" d="M132.5,521.2L132.5,521.2l3,0.2L135,523l-3.7-0.3l-1.5-0.9l8.1-12.6l1.6,1.1L132.5,521.2z"
					/>
			</g>
		</g>
		<g id="XMLID_190_">
			<g id="XMLID_191_">
				<path id="XMLID_192_" class="st1" d="M122.3,514.4L122.3,514.4l3,0.4l-0.6,1.5l-3.7-0.4l-1.4-1l8.6-12.2l1.6,1.1L122.3,514.4z"
					/>
			</g>
		</g>
		<g id="XMLID_186_">
			<g id="XMLID_187_">
				<path id="XMLID_188_" class="st1" d="M112.5,507.2L112.5,507.2l3,0.5l-0.6,1.5l-3.7-0.6l-1.4-1.1l9.1-11.9l1.5,1.2L112.5,507.2z
					"/>
			</g>
		</g>
		<g id="XMLID_181_">
			<g id="XMLID_182_">
				<path id="XMLID_183_" class="st1" d="M102.2,491.9c3.3-3.9,6.5-4.8,9.1-2.7c2.2,1.9,2,5.2-1.2,9.1c-3.2,3.8-6.7,4.6-9,2.6
					C98.8,498.8,99.2,495.5,102.2,491.9z M108.6,496.9c2.5-3,3-5.4,1.6-6.6c-1.6-1.3-3.9-0.1-6.4,2.8c-2.4,2.8-3.2,5.3-1.6,6.6
					C103.6,500.9,106,500,108.6,496.9z"/>
			</g>
		</g>
		<g id="XMLID_176_">
			<g id="XMLID_177_">
				<path id="XMLID_178_" class="st1" d="M93.4,483.8c3.4-3.7,6.7-4.5,9.2-2.3c2.2,2,1.8,5.3-1.5,9c-3.4,3.7-6.8,4.3-9.1,2.2
					C89.6,490.6,90.2,487.3,93.4,483.8z M99.5,489.1c2.6-2.9,3.2-5.3,1.9-6.5c-1.5-1.4-3.9-0.3-6.5,2.5c-2.5,2.7-3.4,5.1-1.9,6.5
					C94.4,492.9,96.8,492.1,99.5,489.1z"/>
			</g>
		</g>
		<g id="XMLID_171_">
			<g id="XMLID_172_">
				<path id="XMLID_173_" class="st1" d="M84.9,475.4c3.6-3.6,6.9-4.2,9.3-1.9c2.1,2.1,1.5,5.4-1.9,8.9c-3.5,3.5-7,4-9.2,1.8
					C80.8,482,81.5,478.7,84.9,475.4z M90.8,480.9c2.7-2.7,3.5-5.2,2.2-6.5c-1.5-1.5-3.9-0.5-6.6,2.2c-2.6,2.6-3.6,5-2.2,6.5
					C85.5,484.4,87.9,483.8,90.8,480.9z"/>
			</g>
		</g>
		<g id="XMLID_166_">
			<g id="XMLID_167_">
				<path id="XMLID_168_" class="st1" d="M76.8,466.6c3.7-3.4,7.1-3.9,9.3-1.5c2,2.2,1.3,5.5-2.3,8.8c-3.7,3.4-7.2,3.7-9.2,1.4
					C72.4,473,73.3,469.8,76.8,466.6z M82.5,472.4c2.9-2.6,3.7-5,2.4-6.4c-1.4-1.5-3.8-0.6-6.7,2c-2.7,2.5-3.9,4.8-2.4,6.4
					C77,475.7,79.5,475.2,82.5,472.4z"/>
			</g>
		</g>
		<g id="XMLID_162_">
			<g id="XMLID_163_">
				<path id="XMLID_164_" class="st1" d="M68.5,465.2L68.5,465.2l2.8,1.1l-0.9,1.3l-3.4-1.4l-1.1-1.3l11.4-9.6l1.3,1.5L68.5,465.2z"
					/>
			</g>
		</g>
		<g id="XMLID_158_">
			<g id="XMLID_159_">
				<path id="XMLID_160_" class="st1" d="M60.8,455.7L60.8,455.7l2.7,1.2l-1,1.3l-3.4-1.5l-1.1-1.4l11.8-9.1l1.2,1.5L60.8,455.7z"/>
			</g>
		</g>
		<g id="XMLID_153_">
			<g id="XMLID_154_">
				<path id="XMLID_155_" class="st1" d="M54.8,438.3c4.2-2.9,7.5-3,9.4-0.3c1.7,2.4,0.6,5.6-3.4,8.5c-4.1,2.9-7.6,2.7-9.4,0.2
					C49.6,444.1,50.9,441,54.8,438.3z M59.7,444.8c3.2-2.2,4.3-4.5,3.2-6c-1.2-1.7-3.7-1.1-6.9,1.1c-3,2.1-4.4,4.3-3.2,6
					C53.8,447.3,56.3,447.1,59.7,444.8z"/>
			</g>
		</g>
		<g id="XMLID_149_">
			<g id="XMLID_150_">
				<path id="XMLID_151_" class="st1" d="M46.7,435.8L46.7,435.8l2.6,1.5l-1.1,1.2l-3.2-1.8l-0.9-1.5l12.6-8.1l1.1,1.6L46.7,435.8z"
					/>
			</g>
		</g>
		<g id="XMLID_144_">
			<g id="XMLID_145_">
				<path id="XMLID_146_" class="st1" d="M42.3,417.9c4.4-2.6,7.8-2.3,9.4,0.5c1.5,2.5,0.1,5.6-4.2,8.1c-4.3,2.5-7.8,2-9.3-0.6
					C36.6,423.2,38.1,420.3,42.3,417.9z M46.5,424.8c3.4-2,4.7-4.1,3.7-5.7c-1-1.8-3.6-1.4-6.9,0.5c-3.2,1.9-4.8,3.9-3.7,5.7
					C40.5,426.8,43,426.8,46.5,424.8z"/>
			</g>
		</g>
		<g id="XMLID_140_">
			<g id="XMLID_141_">
				<path id="XMLID_142_" class="st1" d="M34.4,414.7L34.4,414.7l2.5,1.7l-1.2,1.1l-3.1-2.1l-0.8-1.5l13.2-6.9l0.9,1.7L34.4,414.7z"
					/>
			</g>
		</g>
		<g id="XMLID_135_">
			<g id="XMLID_136_">
				<path id="XMLID_137_" class="st1" d="M31.5,396.5c4.6-2.2,7.9-1.7,9.4,1.3c1.2,2.6-0.4,5.6-4.8,7.7c-4.5,2.1-8,1.4-9.2-1.4
					C25.4,401.3,27.2,398.5,31.5,396.5z M35.2,403.7c3.5-1.7,5-3.7,4.2-5.3c-0.9-1.9-3.5-1.7-6.9-0.1c-3.3,1.6-5.1,3.4-4.2,5.3
					C29,405.2,31.5,405.4,35.2,403.7z"/>
			</g>
		</g>
		<g id="XMLID_131_">
			<g id="XMLID_132_">
				<path id="XMLID_133_" class="st1" d="M24,392.7L24,392.7l2.3,1.9l-1.3,1l-2.9-2.3l-0.7-1.6l13.8-5.8l0.8,1.8L24,392.7z"/>
			</g>
		</g>
		<g id="XMLID_126_">
			<g id="XMLID_127_">
				<path id="XMLID_128_" class="st1" d="M22.7,374.2c4.8-1.8,8.1-1,9.2,2.2c1,2.7-0.9,5.5-5.5,7.3c-4.7,1.7-8,0.7-9.1-2.2
					C16.2,378.5,18.2,375.9,22.7,374.2z M25.7,381.8c3.6-1.3,5.3-3.2,4.7-5c-0.7-1.9-3.3-2-6.9-0.7c-3.5,1.3-5.4,3-4.7,5
					C19.4,382.7,21.9,383.2,25.7,381.8z"/>
			</g>
		</g>
		<g id="XMLID_121_">
			<g id="XMLID_122_">
				<path id="XMLID_123_" class="st1" d="M19,362.9c4.8-1.5,8.1-0.6,9.1,2.6c0.9,2.8-1.1,5.5-5.8,7c-4.8,1.5-8.1,0.3-9-2.6
					C12.4,366.9,14.5,364.3,19,362.9z M21.7,370.5c3.7-1.2,5.4-3,4.9-4.7c-0.6-2-3.2-2.2-6.9-1c-3.5,1.1-5.5,2.8-4.9,4.7
					C15.4,371.2,17.8,371.8,21.7,370.5z"/>
			</g>
		</g>
		<g id="XMLID_116_">
			<g id="XMLID_117_">
				<path id="XMLID_118_" class="st1" d="M15.9,351.3c4.9-1.3,8.1-0.2,9,3c0.8,2.8-1.4,5.4-6.1,6.8c-4.8,1.3-8.1,0-8.9-3
					C9,355,11.3,352.6,15.9,351.3z M18.2,359.1c3.8-1,5.6-2.8,5.1-4.5c-0.5-2-3.1-2.3-6.8-1.3c-3.6,1-5.6,2.5-5.1,4.5
					C11.9,359.5,14.3,360.2,18.2,359.1z"/>
			</g>
		</g>
		<g id="XMLID_111_">
			<g id="XMLID_112_">
				<path id="XMLID_113_" class="st1" d="M13.2,339.6c5-1.1,8.1,0.1,8.8,3.3c0.6,2.8-1.6,5.4-6.4,6.5c-4.9,1.1-8.1-0.4-8.7-3.4
					C6.2,343.1,8.6,340.7,13.2,339.6z M15.2,347.5c3.8-0.9,5.7-2.5,5.3-4.3c-0.5-2-3-2.5-6.8-1.6c-3.6,0.8-5.7,2.3-5.3,4.3
					C8.8,347.6,11.2,348.4,15.2,347.5z"/>
			</g>
		</g>
		<g id="XMLID_107_">
			<g id="XMLID_108_">
				<path id="XMLID_109_" class="st1" d="M6.7,334.3L6.7,334.3l1.8,2.4l-1.4,0.7l-2.3-2.9l-0.3-1.7l14.7-2.6l0.3,1.9L6.7,334.3z"/>
			</g>
		</g>
		<g id="XMLID_103_">
			<g id="XMLID_104_">
				<path id="XMLID_105_" class="st1" d="M4.8,322.2L4.8,322.2l1.7,2.4L5,325.3l-2.2-3l-0.2-1.7l14.8-2l0.3,1.9L4.8,322.2z"/>
			</g>
		</g>
		<g id="XMLID_99_">
			<g id="XMLID_100_">
				<path id="XMLID_101_" class="st1" d="M3.4,310.1L3.4,310.1l1.6,2.5l-1.5,0.5l-2-3.1l-0.2-1.7l14.9-1.4l0.2,1.9L3.4,310.1z"/>
			</g>
		</g>
		<g id="XMLID_94_">
			<g id="XMLID_95_">
				<path id="XMLID_96_" class="st1" d="M7.6,292.2c5.1-0.2,8,1.5,8.1,4.8c0.1,2.9-2.5,5-7.4,5.3c-5,0.2-7.9-1.8-8-4.8
					C0.2,294.3,2.9,292.4,7.6,292.2z M8.3,300.3c3.9-0.2,6-1.5,5.9-3.3c-0.1-2.1-2.6-2.9-6.4-2.8c-3.7,0.2-6,1.2-5.9,3.3
					C2,299.3,4.2,300.5,8.3,300.3z"/>
			</g>
		</g>
		<g id="XMLID_89_">
			<g id="XMLID_90_">
				<path id="XMLID_91_" class="st1" d="M7.5,280.3c5.1-0.1,7.9,1.8,8,5.1c0,2.9-2.7,4.9-7.6,5.1c-5,0.1-7.8-2-7.9-5.1
					C0,282.2,2.7,280.3,7.5,280.3z M7.8,288.4c3.9-0.1,6.1-1.3,6-3.1c0-2.1-2.5-3-6.3-3c-3.7,0.1-6.1,1-6,3.1
					C1.6,287.2,3.8,288.4,7.8,288.4z"/>
			</g>
		</g>
		<g id="XMLID_84_">
			<g id="XMLID_85_">
				<path id="XMLID_86_" class="st1" d="M7.9,268.3c5.1,0.2,7.8,2.2,7.7,5.5c-0.1,2.9-2.9,4.8-7.9,4.7c-5-0.2-7.7-2.4-7.6-5.5
					C0.3,269.8,3.2,268.1,7.9,268.3z M7.9,276.4c3.9,0.1,6.1-1,6.2-2.8c0.1-2.1-2.3-3.1-6.1-3.3c-3.7-0.1-6.1,0.7-6.2,2.8
					C1.7,274.9,3.8,276.2,7.9,276.4z"/>
			</g>
		</g>
		<g id="XMLID_80_">
			<g id="XMLID_81_">
				<path id="XMLID_82_" class="st1" d="M3,261.4L3,261.4l1.2,2.7l-1.6,0.3L1.1,261l0.1-1.7l14.9,1.2l-0.2,1.9L3,261.4z"/>
			</g>
		</g>
		<g id="XMLID_75_">
			<g id="XMLID_76_">
				<path id="XMLID_77_" class="st1" d="M10.3,244.4c5,0.6,7.6,2.8,7.2,6.1c-0.4,2.9-3.3,4.5-8.2,4c-5-0.6-7.5-3.1-7.1-6.1
					C2.6,245.3,5.6,243.8,10.3,244.4z M9.5,252.5c3.9,0.5,6.2-0.4,6.4-2.3c0.3-2.1-2-3.3-5.8-3.8c-3.7-0.5-6.2,0.2-6.4,2.3
					C3.5,250.5,5.5,252,9.5,252.5z"/>
			</g>
		</g>
		<g id="XMLID_71_">
			<g id="XMLID_72_">
				<path id="XMLID_73_" class="st1" d="M6,237.2L6,237.2l0.9,2.8l-1.6,0.1l-1.2-3.5l0.3-1.7l14.7,2.5l-0.3,1.9L6,237.2z"/>
			</g>
		</g>
		<g id="XMLID_66_">
			<g id="XMLID_67_">
				<path id="XMLID_68_" class="st1" d="M14.7,220.9c5,1.1,7.3,3.5,6.6,6.7c-0.6,2.9-3.7,4.2-8.5,3.2c-4.9-1-7.2-3.7-6.5-6.7
					C6.9,221.1,10,219.9,14.7,220.9z M13.2,228.9c3.8,0.8,6.2,0.1,6.6-1.7c0.4-2-1.7-3.5-5.5-4.3c-3.6-0.8-6.2-0.3-6.6,1.7
					C7.4,226.3,9.2,228,13.2,228.9z"/>
			</g>
		</g>
		<g id="XMLID_62_">
			<g id="XMLID_63_">
				<path id="XMLID_64_" class="st1" d="M11,213.3L11,213.3l0.7,2.9l-1.6,0l-0.9-3.6l0.4-1.7l14.5,3.7l-0.5,1.9L11,213.3z"/>
			</g>
		</g>
		<g id="XMLID_57_">
			<g id="XMLID_58_">
				<path id="XMLID_59_" class="st1" d="M21.1,197.9c4.9,1.5,7,4.1,6,7.3c-0.9,2.8-4,3.9-8.8,2.5c-4.8-1.5-6.8-4.3-5.9-7.2
					C13.3,197.4,16.5,196.5,21.1,197.9z M18.9,205.7c3.7,1.1,6.2,0.6,6.7-1.1c0.6-2-1.4-3.6-5.1-4.7c-3.5-1.1-6.1-0.9-6.7,1.1
					C13.4,202.6,15.1,204.5,18.9,205.7z"/>
			</g>
		</g>
		<g id="XMLID_53_">
			<g id="XMLID_54_">
				<path id="XMLID_55_" class="st1" d="M18.1,190L18.1,190l0.4,3l-1.6-0.1l-0.6-3.7l0.6-1.6l14.1,5l-0.7,1.8L18.1,190z"/>
			</g>
		</g>
		<g id="XMLID_48_">
			<g id="XMLID_49_">
				<path id="XMLID_50_" class="st1" d="M29.5,175.5c4.7,1.9,6.6,4.7,5.4,7.8c-1.1,2.7-4.4,3.5-9,1.7c-4.6-1.9-6.4-4.9-5.3-7.7
					C21.8,174.3,25.1,173.7,29.5,175.5z M26.7,183.1c3.6,1.5,6.1,1.2,6.8-0.5c0.8-1.9-1.1-3.7-4.6-5.2c-3.4-1.4-6-1.4-6.8,0.5
					C21.4,179.5,22.9,181.5,26.7,183.1z"/>
			</g>
		</g>
		<g id="XMLID_43_">
			<g id="XMLID_44_">
				<path id="XMLID_45_" class="st1" d="M34.5,164.5c4.6,2.1,6.4,5,5,8c-1.2,2.7-4.5,3.3-9,1.3c-4.6-2.1-6.2-5.2-4.9-8
					C26.8,163,30.1,162.6,34.5,164.5z M31.3,172c3.5,1.6,6,1.4,6.8-0.2c0.9-1.9-0.9-3.8-4.4-5.4c-3.3-1.5-5.9-1.7-6.8,0.2
					C26.2,168.3,27.6,170.3,31.3,172z"/>
			</g>
		</g>
		<g id="XMLID_38_">
			<g id="XMLID_39_">
				<path id="XMLID_40_" class="st1" d="M39.9,153.9c4.5,2.3,6.2,5.3,4.7,8.2c-1.3,2.6-4.7,3.1-9.1,0.9c-4.5-2.3-5.9-5.5-4.6-8.2
					C32.3,152,35.6,151.7,39.9,153.9z M36.4,161.2c3.5,1.8,6,1.7,6.8,0.1c0.9-1.8-0.8-3.8-4.2-5.6c-3.3-1.7-5.9-1.9-6.8-0.1
					C31.4,157.2,32.7,159.4,36.4,161.2z"/>
			</g>
		</g>
		<g id="XMLID_33_">
			<g id="XMLID_34_">
				<path id="XMLID_35_" class="st1" d="M45.7,143.4c4.4,2.5,5.9,5.5,4.3,8.4c-1.4,2.5-4.8,2.9-9.1,0.5c-4.4-2.5-5.7-5.7-4.2-8.4
					C38.2,141.3,41.6,141.1,45.7,143.4z M41.9,150.6c3.4,1.9,5.9,2,6.8,0.4c1-1.8-0.6-3.9-3.9-5.7c-3.2-1.8-5.8-2.2-6.8-0.4
					C37.1,146.4,38.4,148.6,41.9,150.6z"/>
			</g>
		</g>
		<g id="XMLID_28_">
			<g id="XMLID_29_">
				<path id="XMLID_30_" class="st1" d="M52,133.3c4.3,2.7,5.7,5.8,3.9,8.6c-1.5,2.5-4.9,2.7-9.1,0.1c-4.3-2.7-5.4-6-3.8-8.5
					C44.7,130.8,48,130.7,52,133.3z M47.9,140.3c3.3,2.1,5.8,2.2,6.8,0.7c1.1-1.8-0.4-3.9-3.7-5.9c-3.1-2-5.7-2.4-6.8-0.7
					C43.3,135.9,44.5,138.1,47.9,140.3z"/>
			</g>
		</g>
	</g>
</g>
</svg>
