<?xml version="1.0" encoding="utf-8"?>
<!-- Generator: Adobe Illustrator 22.0.0, SVG Export Plug-In . SVG Version: 6.00 Build 0)  -->
<svg version="1.1" id="Слой_1" xmlns="http://www.w3.org/2000/svg" xmlns:xlink="http://www.w3.org/1999/xlink" x="0px" y="0px"
	 viewBox="0 0 661.8 661.8" style="enable-background:new 0 0 661.8 661.8;" xml:space="preserve">
<style type="text/css">
	.st0{opacity:0.2;}
	.st1{fill:#23E5E0;}
	.st2{opacity:0.6;}
	.st3{opacity:0.8;}
	.st4{fill:#23E5E0;stroke:#01FFFF;stroke-width:17;stroke-miterlimit:10;}
	.st5{opacity:0.4;}
	.st6{fill:#23E5E0;stroke:#01FFFF;stroke-width:6;stroke-miterlimit:10;}
	.st7{fill:#FFFFFF;}
</style>
<g class="st0">
	<g>
		<g>
			<path class="st1" d="M330.9,661.8c-39.3,0-77.8-6.8-114.4-20.3c-35.4-13-68-31.9-97.1-56.1C60.9,536.7,20.7,469,6.2,394.7
				C2.1,373.8,0,352.4,0,330.9C0,266.3,18.6,203.8,53.8,150C115.2,56.1,218.8,0,330.9,0c88.4,0,171.5,34.4,234,96.9
				c62.5,62.5,96.9,145.6,96.9,234s-34.4,171.5-96.9,234S419.3,661.8,330.9,661.8z M330.9,26C227.6,26,132.2,77.7,75.5,164.2
				C43.1,213.8,26,271.4,26,330.9c0,19.8,1.9,39.6,5.7,58.9c27.9,142.5,153.7,246,299.2,246c168.1,0,304.9-136.8,304.9-304.9
				C635.8,162.8,499,26,330.9,26z"/>
		</g>
	</g>
</g>
<g class="st2">
	<g>
		<g class="st3">
			<path class="st1" d="M330.9,553.4c-59.4,0-115.3-23.1-157.3-65.2c-42-42-65.2-97.9-65.2-157.3c0-59.4,23.1-115.3,65.2-157.3
				c42-42,97.9-65.2,157.3-65.2s115.3,23.1,157.3,65.2c42,42,65.2,97.9,65.2,157.3c0,59.4-23.1,115.3-65.2,157.3
				C446.2,530.2,390.3,553.4,330.9,553.4z M330.9,111.4c-121,0-219.5,98.5-219.5,219.5c0,121,98.5,219.5,219.5,219.5
				s219.5-98.5,219.5-219.5C550.4,209.9,451.9,111.4,330.9,111.4z"/>
		</g>
	</g>
</g>
<g>
	<g>
		<g>
			<path class="st4" d="M173.6,222.7"/>
		</g>
	</g>
</g>
<g>
	<g>
		<g>
			<path class="st4" d="M234.2,495.4"/>
		</g>
	</g>
</g>
<g>
	<g>
		<g>
			<path class="st4" d="M521.7,330.9"/>
		</g>
	</g>
</g>
<g>
	<g>
		<g>
			<path class="st4" d="M514.6,279"/>
		</g>
	</g>
</g>
<g>
	<g>
		<g class="st5">
			<path class="st1" d="M330.9,505.9c-96.5,0-175-78.5-175-175c0-96.5,78.5-175,175-175s175,78.5,175,175
				C505.9,427.4,427.4,505.9,330.9,505.9z M330.9,159.9c-94.3,0-171,76.7-171,171s76.7,171,171,171s171-76.7,171-171
				S425.2,159.9,330.9,159.9z"/>
		</g>
	</g>
</g>
<g>
	<g>
		<g>
			<path class="st6" d="M202.1,471.8"/>
		</g>
	</g>
</g>
<g class="st2">
	<g>
		<path class="st1" d="M393.3,239.1c0-3,0.4-5.9,1.1-8.6c-20.7-3.5-48.3-6.6-63.6-6.6c-14.8,0-41.1,2.9-61.6,6.3
			c0.8,2.9,1.2,5.9,1.2,9c0,18-14.1,32.7-31.9,33.6c2.2,29.7,9.8,70.1,18.9,91.9c14.9,36.1,66.6,67.9,73.5,73.5
			c6.8-5.6,58.5-37.3,73.4-73.5c9-21.8,16.7-62.3,18.9-92C406.4,270.6,393.3,256.4,393.3,239.1z M398.3,325.6
			c-2.9,13-6.2,24.5-9.5,32.5c-9.9,24-41.9,47.9-57.9,59.2c0,0,0,0,0,0c-15.9-11.3-48-35.2-57.9-59.2c-3.3-7.9-6.6-19.5-9.5-32.5
			c-2.8-12.7-5.2-26.7-6.8-40.1c16.5-7,28.4-22.6,30.3-41c17-2.3,33.9-3.8,43.9-3.8c0,0,0,0,0,0c10.3,0,28.4,1.7,45.9,4.1
			c2,17.5,12.9,32.5,28.3,39.8C403.6,298.2,401.1,312.6,398.3,325.6z"/>
	</g>
</g>
<g class="st2">
	<g>
		<path class="st7" d="M359.3,323.1c-2-2.6-5-4.3-9-5.3c5.1-2.6,7.3-7,6.7-13.2c-0.2-2.3-0.8-4.2-1.9-5.9c-1-1.7-2.5-3-4.2-4
			c-1.8-1-3.7-1.8-5.8-2.3c-2.1-0.5-4.5-0.9-7.2-1.2v-12.9H330v12.6c-1.4,0-3.5,0-6.3,0.1v-12.7h-7.9v12.9c-1.1,0-2.8,0.1-5,0.1
			l-10.9-0.1v8.4h5.7c2.6,0,4.1,1.2,4.6,3.5v14.7c0.3,0,0.6,0,0.8,0.1h-0.8v20.6c-0.3,1.7-1.3,2.6-3,2.6h-5.7l-1.6,9.4h10.3
			c0.7,0,1.6,0,2.8,0c1.2,0,2.2,0,2.8,0v13.1h7.9v-12.9c1.4,0,3.5,0.1,6.3,0.1v12.9h7.9v-13.1c2.8-0.1,5.3-0.4,7.5-0.8
			c2.2-0.4,4.3-1,6.2-1.8c2-0.8,3.6-1.8,5-3c1.3-1.2,2.4-2.7,3.3-4.6c0.9-1.8,1.4-4,1.7-6.4C362.1,329.3,361.3,325.7,359.3,323.1
			L359.3,323.1z M323.9,300.2c0.2,0,0.9,0,2,0c1.1,0,2,0,2.8-0.1c0.7,0,1.7,0,3,0.1c1.3,0.1,2.3,0.2,3.2,0.4
			c0.9,0.2,1.8,0.5,2.8,0.8c1,0.4,1.8,0.9,2.5,1.4c0.6,0.6,1.1,1.3,1.6,2.2c0.4,0.9,0.6,1.9,0.6,3c0,1-0.2,1.8-0.5,2.6
			c-0.3,0.8-0.8,1.4-1.4,2c-0.6,0.5-1.2,1-1.9,1.4c-0.7,0.4-1.5,0.7-2.5,1c-1,0.2-1.9,0.4-2.6,0.6c-0.8,0.1-1.7,0.2-2.8,0.3
			c-1.1,0-2,0.1-2.6,0.1c-0.6,0-1.4,0-2.4,0c-1,0-1.6,0-1.8,0L323.9,300.2L323.9,300.2z M345.5,335.2c-0.3,0.8-0.7,1.5-1.3,2.1
			c-0.5,0.6-1.2,1.1-2,1.5c-0.8,0.4-1.7,0.8-2.4,1.1c-0.8,0.3-1.7,0.5-2.8,0.7c-1.1,0.2-2.1,0.4-2.9,0.4c-0.8,0.1-1.8,0.2-3,0.2
			c-1.2,0-2.1,0.1-2.7,0.1c-0.7,0-1.5,0-2.5,0c-1,0-1.6,0-1.9,0v-17.3c0.3,0,1.1,0,2.4-0.1c1.4,0,2.5,0,3.3,0s2,0,3.5,0.2
			c1.5,0.1,2.8,0.3,3.8,0.5c1,0.2,2.1,0.5,3.4,1c1.2,0.4,2.2,0.9,3,1.6c0.8,0.6,1.4,1.4,1.9,2.4c0.5,1,0.8,2.1,0.8,3.3
			C346,333.5,345.8,334.4,345.5,335.2L345.5,335.2z M345.5,335.2"/>
	</g>
</g>
</svg>
