<?xml version="1.0" encoding="utf-8"?>
<!-- Generator: Adobe Illustrator 22.0.0, SVG Export Plug-In . SVG Version: 6.00 Build 0)  -->
<svg version="1.1" id="Слой_1" xmlns="http://www.w3.org/2000/svg" xmlns:xlink="http://www.w3.org/1999/xlink" x="0px" y="0px"
	 viewBox="0 0 986.7 73.2" style="enable-background:new 0 0 986.7 73.2;" xml:space="preserve">
<style type="text/css">
	.st0{fill:#23E5E0; opacity:0.5;}
</style>
<g>
	<g>
		<path class="st0" d="M375.5,18.2c-0.4,2-0.7,4-1.1,6c-1.6,7.7-3.2,15.4-4.8,23.1c-0.4,2.1-0.9,4.3-1,6.4c-0.2,2.7,0.5,3.3,3.3,3.6
			c-0.1,0.5-0.2,0.9-0.3,1.4c-3.9,0-7.8,0-12.3,0c0.5-0.7,0.7-1.4,1.1-1.5c2.4-0.6,3.1-2.6,3.5-4.6c2.5-11.1,5-22.3,7.4-33.5
			c0.3-1.2,0.2-2.4,0.2-3.6c0-2.1-1.5-2.6-3.2-2.8c0-1.2,0.4-1.9,1.7-1.8c2.8,0.1,5.6,0.1,8.4,0c1,0,1.4,0.3,1.7,1.3
			c3.5,10.5,7.1,21,10.6,31.6c0.5,1.4,0.8,2.9,1.6,4.3c0.6-2.8,1.2-5.6,1.8-8.5c1.4-6.4,2.7-12.9,4.1-19.3c0.3-1.3,0.5-2.5,0.6-3.8
			c0.1-2.9-0.4-3.5-3.5-3.9c0.2-0.6,0.3-1.1,0.5-1.8c4,0,7.9,0,12.4,0c-0.6,0.9-0.9,1.8-1.4,1.9c-2.1,0.6-2.8,2.3-3.2,4
			c-2.9,12.6-5.6,25.2-8.3,37.8c-0.3,1.3-0.6,2.6-1,3.9c0,0-0.2,0.1-0.3,0.1c-4.5,0.2-4.6,0.2-6.1-4.2c-3.1-9.2-6.2-18.4-9.3-27.6
			c-0.9-2.8-1.7-5.7-2.5-8.6C375.8,18.2,375.7,18.2,375.5,18.2z"/>
		<path class="st0" d="M788.4,48c1.1-5.4,2.2-10.7,3.3-16.1c0.8-3.9,1.7-7.9,2.6-11.8c0.2-1.1,0.4-2.1,0.5-3.2
			c0.3-3.1-0.3-3.8-3.5-4.4c0.2-0.5,0.3-1.1,0.5-1.7c3.9,0,7.8,0,12.4,0c-0.7,0.9-1,1.9-1.6,2c-2.1,0.5-2.7,2.3-3.1,3.9
			c-1.5,5.8-2.7,11.7-4,17.5c-1.4,6.3-2.8,12.6-4.1,18.9c-0.4,1.7-0.7,3.5-1.2,5.5c-1.3,0-2.6,0.1-4-0.1c-0.5-0.1-1.1-0.7-1.3-1.3
			c-2.1-6.1-4.2-12.2-6.3-18.3c-2.3-6.9-4.6-13.9-7.1-21.3c-0.4,2.4-0.8,4.3-1.2,6.3c-1.6,7.8-3.3,15.5-4.9,23.2
			c-0.4,2-0.8,4-0.9,6.1c-0.2,3,0.4,3.5,3.8,3.9c-0.8,0.6-1.2,1.3-1.7,1.3c-3.6,0.1-7.3,0.1-11.3-0.4c0.4-0.4,0.6-1,1.1-1.1
			c1.7-0.5,2.6-1.8,3-3.4c1.4-5.6,2.7-11.3,3.9-17c1.3-5.9,2.6-11.7,3.8-17.6c0.3-1.2,0.1-2.5,0.2-3.8c0-2.1-1.5-2.4-3.2-2.7
			c0-1.3,0.4-1.9,1.8-1.8c2.7,0.1,5.5,0,8.2,0c0.9,0,1.4,0.2,1.8,1.3c3.5,10.5,7.1,21.1,10.6,31.6c0.5,1.4,0.8,2.9,1.3,4.4
			C788.1,48.1,788.2,48,788.4,48z"/>
		<path class="st0" d="M206.2,58.6c-5.1,0-9.7,0-14.9,0c0.6-0.7,0.9-1.3,1.3-1.5c2.3-1.1,3.1-2.6,2.3-5.1c-1.3-4.4-2.7-8.8-4.1-13.5
			c-2.2,2.7-4.2,5.1-6.2,7.6c-1.4,1.8-2.8,3.5-3.9,5.4c-0.7,1.1-0.9,2.5-1.1,3.8c-0.1,0.4,0.6,1,1,1.5c0.4,0.5,0.8,0.9,1.2,1.4
			c-0.1,0.2-0.3,0.3-0.4,0.5c-4.2,0-8.4,0-13.1,0c0.4-0.7,0.6-1.2,1-1.6c2.2-2.1,4.6-4.1,6.6-6.4c3.3-3.6,6.3-7.5,9.4-11.2
			c1-1.1,2-2.2,2.9-3.4c0.4-0.5,0.7-1.5,0.5-2c-2.2-6.1-4.4-12.2-6.8-18.3c-0.4-0.9-1.4-1.6-2.1-2.4c-0.4-0.5-0.7-1.1-1-1.6
			c0.5-0.3,1-0.8,1.5-0.8c4.2-0.1,8.5,0,12.7,0c-0.1,0.7-0.2,1.2-0.3,1.8c-3.2,1-3.9,2.1-2.8,6.4c0.9,3.7,2.3,7.3,3.5,11.2
			c2.4-3.1,4.7-6,6.9-8.9c1-1.4,2.1-2.8,2.9-4.3c1.2-2.2,0.7-3.6-2.3-4.8c0.9-0.6,1.5-1.4,2.1-1.4c3.8-0.1,7.7-0.1,12.1-0.1
			c-0.5,0.9-0.8,1.5-1.2,2c-2.7,2.7-5.5,5.3-8,8.1c-3.1,3.4-5.9,7.2-8.9,10.7c-1.2,1.4-1.9,2.5-1,4.5c2.3,5.8,4.2,11.8,6.5,17.6
			c0.4,1.1,1.7,2,2.5,3C205.3,57.2,205.6,57.8,206.2,58.6z"/>
		<path class="st0" d="M522.5,10.8c0-1.5,0.6-1.9,2.1-1.9c3,0.1,5.9,0,9.1,0c-0.7,3.1-1.4,6.4-2.2,9.7c-2,9.2-4.1,18.4-6.1,27.7
			c-0.5,2.1-0.9,4.3-1.1,6.4c-0.1,0.7,0.5,1.9,1.1,2.1c0.8,0.3,2.1,0.2,2.8-0.3c1.3-0.9,2.3-2.1,3.6-3.3c0.6,0.6,1.2,1.1,2,1.9
			c-1.7,1.5-3.4,3.1-5.1,4.5c-1.9,1.5-4.1,1.8-6.4,1.5c-2.2-0.3-4.1-3.8-3.4-6.5c0.2-0.9,0.5-1.8,0.9-3.2c-2.3,2.5-4.1,4.8-6.2,6.8
			c-2.5,2.4-5.5,3.6-9.2,2.6c-2.9-0.8-5.2-3.4-5.6-6.4c-1-7.1,0.3-13.8,4.4-19.6c4.7-6.6,10.9-9.4,19.4-6.3c0.5,0.2,0.9,0.3,1.5,0.5
			c0.9-4.1,1.7-8,2.5-11.9C527.1,12.3,525.9,11,522.5,10.8z M504.6,47.8c0,0.8-0.1,1.7,0,2.5c0.6,4.1,3.7,6.1,7.3,3.5
			c7.7-5.5,10.1-13.6,9.8-22.7c0-1.1-1.7-2.7-2.8-2.9c-2.9-0.6-5.7,0-8,2.3C506.2,35.4,505,41.4,504.6,47.8z"/>
		<path class="st0" d="M920.6,26.8c0.8-3.9,1.7-7.8,2.5-11.7c0.6-2.9-0.7-4.3-3.9-4.4c0.2-1.9,0.2-1.9,1.9-1.9c3,0,5.9,0,9.1,0
			c-0.2,1.1-0.5,2.5-0.8,3.8c-2.7,12-5.5,24-8.1,36c-0.3,1.3-0.5,2.7-0.4,4c0,0.8,0.6,1.9,1.1,2.1c0.7,0.3,2,0.2,2.6-0.3
			c1.3-0.9,2.4-2.1,3.7-3.4c0.6,0.5,1.2,1.1,2,1.9c-1.8,1.6-3.4,3.1-5.2,4.6c-1.9,1.5-4.2,1.7-6.4,1.4c-2.2-0.3-4-3.9-3.3-6.5
			c0.2-0.9,0.5-1.7,0.3-2.8c-0.8,1.1-1.6,2.2-2.4,3.2c-2.9,3.2-5.7,6.4-10.6,6.2c-3.6-0.1-6.9-3-7.4-6.6c-0.9-6,0-11.8,2.9-17.1
			c2.1-4,5-7.4,9.4-9c3.8-1.4,7.7-1.4,11.5,0.1c0.4,0.2,0.8,0.3,1.3,0.4C920.3,26.9,920.3,26.9,920.6,26.8z M901.1,47.7
			c0,0.8,0,1.6,0,2.4c0.1,1.9,0.9,3.8,2.5,4.5c1.5,0.6,3.3,0.5,4.9-0.7c7.5-5.7,9.9-13.6,9.6-22.6c0-1.1-1.6-2.8-2.7-3
			c-2.9-0.6-5.7,0-8,2.3C902.8,35.3,901.5,41.3,901.1,47.7z"/>
		<path class="st0" d="M14.6,58.6c-4.7,0-9.4,0-14.6,0c0.5-0.7,0.7-1.4,1.1-1.4c2.3-0.4,3-2.3,3.4-4c1.5-5.8,2.7-11.7,4-17.6
			c1.1-5.2,2.2-10.5,3.3-15.7c0.2-1.2,0.5-2.4,0.6-3.6c0.2-2.1-0.9-3.2-3.5-3.7c-0.1-1.3,0.5-1.8,1.8-1.8c4.1,0.1,8.3-0.3,12.3,0.1
			c3.8,0.3,7.7-0.1,11.3,1.9c3.7,2,5.4,6.2,4.9,10.4c-0.5,4-1.7,7.5-4.6,10.3c-3,2.8-6.7,4.2-10.8,4.5c-3,0.2-6,0.2-8.9,0.5
			c-0.5,0-1.2,0.9-1.3,1.4c-0.8,3.6-1.6,7.2-2.3,10.9c-0.3,1.5-0.3,3.2,0,4.7c0.1,0.7,1.4,1.2,2.1,1.8c0.5,0.3,1,0.6,1.5,0.9
			C14.8,58.2,14.7,58.4,14.6,58.6z M14.7,35.2c2.7,0,5.1,0.1,7.6,0c1.1-0.1,2.2-0.4,3.3-0.9c5.7-2.2,7.6-8.4,7.2-13.2
			c-0.3-3.3-1.8-5.7-5.3-6.3c-1.8-0.3-3.6-0.2-5.4-0.4c-2-0.2-2.9,0.3-3.3,2.5C17.6,22.9,16.1,28.9,14.7,35.2z"/>
		<path class="st0" d="M752.4,12c-0.7,3.5-1.4,6.4-2,9.4c-1.1,0-2.2,0-3.3,0c0-0.4-0.1-0.7-0.1-1.1c-1-6.2-7.6-8.6-12.7-4.8
			c-5.3,4-5.2,10.6,0.8,15c3.2,2.3,6.5,4.4,8.8,7.7c3.1,4.4,2.1,12.1-1.3,15.8c-3.3,3.6-7.3,5.1-12.1,5.2c-4.9,0.1-9.8-0.3-14.6-1.8
			c0.7-3.2,1.4-6.3,2.1-9.5c1.1,0,2.1,0,3,0c0.6,1.8,1.1,3.4,1.6,5c0.7,2,2.6,2.9,4.3,3.1c2.9,0.3,5.8,0.4,8.6-1.4
			c2.7-1.6,3.6-4,4-6.8c0.7-4.6-1.9-7.4-5.2-9.8c-3-2.3-6.1-4.3-8.3-7.7c-2.7-4.1-1.8-10,0.6-13.4c3.1-4.2,7.4-6.1,12.5-6
			C743.5,11,747.9,11.6,752.4,12z"/>
		<path class="st0" d="M227.3,44.1c0,2.1-0.1,4.3,0,6.5c0.2,2.6,2.1,3.9,4.7,4.1c4.4,0.3,7.9-1.1,11-4.2c0.4-0.4,1-0.7,1.7-1.1
			c0.6,0.7,1.2,1.3,1.8,1.9c-3.8,5.4-10.6,8.9-17.4,7.3c-5-1.2-7.1-3.6-7.7-8.6c-1-8.2,1.6-15.1,7.8-20.5c4.8-4.2,10.5-5.4,16.7-3.5
			c2.9,0.9,3.7,4.4,3.5,6.7c-0.5,6.8-5.6,8.9-11.1,10.1C234.9,43.7,231.2,43.7,227.3,44.1z M228.1,40.8c2.7-0.2,5.2-0.1,7.6-0.6
			c3.3-0.7,7.4-2.4,7.9-6.4c0.2-1.9,0.2-3.5-1.2-4.9c-1.4-1.3-3.1-0.9-4.5-0.4C232.1,30.4,230.1,35.4,228.1,40.8z"/>
		<path class="st0" d="M439.8,8c-1.9,0.9-3.1,1.4-4.3,2c-6.2,3.6-9.1,9.4-10.9,16c-1.6,6.1-1.5,12.4-1.1,18.6
			c0.4,5.7,1.8,11.3,5,16.3c2.3,3.5,5.2,6.1,9.1,7.6c0.5,0.2,0.9,0.4,1.4,0.6c-0.6,2.9-0.6,2.9-3.3,1.9c-10.6-4-15.7-12.3-17.4-23
			c-0.7-4.7-1.1-9.6-0.7-14.3c0.6-7.7,3.1-14.8,8.3-20.7c3-3.4,7-5.8,11.5-7C437.9,5.8,438.7,7.1,439.8,8z"/>
		<path class="st0" d="M835.8,8.2c-1.4,0.7-2.7,1.2-3.9,1.9c-6.2,3.5-9.2,9.2-10.7,15.8c-2.1,9.5-2.1,19.1,0.8,28.5
			c2,6.5,5.8,12,12.8,14.3c0.3,0.1,0.5,0.3,0.8,0.5c-0.7,2.9-0.7,2.8-3.3,1.8c-10.6-4-15.8-12.3-17.4-23c-0.7-4.7-1.1-9.6-0.8-14.3
			c0.5-7.7,3.1-14.8,8.2-20.7c3-3.4,7-5.8,11.4-7.1C835.7,5.4,835.1,7.3,835.8,8.2z"/>
		<path class="st0" d="M570.5,69.4c2.1-1.3,4.1-2.3,6-3.6c3.4-2.4,5.3-5.8,6.9-9.5c3.2-7.7,3.2-15.8,2.7-23.8
			c-0.4-5.8-1.8-11.5-5.4-16.4c-2.2-3-4.9-5.6-8.5-6.9c-1.8-0.6-2.2-1.6-1.2-2.7c0.3-0.3,1-0.6,1.4-0.5c6.8,2.3,12.1,6.5,15.4,13
			c3.1,6.2,4.4,12.6,4.4,19.5c0,6.9-1,13.6-4.2,19.8c-3.2,6.3-8.2,10.5-14.8,13C570.9,72.1,570.8,70.7,570.5,69.4z"/>
		<path class="st0" d="M965.1,69.4c2-1.2,4.1-2.3,5.9-3.6c3.4-2.3,5.4-5.8,6.9-9.5c2-5,2.8-10.4,2.8-15.8c0.1-6.3-0.2-12.5-2.4-18.5
			c-2.2-5.9-5.8-10.6-11.9-13c-1-0.4-1.9-0.7-1.2-2.2c0.6-1.3,1.3-0.9,2.3-0.6c4,1.2,7.3,3.5,10.2,6.3c3.1,3,4.9,6.8,6.5,10.8
			c2.5,6.4,2.8,13.1,2.3,19.8c-0.6,8.4-3.1,16.2-9.3,22.4c-2.6,2.6-5.9,4.3-9.3,5.7C966,72,965.2,71.3,965.1,69.4z"/>
		<path class="st0" d="M335.4,2.5c-1.9,0.2-3.9-0.1-5.5,0.6c-1.3,0.6-2.4,2.1-3.1,3.4C326,8.3,325,8.9,323,8.3
			c0.6-2.7,1.1-5.4,1.7-8.3c8.9,0,18,0,27.4,0c-0.5,2.2-1,4.4-1.5,6.6c-0.6,2.3-0.6,2.3-2.7,2.2c-0.6-1.9-0.6-4.4-1.9-5.4
			c-1.2-1.1-3.6-0.7-5.6-1c-1.3,5.7-2.5,11-3.7,16.3c-0.7,3.1-1.5,6.1-1.9,9.2c-0.3,2.5,0,2.7,3.2,3.2c-0.7,0.6-1.2,1.3-1.6,1.3
			c-3.4,0.1-6.7,0-10.4,0c0.3-0.6,0.4-1.3,0.7-1.4c3.4-0.6,3.1-3.6,3.7-5.8c1.6-6.2,2.9-12.6,4.3-18.9C334.9,5.2,335.1,4,335.4,2.5z
			"/>
		<path class="st0" d="M540.6,48c-0.1-0.2-0.2-0.2-0.2-0.3c-0.4-4.4-0.4-4.4,3.8-5.7c3.5-1,7-1.3,10.7-0.7c6.4,1.1,7.3,8.8,4.2,12.4
			c-2.8,3.3-5.9,6.2-8.9,9.4c-1.6,1.7-3.1,3.6-5,5.8c4.1,0,7.8,0.1,11.5-0.1c0.6,0,1.2-0.9,1.6-1.5c1.1-1.6,1-1.7,2.8-1.4
			c0,2,0.1,3.9-0.1,5.8c0,0.5-0.8,1.4-1.2,1.5c-6.7,0.1-13.4,0.1-20.9,0.1c1.6-2.6,2.7-5,4.3-7c3.2-3.9,6.8-7.5,10-11.3
			c2.7-3.2,3-6.3,1.3-9.2c-2-3.3-7.1-3.3-9.3-0.1C543.5,48.2,543.5,48.2,540.6,48z"/>
		<path class="st0" d="M936.9,50.2c-0.3-0.6-0.6-1.3-1-2.2c4.6-2.5,8.9-5.2,13.5-7.3c0,9,0,17.5,0,26c0,3.1,1,4.1,4.2,4.1
			c1,0,1.9,0,3.1,0c0,0.8,0.1,1.4,0.1,2.2c-6.5,0-13,0-19.5,0c0-0.7,0-1.4,0-2c1.7-0.2,3.3-0.4,4.8-0.5c1.8-0.2,2.5-1.6,2.5-3.1
			c0.1-5.9,0.1-11.9,0-17.8c0-2.1-1.1-2.8-3-1.9C940,48.5,938.5,49.4,936.9,50.2z"/>
		<path class="st0" d="M85.5,33.1c0-1.6,0-3,0-4.5c14.3,0,28.5,0,42.9,0c0,1.4,0,2.9,0,4.5C114.1,33.1,99.9,33.1,85.5,33.1z"/>
		<path class="st0" d="M489.2,36.1c0,1.6,0,3,0,4.5c-14.3,0-28.5,0-42.9,0c0-1.4,0-2.9,0-4.5C460.6,36.1,474.8,36.1,489.2,36.1z"/>
		<path class="st0" d="M678.7,36.1c0,1.5,0,3,0,4.5c-14.3,0-28.5,0-42.9,0c0-1.4,0-2.9,0-4.5C650,36.1,664.2,36.1,678.7,36.1z"/>
		<path class="st0" d="M885.7,36.1c0,1.6,0,3,0,4.5c-14.3,0-28.5,0-42.9,0c0-1.4,0-2.9,0-4.5C857.1,36.1,871.3,36.1,885.7,36.1z"/>
		<path class="st0" d="M85.5,48c0-1.6,0-3,0-4.5c14.3,0,28.5,0,42.9,0c0,1.4,0,2.9,0,4.5C114.1,48,99.9,48,85.5,48z"/>
		<path class="st0" d="M298.5,32.3c1.3-5.8,2.7-11.5,3.9-17.2c0.3-1.3,0.4-3.3-0.4-4c-1.3-1.2-2.6,0.5-3.8,1.2
			c-0.4,0.3-0.7,0.8-1.1,1.2c-0.7-0.5-1.2-1-1.9-1.6c1.5-1.3,3-2.7,4.6-3.9c1.8-1.2,4-1.5,5.8-0.2c1.7,1.1,1.8,3.1,1.3,5
			c0,0.1,0,0.3,0.1,0.8c3.5-4.1,7.2-7.6,13.3-6.1c-0.3,1.6-0.5,3.3-1,5c-0.3,1-2.8,0.8-3.3-0.1c-1.1-2-2.5-2.2-4.3-0.8
			c-3.5,2.9-5.5,6.7-6.4,11.1c-0.6,3.1-1.3,6.2-2,9.5C301.8,32.3,300.2,32.3,298.5,32.3z"/>
		<path class="st0" d="M261.2,19.7c0-1.3,0-2.4,0-3.7c9.6,0,19.2,0,28.8,0c0,1.2,0,2.4,0,3.7C280.4,19.7,270.9,19.7,261.2,19.7z"/>
	</g>
</g>
</svg>
