<?xml version="1.0" encoding="utf-8"?>
<!-- Generator: Adobe Illustrator 19.0.0, SVG Export Plug-In . SVG Version: 6.00 Build 0)  -->
<svg version="1.1" id="Слой_1" xmlns="http://www.w3.org/2000/svg" xmlns:xlink="http://www.w3.org/1999/xlink" x="0px" y="0px"
	 viewBox="0 0 661.8 661.8" style="enable-background:new 0 0 661.8 661.8;" xml:space="preserve">
<style type="text/css">
	.st0{opacity:0.4;}
	.st1{fill:#23E5E0;}
	.st2{opacity:0.2;}
	.st3{opacity:0.6;}
	.st4{opacity:0.8;}
	.st5{fill:#23E5E0;stroke:#01FFFF;stroke-width:17;stroke-miterlimit:10;}
	.st6{fill:#23E5E0;stroke:#01FFFF;stroke-width:6;stroke-miterlimit:10;}
	.st7{fill:#FFFFFF;}
</style>
<g>
	<g class="st0">
		<g>
			<g>
				<path class="st1" d="M115.3,160.8c4.1,3.1,5.2,6.3,3.2,8.9c-1.8,2.3-5.1,2.3-9.1-0.7c-4-3-4.9-6.4-3.1-8.8
					C108.2,157.7,111.5,157.9,115.3,160.8z M110.6,167.4c3.1,2.3,5.6,2.7,6.7,1.2c1.2-1.7-0.1-3.9-3.1-6.2c-2.9-2.2-5.4-2.9-6.7-1.2
					C106.4,162.7,107.3,165,110.6,167.4z"/>
			</g>
		</g>
		<g>
			<g>
				<path class="st1" d="M122.8,151.6c3.9,3.2,4.9,6.5,2.8,9c-1.9,2.3-5.2,2-9.1-1.1c-3.9-3.2-4.6-6.6-2.7-9
					C115.9,148.1,119.2,148.5,122.8,151.6z M117.9,158c3,2.5,5.5,3,6.6,1.5c1.3-1.6,0.1-3.9-2.9-6.3c-2.8-2.3-5.3-3.1-6.6-1.5
					C113.9,153,114.7,155.4,117.9,158z"/>
			</g>
		</g>
		<g>
			<g>
				<path class="st1" d="M123.1,143.1L123.1,143.1l-0.7,2.9l-1.4-0.7l0.9-3.6l1.2-1.3l11.1,10l-1.3,1.5L123.1,143.1z"/>
			</g>
		</g>
		<g>
			<g>
				<path class="st1" d="M131.4,134.2L131.4,134.2l-0.8,2.9l-1.4-0.8l1-3.6l1.2-1.2l10.7,10.5l-1.4,1.4L131.4,134.2z"/>
			</g>
		</g>
		<g>
			<g>
				<path class="st1" d="M147.9,125.9c3.5,3.7,4,7,1.6,9.3c-2.1,2-5.4,1.4-8.9-2.2c-3.4-3.7-3.7-7.2-1.5-9.2
					C141.4,121.6,144.6,122.4,147.9,125.9z M142.1,131.6c2.7,2.8,5,3.6,6.4,2.4c1.5-1.4,0.6-3.9-2-6.6c-2.5-2.7-4.9-3.8-6.4-2.4
					C138.8,126.1,139.3,128.6,142.1,131.6z"/>
			</g>
		</g>
		<g>
			<g>
				<path class="st1" d="M156.9,118c3.3,3.9,3.7,7.2,1.2,9.4c-2.2,1.9-5.5,1.1-8.8-2.6c-3.3-3.8-3.4-7.3-1.1-9.3
					C150.6,113.4,153.8,114.4,156.9,118z M150.9,123.5c2.5,3,4.9,3.8,6.3,2.6c1.6-1.3,0.7-3.8-1.7-6.7c-2.4-2.8-4.7-4-6.3-2.6
					C147.8,117.9,148.3,120.4,150.9,123.5z"/>
			</g>
		</g>
		<g>
			<g>
				<path class="st1" d="M166.3,110.6c3.1,4,3.4,7.4,0.8,9.4c-2.3,1.8-5.5,0.9-8.6-3c-3.1-3.9-3.1-7.4-0.7-9.3
					C160.2,105.7,163.4,106.8,166.3,110.6z M160.1,115.8c2.4,3.1,4.7,4.1,6.2,2.9c1.6-1.3,0.9-3.8-1.4-6.8c-2.3-2.9-4.5-4.2-6.2-2.9
					C157.2,110.1,157.6,112.6,160.1,115.8z"/>
			</g>
		</g>
		<g>
			<g>
				<path class="st1" d="M176,103.6c3,4.1,3.1,7.5,0.4,9.4c-2.4,1.7-5.6,0.6-8.5-3.4c-2.9-4.1-2.8-7.6-0.3-9.3
					C170.1,98.5,173.2,99.7,176,103.6z M169.5,108.5c2.3,3.2,4.5,4.3,6,3.2c1.7-1.2,1.1-3.7-1.2-6.8c-2.1-3-4.3-4.4-6-3.2
					C166.9,102.7,167.2,105.2,169.5,108.5z"/>
			</g>
		</g>
		<g>
			<g>
				<path class="st1" d="M178.4,95.5L178.4,95.5l-1.4,2.6l-1.2-1.1l1.8-3.3l1.4-0.9l8.2,12.5l-1.6,1.1L178.4,95.5z"/>
			</g>
		</g>
		<g>
			<g>
				<path class="st1" d="M188.7,89L188.7,89l-1.6,2.6l-1.1-1.1l1.9-3.2l1.5-0.9l7.6,12.8l-1.7,1L188.7,89z"/>
			</g>
		</g>
		<g>
			<g>
				<path class="st1" d="M199.3,83L199.3,83l-1.7,2.5l-1.1-1.2l2-3.1l1.5-0.8l7.1,13.2l-1.7,0.9L199.3,83z"/>
			</g>
		</g>
		<g>
			<g>
				<path class="st1" d="M217.5,79.9c2.2,4.6,1.7,7.9-1.3,9.4c-2.6,1.3-5.6-0.3-7.8-4.8c-2.2-4.5-1.4-7.9,1.3-9.3
					C212.6,73.9,215.5,75.6,217.5,79.9z M210.3,83.6c1.7,3.5,3.7,5,5.4,4.2c1.9-0.9,1.7-3.5,0-6.9c-1.6-3.3-3.5-5.1-5.4-4.2
					C208.8,77.5,208.5,80,210.3,83.6z"/>
			</g>
		</g>
		<g>
			<g>
				<path class="st1" d="M228.5,75.1c2,4.7,1.4,8-1.7,9.3c-2.7,1.2-5.6-0.6-7.6-5.1c-2-4.6-1.1-8,1.7-9.2
					C223.8,68.9,226.6,70.7,228.5,75.1z M221.1,78.5c1.5,3.6,3.5,5.1,5.2,4.4c1.9-0.8,1.9-3.4,0.3-6.9c-1.5-3.4-3.3-5.2-5.2-4.4
					C219.8,72.3,219.5,74.8,221.1,78.5z"/>
			</g>
		</g>
		<g>
			<g>
				<path class="st1" d="M239.7,70.8c1.8,4.8,1,8-2.1,9.2c-2.7,1-5.6-0.8-7.3-5.4c-1.8-4.7-0.7-8,2.1-9.1
					C235.3,64.4,238,66.4,239.7,70.8z M232.2,73.9c1.4,3.6,3.3,5.3,5,4.6c1.9-0.7,2-3.3,0.6-6.9c-1.3-3.4-3-5.4-5-4.6
					C231.1,67.7,230.7,70.1,232.2,73.9z"/>
			</g>
		</g>
		<g>
			<g>
				<path class="st1" d="M251,67c1.6,4.8,0.7,8.1-2.5,9.1c-2.8,0.9-5.5-1.1-7.1-5.7c-1.6-4.8-0.4-8.1,2.5-9
					C246.9,60.4,249.5,62.5,251,67z M243.4,69.8c1.2,3.7,3,5.4,4.8,4.8c2-0.6,2.1-3.3,0.9-6.9c-1.2-3.5-2.8-5.5-4.8-4.8
					C242.7,63.5,242.1,65.9,243.4,69.8z"/>
			</g>
		</g>
		<g>
			<g>
				<path class="st1" d="M255.7,60L255.7,60l-2.2,2.1l-0.8-1.4l2.7-2.6l1.7-0.5l4.1,14.4l-1.9,0.5L255.7,60z"/>
			</g>
		</g>
		<g>
			<g>
				<path class="st1" d="M267.5,57L267.5,57l-2.3,2l-0.7-1.4l2.8-2.5l1.7-0.4l3.4,14.5l-1.9,0.4L267.5,57z"/>
			</g>
		</g>
		<g>
			<g>
				<path class="st1" d="M285.9,58.7c1,5-0.4,8.1-3.6,8.7c-2.9,0.5-5.3-1.8-6.3-6.6c-0.9-4.9,0.7-8,3.7-8.6
					C282.7,51.6,285,54,285.9,58.7z M278,60.4c0.7,3.8,2.3,5.8,4.1,5.4c2-0.4,2.6-2.9,1.8-6.7c-0.7-3.6-2.1-5.8-4.1-5.4
					C278.1,54.1,277.2,56.4,278,60.4z"/>
			</g>
		</g>
		<g>
			<g>
				<path class="st1" d="M291.5,52.4L291.5,52.4l-2.4,1.8l-0.6-1.5l3-2.2l1.7-0.2l2.2,14.8l-1.9,0.3L291.5,52.4z"/>
			</g>
		</g>
		<g>
			<g>
				<path class="st1" d="M309.7,55.7c0.5,5.1-1.1,8-4.4,8.4c-2.9,0.3-5.2-2.2-5.7-7.1c-0.5-5,1.4-8,4.4-8.3
					C307.1,48.3,309.2,50.9,309.7,55.7z M301.6,56.7c0.4,3.9,1.8,5.9,3.6,5.8c2.1-0.2,2.8-2.7,2.4-6.5c-0.4-3.7-1.6-6-3.6-5.8
					C302.2,50.4,301.2,52.7,301.6,56.7z"/>
			</g>
		</g>
		<g>
			<g>
				<path class="st1" d="M315.7,49.8L315.7,49.8l-2.6,1.6l-0.5-1.5l3.2-1.9l1.7-0.1l0.9,14.9l-2,0.1L315.7,49.8z"/>
			</g>
		</g>
		<g>
			<g>
				<path class="st1" d="M333.5,54.7c0.1,5.1-1.8,7.9-5.1,8c-2.9,0-4.9-2.7-5.1-7.6c-0.1-5,2-7.8,5.1-7.9
					C331.6,47.2,333.5,50,333.5,54.7z M325.4,55.1c0.1,3.9,1.3,6.1,3.1,6c2.1,0,3-2.5,3-6.3c-0.1-3.7-1-6.1-3.1-6
					C326.6,48.8,325.4,51,325.4,55.1z"/>
			</g>
		</g>
		<g>
			<g>
				<path class="st1" d="M340.1,49.4L340.1,49.4l-2.7,1.3l-0.3-1.6l3.3-1.7l1.7,0l-0.4,14.9l-2-0.1L340.1,49.4z"/>
			</g>
		</g>
		<g>
			<g>
				<path class="st1" d="M357.5,55.8c-0.4,5.1-2.4,7.7-5.7,7.5c-2.9-0.2-4.7-3.1-4.4-8c0.3-5,2.7-7.6,5.7-7.4
					C356.2,48.1,357.8,51,357.5,55.8z M349.3,55.5c-0.3,3.9,0.8,6.2,2.6,6.3c2.1,0.1,3.2-2.2,3.5-6c0.3-3.7-0.5-6.1-2.6-6.3
					C351.1,49.3,349.6,51.4,349.3,55.5z"/>
			</g>
		</g>
		<g>
			<g>
				<path class="st1" d="M369.4,57.1c-0.6,5.1-2.8,7.6-6.1,7.3c-2.9-0.3-4.6-3.3-4-8.2c0.6-5,3-7.5,6-7.1
					C368.4,49.4,369.9,52.4,369.4,57.1z M361.3,56.4c-0.4,3.9,0.5,6.2,2.3,6.4c2.1,0.2,3.3-2.1,3.7-5.8c0.4-3.7-0.2-6.2-2.3-6.4
					C363.2,50.4,361.7,52.4,361.3,56.4z"/>
			</g>
		</g>
		<g>
			<g>
				<path class="st1" d="M381.2,58.9c-0.8,5-3.1,7.5-6.4,7c-2.9-0.5-4.4-3.5-3.7-8.4c0.8-5,3.3-7.3,6.3-6.9
					C380.6,51.2,381.9,54.2,381.2,58.9z M373.1,57.9c-0.6,3.8,0.2,6.2,2.1,6.5c2,0.3,3.4-1.9,4-5.7c0.6-3.6,0-6.2-2.1-6.5
					C375.3,51.9,373.7,53.9,373.1,57.9z"/>
			</g>
		</g>
		<g>
			<g>
				<path class="st1" d="M392.9,61.3c-1,5-3.4,7.4-6.7,6.7c-2.9-0.6-4.3-3.7-3.3-8.5c1-4.9,3.7-7.2,6.6-6.6
					C392.7,53.5,393.9,56.6,392.9,61.3z M384.9,59.9c-0.8,3.8,0,6.2,1.8,6.6c2,0.4,3.5-1.8,4.2-5.5c0.7-3.6,0.3-6.2-1.8-6.6
					C387.4,54,385.7,55.9,384.9,59.9z"/>
			</g>
		</g>
		<g>
			<g>
				<path class="st1" d="M400.5,57.5L400.5,57.5l-2.9,0.7l0-1.6l3.6-0.9l1.7,0.4l-3.6,14.5l-1.9-0.5L400.5,57.5z"/>
			</g>
		</g>
		<g>
			<g>
				<path class="st1" d="M412.2,60.7L412.2,60.7l-2.9,0.6l0.1-1.6l3.6-0.8l1.7,0.5l-4.2,14.3l-1.9-0.6L412.2,60.7z"/>
			</g>
		</g>
		<g>
			<g>
				<path class="st1" d="M423.9,64.4L423.9,64.4l-3,0.5l0.1-1.6l3.7-0.6l1.6,0.6l-4.9,14.1l-1.8-0.6L423.9,64.4z"/>
			</g>
		</g>
		<g>
			<g>
				<path class="st1" d="M438.5,75.6c-1.9,4.7-4.6,6.7-7.7,5.4c-2.7-1.1-3.6-4.3-1.8-9c1.8-4.7,4.9-6.4,7.7-5.3
					C439.6,67.9,440.2,71.2,438.5,75.6z M430.9,72.9c-1.4,3.6-1.1,6.1,0.6,6.8c1.9,0.8,3.7-1.1,5.1-4.7c1.3-3.4,1.4-6-0.6-6.8
					C434.3,67.5,432.4,69.1,430.9,72.9z"/>
			</g>
		</g>
		<g>
			<g>
				<path class="st1" d="M449.5,80.4c-2.1,4.6-4.9,6.4-8,5.1c-2.7-1.2-3.4-4.5-1.4-9c2-4.6,5.1-6.2,7.9-5
					C450.9,72.8,451.4,76.1,449.5,80.4z M441.9,77.4c-1.6,3.6-1.4,6.1,0.3,6.8c1.9,0.8,3.8-1,5.3-4.5c1.5-3.4,1.6-6-0.3-6.8
					C445.7,72.2,443.6,73.6,441.9,77.4z"/>
			</g>
		</g>
		<g>
			<g>
				<path class="st1" d="M460.2,85.7c-2.3,4.6-5.2,6.2-8.2,4.8c-2.6-1.3-3.2-4.6-1-9.1c2.2-4.5,5.4-6,8.1-4.6
					C462,78.2,462.3,81.5,460.2,85.7z M452.8,82.3c-1.7,3.5-1.6,6,0,6.8c1.9,0.9,3.8-0.8,5.5-4.2c1.6-3.3,1.9-5.9,0-6.8
					C456.8,77.3,454.6,78.7,452.8,82.3z"/>
			</g>
		</g>
		<g>
			<g>
				<path class="st1" d="M468.5,84.1L468.5,84.1l-3-0.1l0.4-1.5l3.7,0l1.5,0.8l-7.2,13.1l-1.7-0.9L468.5,84.1z"/>
			</g>
		</g>
		<g>
			<g>
				<path class="st1" d="M480.9,97.7c-2.7,4.3-5.7,5.7-8.5,4c-2.5-1.5-2.8-4.9-0.2-9.1c2.6-4.3,5.9-5.5,8.5-3.9
					C483.3,90.3,483.4,93.6,480.9,97.7z M473.9,93.7c-2,3.3-2.2,5.8-0.6,6.8c1.8,1.1,3.9-0.5,5.9-3.7c1.9-3.1,2.4-5.7,0.6-6.8
					C478.2,89,476,90.2,473.9,93.7z"/>
			</g>
		</g>
		<g>
			<g>
				<path class="st1" d="M489.3,96.7L489.3,96.7l-3-0.3l0.5-1.5l3.7,0.4l1.4,1l-8.3,12.4l-1.6-1.1L489.3,96.7z"/>
			</g>
		</g>
		<g>
			<g>
				<path class="st1" d="M500.5,111.4c-3,4.1-6.2,5.2-8.9,3.3c-2.4-1.7-2.3-5.1,0.6-9.1c3-4,6.4-5,8.8-3.2
					C503.6,104.2,503.4,107.6,500.5,111.4z M493.9,106.8c-2.3,3.1-2.7,5.6-1.2,6.7c1.7,1.2,3.9-0.1,6.2-3.2c2.2-3,2.9-5.5,1.2-6.7
					C498.6,102.5,496.3,103.5,493.9,106.8z"/>
			</g>
		</g>
		<g>
			<g>
				<path class="st1" d="M509,111.2L509,111.2l-2.9-0.6l0.7-1.4l3.6,0.7l1.3,1.1l-9.4,11.6l-1.5-1.2L509,111.2z"/>
			</g>
		</g>
		<g>
			<g>
				<path class="st1" d="M518.9,126.7c-3.4,3.8-6.6,4.7-9.1,2.5c-2.2-1.9-1.9-5.3,1.4-9c3.3-3.8,6.8-4.4,9-2.4
					C522.5,119.9,522,123.2,518.9,126.7z M512.6,121.5c-2.6,2.9-3.1,5.4-1.7,6.6c1.6,1.4,3.9,0.2,6.4-2.7c2.4-2.8,3.3-5.2,1.7-6.6
					C517.7,117.7,515.3,118.5,512.6,121.5z"/>
			</g>
		</g>
		<g>
			<g>
				<path class="st1" d="M527.3,127.2L527.3,127.2l-2.9-0.8l0.8-1.4l3.6,1l1.2,1.2L519.7,138l-1.4-1.4L527.3,127.2z"/>
			</g>
		</g>
		<g>
			<g>
				<path class="st1" d="M535.9,143.6c-3.7,3.5-7,4.1-9.3,1.7c-2-2.1-1.4-5.4,2.1-8.9c3.6-3.5,7.1-3.8,9.2-1.6
					C540.1,137.1,539.3,140.3,535.9,143.6z M530.1,137.9c-2.8,2.7-3.6,5.1-2.3,6.4c1.4,1.5,3.9,0.5,6.6-2.1c2.7-2.5,3.8-4.9,2.3-6.4
					C535.5,134.5,533,135.1,530.1,137.9z"/>
			</g>
		</g>
		<g>
			<g>
				<path class="st1" d="M543.8,152.6c-3.8,3.4-7.2,3.8-9.4,1.3c-1.9-2.2-1.2-5.5,2.5-8.8c3.8-3.3,7.3-3.5,9.3-1.2
					C548.3,146.2,547.4,149.4,543.8,152.6z M538.3,146.6c-2.9,2.6-3.8,4.9-2.6,6.3c1.4,1.6,3.8,0.7,6.7-1.8c2.8-2.4,4-4.7,2.6-6.3
					C543.8,143.5,541.3,143.9,538.3,146.6z"/>
			</g>
		</g>
		<g>
			<g>
				<path class="st1" d="M551.3,161.9c-4,3.2-7.3,3.5-9.4,0.9c-1.8-2.3-0.9-5.5,2.9-8.7c3.9-3.1,7.4-3.2,9.3-0.8
					C556.1,155.7,555,158.9,551.3,161.9z M546,155.7c-3,2.4-4,4.8-2.8,6.2c1.3,1.6,3.8,0.9,6.8-1.5c2.9-2.3,4.2-4.6,2.8-6.2
					C551.7,152.8,549.2,153.1,546,155.7z"/>
			</g>
		</g>
		<g>
			<g>
				<path class="st1" d="M558.4,171.5c-4.1,3-7.5,3.2-9.4,0.5c-1.7-2.4-0.7-5.6,3.3-8.5c4-3,7.5-2.9,9.3-0.4
					C563.5,165.6,562.3,168.7,558.4,171.5z M553.4,165.1c-3.1,2.3-4.2,4.6-3.1,6.1c1.2,1.7,3.8,1,6.8-1.2c3-2.2,4.3-4.4,3.1-6.1
					C559.2,162.4,556.7,162.7,553.4,165.1z"/>
			</g>
		</g>
		<g>
			<g>
				<path class="st1" d="M565.1,181.4c-4.2,2.8-7.6,2.8-9.4,0.1c-1.6-2.4-0.5-5.6,3.6-8.4c4.2-2.8,7.7-2.5,9.4,0
					C570.4,175.7,569.1,178.7,565.1,181.4z M560.4,174.8c-3.2,2.2-4.4,4.4-3.4,5.9c1.2,1.7,3.7,1.2,6.9-0.9c3.1-2.1,4.5-4.2,3.4-5.9
					C566.3,172.4,563.8,172.5,560.4,174.8z"/>
			</g>
		</g>
		<g>
			<g>
				<path class="st1" d="M571.4,191.6c-4.3,2.6-7.7,2.5-9.4-0.3c-1.5-2.5-0.2-5.6,4-8.2c4.3-2.6,7.8-2.2,9.3,0.4
					C576.9,186.1,575.5,189.1,571.4,191.6z M567,184.8c-3.3,2-4.6,4.2-3.6,5.8c1.1,1.8,3.7,1.4,6.9-0.6c3.1-1.9,4.7-4,3.6-5.8
					C573,182.6,570.4,182.6,567,184.8z"/>
			</g>
		</g>
		<g>
			<g>
				<path class="st1" d="M577.2,202.1c-4.5,2.5-7.8,2.2-9.4-0.7c-1.4-2.6,0-5.6,4.3-8c4.4-2.4,7.9-1.9,9.3,0.8
					C583,196.8,581.4,199.7,577.2,202.1z M573.1,195.1c-3.4,1.9-4.8,4-3.9,5.6c1,1.8,3.6,1.5,6.9-0.3c3.2-1.8,4.9-3.8,3.9-5.6
					C579.2,193.2,576.7,193.1,573.1,195.1z"/>
			</g>
		</g>
		<g>
			<g>
				<path class="st1" d="M582.6,212.7c-4.6,2.3-7.9,1.8-9.4-1.1c-1.3-2.6,0.3-5.6,4.7-7.8c4.5-2.2,7.9-1.5,9.3,1.2
					C588.6,207.8,586.8,210.6,582.6,212.7z M578.8,205.6c-3.5,1.7-4.9,3.8-4.1,5.4c0.9,1.9,3.5,1.7,6.9,0c3.3-1.6,5-3.6,4.1-5.4
					C584.9,204,582.4,203.8,578.8,205.6z"/>
			</g>
		</g>
		<g>
			<g>
				<path class="st1" d="M587.5,223.7c-4.6,2.1-8,1.5-9.3-1.6c-1.2-2.7,0.5-5.6,5-7.6c4.6-2,8-1.2,9.2,1.6
					C593.7,219,591.8,221.7,587.5,223.7z M584,216.3c-3.6,1.6-5.1,3.6-4.3,5.2c0.8,1.9,3.4,1.8,6.9,0.3c3.4-1.5,5.2-3.3,4.3-5.2
					C590.2,215,587.7,214.7,584,216.3z"/>
			</g>
		</g>
		<g>
			<g>
				<path class="st1" d="M591.9,234.8c-4.7,1.9-8,1.1-9.2-2c-1.1-2.7,0.8-5.6,5.3-7.4c4.7-1.8,8-0.8,9.1,2
					C598.3,230.4,596.3,233.1,591.9,234.8z M588.7,227.3c-3.6,1.4-5.2,3.3-4.6,5.1c0.8,1.9,3.4,2,6.9,0.6c3.4-1.3,5.3-3.1,4.6-5.1
					C595,226.2,592.5,225.8,588.7,227.3z"/>
			</g>
		</g>
		<g>
			<g>
				<path class="st1" d="M595.8,246.1c-4.8,1.6-8.1,0.8-9.1-2.4c-0.9-2.8,1-5.5,5.7-7.2c4.7-1.6,8.1-0.5,9,2.4
					C602.4,241.9,600.3,244.5,595.8,246.1z M592.9,238.5c-3.7,1.3-5.4,3.1-4.8,4.8c0.7,2,3.3,2.1,6.9,0.9c3.5-1.2,5.5-2.9,4.8-4.8
					C599.3,237.7,596.8,237.2,592.9,238.5z"/>
			</g>
		</g>
		<g>
			<g>
				<path class="st1" d="M599.2,257.6c-4.9,1.4-8.1,0.4-9-2.8c-0.8-2.8,1.2-5.5,6-6.9c4.8-1.4,8.1-0.1,8.9,2.8
					C606,253.7,603.8,256.2,599.2,257.6z M596.7,249.9c-3.7,1.1-5.5,2.9-5,4.6c0.6,2,3.2,2.3,6.8,1.2c3.5-1,5.6-2.6,5-4.6
					C603,249.3,600.6,248.7,596.7,249.9z"/>
			</g>
		</g>
		<g>
			<g>
				<path class="st1" d="M602.1,269.2c-4.9,1.2-8.1,0.1-8.9-3.2c-0.7-2.8,1.5-5.4,6.3-6.6c4.9-1.2,8.1,0.2,8.8,3.2
					C609,265.6,606.7,268,602.1,269.2z M600,261.4c-3.8,0.9-5.6,2.6-5.2,4.4c0.5,2,3.1,2.4,6.8,1.5c3.6-0.9,5.7-2.4,5.2-4.4
					C606.3,261.1,603.9,260.4,600,261.4z"/>
			</g>
		</g>
		<g>
			<g>
				<path class="st1" d="M604.5,280.9c-5,1-8.1-0.3-8.8-3.5c-0.6-2.9,1.7-5.3,6.5-6.4c4.9-1,8,0.6,8.6,3.6
					C611.6,277.6,609.2,280,604.5,280.9z M602.7,273c-3.8,0.8-5.7,2.4-5.4,4.2c0.4,2,3,2.5,6.7,1.8c3.6-0.7,5.8-2.1,5.4-4.2
					C609.1,273,606.7,272.2,602.7,273z"/>
			</g>
		</g>
		<g>
			<g>
				<path class="st1" d="M606.4,292.7c-5,0.8-8.1-0.6-8.6-3.9c-0.5-2.9,1.9-5.3,6.8-6.1c5-0.8,8,0.9,8.5,3.9
					C613.6,289.8,611.1,292,606.4,292.7z M605,284.7c-3.8,0.6-5.8,2.1-5.5,3.9c0.3,2,2.9,2.6,6.6,2.1c3.6-0.6,5.9-1.9,5.5-3.9
					C611.3,285,609,284.1,605,284.7z"/>
			</g>
		</g>
		<g>
			<g>
				<path class="st1" d="M607.8,304.6c-5.1,0.6-8.1-1-8.4-4.3c-0.3-2.9,2.2-5.2,7.1-5.8c5-0.6,8,1.3,8.3,4.3
					C615.1,302,612.5,304.1,607.8,304.6z M606.7,296.6c-3.9,0.4-5.9,1.9-5.7,3.7c0.2,2.1,2.7,2.8,6.5,2.3c3.7-0.4,6-1.6,5.7-3.7
					C613,297.1,610.7,296.1,606.7,296.6z"/>
			</g>
		</g>
		<g>
			<g>
				<path class="st1" d="M608.7,316.5c-5.1,0.4-8-1.3-8.2-4.6c-0.2-2.9,2.4-5.1,7.3-5.5c5-0.3,7.9,1.6,8.1,4.7
					C616.1,314.2,613.4,316.2,608.7,316.5z M607.9,308.5c-3.9,0.3-6,1.6-5.9,3.5c0.1,2.1,2.6,2.9,6.4,2.6c3.7-0.3,6-1.4,5.9-3.4
					C614.2,309.3,612,308.2,607.9,308.5z"/>
			</g>
		</g>
		<g>
			<g>
				<path class="st1" d="M614.3,322.8L614.3,322.8l-1.5-2.6l1.5-0.4l1.8,3.2l0,1.7l-14.9,0.4l-0.1-2L614.3,322.8z"/>
			</g>
		</g>
		<g>
			<g>
				<path class="st1" d="M614.4,335L614.4,335l-1.4-2.7l1.5-0.4l1.7,3.3l0,1.7l-14.9-0.2l0-2L614.4,335z"/>
			</g>
		</g>
		<g>
			<g>
				<path class="st1" d="M608.2,352.4c-5.1-0.3-7.8-2.3-7.6-5.7c0.2-2.9,3-4.7,8-4.5c5,0.3,7.6,2.6,7.5,5.6
					C615.9,351.1,613,352.7,608.2,352.4z M608.5,344.3c-3.9-0.2-6.2,0.8-6.3,2.7c-0.1,2.1,2.2,3.2,6,3.4c3.7,0.2,6.1-0.6,6.3-2.7
					C614.6,345.9,612.5,344.5,608.5,344.3z"/>
			</g>
		</g>
		<g>
			<g>
				<path class="st1" d="M607.1,364.3c-5.1-0.5-7.7-2.7-7.3-6c0.3-2.9,3.2-4.6,8.1-4.1c5,0.5,7.5,2.9,7.2,6
					C614.8,363.3,611.8,364.8,607.1,364.3z M607.6,356.2c-3.9-0.4-6.2,0.6-6.4,2.4c-0.2,2.1,2.1,3.3,5.9,3.7
					c3.7,0.4,6.2-0.3,6.4-2.4C613.7,358.1,611.7,356.6,607.6,356.2z"/>
			</g>
		</g>
		<g>
			<g>
				<path class="st1" d="M605.4,376.1c-5-0.7-7.5-3-7.1-6.3c0.4-2.9,3.4-4.5,8.3-3.8c5,0.7,7.4,3.3,6.9,6.3
					C613.1,375.5,610.1,376.8,605.4,376.1z M606.3,368.1c-3.8-0.6-6.2,0.3-6.5,2.1c-0.3,2,1.9,3.4,5.7,3.9c3.6,0.5,6.2-0.1,6.5-2.1
					C612.3,370.3,610.3,368.7,606.3,368.1z"/>
			</g>
		</g>
		<g>
			<g>
				<path class="st1" d="M603.2,387.9c-5-1-7.4-3.3-6.8-6.6c0.5-2.9,3.6-4.3,8.5-3.4c4.9,0.9,7.2,3.6,6.7,6.6
					C610.9,387.6,607.8,388.8,603.2,387.9z M604.5,379.9c-3.8-0.7-6.2,0-6.6,1.8c-0.4,2,1.8,3.5,5.6,4.2c3.6,0.7,6.2,0.2,6.6-1.8
					C610.3,382.3,608.5,380.7,604.5,379.9z"/>
			</g>
		</g>
		<g>
			<g>
				<path class="st1" d="M607,395.4L607,395.4l-0.8-2.9l1.6,0l0.9,3.6l-0.4,1.7l-14.5-3.4l0.4-1.9L607,395.4z"/>
			</g>
		</g>
		<g>
			<g>
				<path class="st1" d="M597.2,411.1c-4.9-1.4-7.1-4-6.2-7.1c0.8-2.8,4-4,8.7-2.7c4.8,1.4,6.9,4.2,6.1,7.1
					C605,411.4,601.8,412.4,597.2,411.1z M599.2,403.2c-3.7-1.1-6.2-0.5-6.7,1.3c-0.6,2,1.5,3.6,5.2,4.6c3.5,1,6.1,0.8,6.7-1.3
					C604.9,406.1,603.1,404.3,599.2,403.2z"/>
			</g>
		</g>
		<g>
			<g>
				<path class="st1" d="M593.5,422.5c-4.8-1.6-6.9-4.3-5.9-7.4c0.9-2.8,4.1-3.8,8.8-2.3c4.8,1.6,6.7,4.5,5.7,7.4
					C601.2,423.1,598,424,593.5,422.5z M595.8,414.7c-3.7-1.2-6.2-0.8-6.7,1c-0.6,2,1.3,3.7,5,4.9c3.5,1.2,6.1,1,6.7-1
					C601.3,417.9,599.7,416,595.8,414.7z"/>
			</g>
		</g>
		<g>
			<g>
				<path class="st1" d="M589.3,433.7c-4.8-1.8-6.7-4.6-5.5-7.7c1-2.7,4.3-3.6,8.9-1.9c4.7,1.8,6.5,4.8,5.4,7.6
					C597,434.7,593.7,435.4,589.3,433.7z M592,426c-3.6-1.4-6.1-1-6.8,0.7c-0.7,1.9,1.2,3.7,4.7,5.1c3.4,1.3,6,1.3,6.8-0.7
					C597.3,429.4,595.8,427.4,592,426z"/>
			</g>
		</g>
		<g>
			<g>
				<path class="st1" d="M584.6,444.7c-4.7-2-6.5-4.9-5.2-7.9c1.2-2.7,4.5-3.4,9-1.5c4.6,2,6.3,5.1,5.1,7.8
					C592.3,446,589,446.5,584.6,444.7z M587.6,437.1c-3.6-1.5-6.1-1.3-6.8,0.4c-0.8,1.9,1,3.8,4.5,5.3c3.4,1.5,6,1.5,6.8-0.4
					C592.8,440.8,591.3,438.7,587.6,437.1z"/>
			</g>
		</g>
		<g>
			<g>
				<path class="st1" d="M586.7,452.8L586.7,452.8l-0.1-3l1.6,0.3l0.2,3.7l-0.8,1.6l-13.5-6.5l0.9-1.8L586.7,452.8z"/>
			</g>
		</g>
		<g>
			<g>
				<path class="st1" d="M573.8,466c-4.5-2.4-6.1-5.4-4.5-8.3c1.4-2.6,4.7-3,9.1-0.7c4.4,2.4,5.8,5.6,4.4,8.3
					C581.3,468,578,468.3,573.8,466z M577.4,458.8c-3.4-1.8-5.9-1.8-6.8-0.2c-1,1.8,0.7,3.8,4,5.6c3.2,1.7,5.8,2.1,6.8,0.2
					C582.3,462.9,581,460.7,577.4,458.8z"/>
			</g>
		</g>
		<g>
			<g>
				<path class="st1" d="M567.7,476.3c-4.4-2.6-5.8-5.7-4.1-8.5c1.5-2.5,4.9-2.8,9.1-0.3c4.3,2.6,5.6,5.8,4,8.4
					C575.1,478.7,571.8,478.8,567.7,476.3z M571.6,469.2c-3.3-2-5.8-2.1-6.8-0.5c-1.1,1.8,0.5,3.9,3.8,5.8c3.2,1.9,5.7,2.3,6.8,0.5
					C576.3,473.5,575.1,471.3,571.6,469.2z"/>
			</g>
		</g>
		<g>
			<g>
				<path class="st1" d="M568.7,484.7L568.7,484.7l0.3-3l1.5,0.5l-0.3,3.7l-0.9,1.4l-12.5-8.2l1.1-1.6L568.7,484.7z"/>
			</g>
		</g>
		<g>
			<g>
				<path class="st1" d="M554.2,496.1c-4.1-3-5.3-6.1-3.4-8.8c1.7-2.4,5.1-2.4,9.1,0.5c4.1,2.9,5.1,6.3,3.3,8.8
					C561.4,499.1,558.1,498.9,554.2,496.1z M558.8,489.4c-3.2-2.3-5.6-2.6-6.7-1.1c-1.2,1.7,0.2,3.9,3.3,6.1c3,2.1,5.5,2.8,6.7,1.1
					C563.1,494,562.1,491.7,558.8,489.4z"/>
			</g>
		</g>
		<g>
			<g>
				<path class="st1" d="M554.5,504.5L554.5,504.5l0.5-2.9l1.5,0.6l-0.6,3.6l-1.1,1.4l-11.7-9.2l1.2-1.5L554.5,504.5z"/>
			</g>
		</g>
		<g>
			<g>
				<path class="st1" d="M539.1,514.6c-3.9-3.3-4.8-6.6-2.6-9.1c1.9-2.2,5.3-1.9,9,1.3c3.8,3.3,4.5,6.7,2.5,9
					C546,518.2,542.7,517.7,539.1,514.6z M544.2,508.3c-2.9-2.5-5.4-3.1-6.6-1.7c-1.3,1.6-0.2,3.9,2.7,6.4c2.8,2.4,5.2,3.3,6.6,1.7
					C548.1,513.3,547.3,510.9,544.2,508.3z"/>
			</g>
		</g>
		<g>
			<g>
				<path class="st1" d="M538.7,523L538.7,523l0.8-2.9l1.4,0.8l-1,3.6l-1.2,1.3l-10.9-10.2l1.3-1.4L538.7,523z"/>
			</g>
		</g>
		<g>
			<g>
				<path class="st1" d="M522.4,531.8c-3.6-3.6-4.2-7-1.8-9.3c2.1-2,5.4-1.5,8.9,2c3.5,3.6,3.9,7.1,1.7,9.2
					C529,535.9,525.7,535.2,522.4,531.8z M528,525.9c-2.7-2.8-5.1-3.5-6.4-2.2c-1.5,1.4-0.5,3.9,2.2,6.6c2.6,2.6,4.9,3.7,6.4,2.2
					C531.5,531.3,530.9,528.8,528,525.9z"/>
			</g>
		</g>
		<g>
			<g>
				<path class="st1" d="M513.5,539.8c-3.4-3.8-3.9-7.1-1.4-9.3c2.2-2,5.5-1.2,8.8,2.4c3.3,3.7,3.6,7.2,1.3,9.3
					C519.9,544.2,516.7,543.3,513.5,539.8z M519.4,534.2c-2.6-2.9-5-3.7-6.3-2.5c-1.5,1.4-0.7,3.8,1.9,6.7c2.5,2.7,4.8,3.9,6.3,2.5
					C522.6,539.7,522.1,537.2,519.4,534.2z"/>
			</g>
		</g>
		<g>
			<g>
				<path class="st1" d="M504.3,547.4c-3.2-3.9-3.6-7.3-1-9.4c2.3-1.9,5.5-1,8.7,2.8c3.2,3.9,3.3,7.4,0.9,9.3
					C510.5,552.1,507.3,551.1,504.3,547.4z M510.4,542.1c-2.5-3-4.8-3.9-6.2-2.8c-1.6,1.3-0.8,3.8,1.6,6.8c2.3,2.8,4.6,4.1,6.2,2.8
					C513.4,547.7,513,545.2,510.4,542.1z"/>
			</g>
		</g>
		<g>
			<g>
				<path class="st1" d="M502.5,555.7L502.5,555.7l1.3-2.7l1.2,1l-1.6,3.4l-1.4,1l-9-11.9l1.6-1.2L502.5,555.7z"/>
			</g>
		</g>
		<g>
			<g>
				<path class="st1" d="M492.6,562.8L492.6,562.8l1.4-2.7l1.2,1l-1.7,3.3l-1.4,1l-8.5-12.3l1.6-1.1L492.6,562.8z"/>
			</g>
		</g>
		<g>
			<g>
				<path class="st1" d="M474.8,567.8c-2.7-4.3-2.6-7.7,0.2-9.4c2.5-1.5,5.6-0.3,8.3,3.9c2.7,4.3,2.3,7.7-0.3,9.3
					C480.3,573.3,477.3,571.9,474.8,567.8z M481.6,563.3c-2.1-3.3-4.2-4.5-5.8-3.6c-1.8,1.1-1.3,3.7,0.7,6.9c2,3.1,4,4.7,5.8,3.6
					C483.8,569.3,483.7,566.8,481.6,563.3z"/>
			</g>
		</g>
		<g>
			<g>
				<path class="st1" d="M464.4,573.8c-2.5-4.4-2.2-7.8,0.6-9.4c2.5-1.4,5.6,0,8.1,4.2c2.5,4.4,2,7.8-0.7,9.3
					C469.7,579.5,466.8,577.9,464.4,573.8z M471.4,569.6c-1.9-3.4-4-4.7-5.6-3.8c-1.8,1-1.5,3.6,0.4,6.9c1.8,3.2,3.8,4.8,5.6,3.8
					C473.3,575.6,473.4,573.1,471.4,569.6z"/>
			</g>
		</g>
		<g>
			<g>
				<path class="st1" d="M453.8,579.3c-2.3-4.5-1.9-7.9,1-9.4c2.6-1.3,5.6,0.2,7.9,4.6c2.3,4.5,1.6,7.9-1.1,9.3
					C458.8,585.2,455.9,583.5,453.8,579.3z M460.9,575.4c-1.8-3.5-3.8-4.9-5.5-4c-1.8,0.9-1.6,3.5,0.1,6.9c1.7,3.3,3.6,5,5.5,4
					C462.6,581.5,462.8,579,460.9,575.4z"/>
			</g>
		</g>
		<g>
			<g>
				<path class="st1" d="M442.9,584.3c-2.1-4.6-1.6-8,1.5-9.3c2.7-1.2,5.6,0.5,7.7,4.9c2.1,4.6,1.3,8-1.5,9.2
					C447.7,590.4,444.9,588.6,442.9,584.3z M450.2,580.7c-1.6-3.5-3.6-5-5.3-4.3c-1.9,0.9-1.8,3.5-0.2,6.9c1.5,3.3,3.4,5.2,5.3,4.3
					C451.6,586.9,451.9,584.4,450.2,580.7z"/>
			</g>
		</g>
		<g>
			<g>
				<path class="st1" d="M431.8,588.8c-1.9-4.7-1.2-8,1.9-9.3c2.7-1.1,5.6,0.7,7.5,5.3c1.9,4.6,0.9,8-1.9,9.2
					C436.3,595.1,433.6,593.2,431.8,588.8z M439.3,585.5c-1.5-3.6-3.4-5.2-5.1-4.5c-1.9,0.8-1.9,3.4-0.5,6.9
					c1.4,3.4,3.2,5.3,5.1,4.5C440.4,591.8,440.8,589.3,439.3,585.5z"/>
			</g>
		</g>
		<g>
			<g>
				<path class="st1" d="M427.6,596.1L427.6,596.1l2-2.2l0.9,1.3L428,598l-1.6,0.6l-5-14.1l1.8-0.7L427.6,596.1z"/>
			</g>
		</g>
		<g>
			<g>
				<path class="st1" d="M409.1,596.4c-1.5-4.9-0.5-8.1,2.7-9.1c2.8-0.9,5.5,1.2,7,5.9c1.5,4.8,0.2,8.1-2.7,9
					C413.1,603.1,410.5,600.9,409.1,596.4z M416.8,593.8c-1.1-3.7-2.9-5.5-4.7-4.9c-2,0.6-2.2,3.2-1.1,6.9c1.1,3.5,2.7,5.5,4.7,4.9
					C417.4,600.1,418,597.7,416.8,593.8z"/>
			</g>
		</g>
		<g>
			<g>
				<path class="st1" d="M397.6,599.4c-1.3-4.9-0.2-8.1,3-8.9c2.8-0.7,5.4,1.4,6.7,6.2c1.3,4.9-0.1,8.1-3.1,8.8
					C401.2,606.3,398.8,604,397.6,599.4z M405.4,597.2c-1-3.8-2.7-5.6-4.5-5.1c-2,0.5-2.4,3.1-1.4,6.8c0.9,3.6,2.4,5.7,4.5,5.1
					C405.7,603.5,406.4,601.1,405.4,597.2z"/>
			</g>
		</g>
		<g>
			<g>
				<path class="st1" d="M392.4,606.1L392.4,606.1l2.3-1.9l0.7,1.4l-2.8,2.4l-1.7,0.4l-3.1-14.6l1.9-0.4L392.4,606.1z"/>
			</g>
		</g>
		<g>
			<g>
				<path class="st1" d="M374.1,604c-0.8-5,0.6-8.1,3.8-8.6c2.9-0.5,5.3,1.9,6.1,6.8c0.8,4.9-0.8,8-3.8,8.5
					C377.1,611.2,374.9,608.7,374.1,604z M382.1,602.4c-0.6-3.8-2.2-5.8-4-5.5c-2,0.3-2.6,2.9-2,6.7c0.6,3.6,1.9,5.9,4,5.5
					C381.8,608.8,382.7,606.4,382.1,602.4z"/>
			</g>
		</g>
		<g>
			<g>
				<path class="st1" d="M368.4,610.2L368.4,610.2l2.5-1.7l0.6,1.5l-3,2.1l-1.7,0.2l-1.8-14.8l1.9-0.2L368.4,610.2z"/>
			</g>
		</g>
		<g>
			<g>
				<path class="st1" d="M350.3,606.5c-0.4-5.1,1.2-8,4.5-8.3c2.9-0.2,5.1,2.3,5.5,7.3c0.4,5-1.5,7.9-4.6,8.2
					C352.7,613.9,350.7,611.3,350.3,606.5z M358.3,605.6c-0.3-3.9-1.7-6-3.5-5.8c-2.1,0.2-2.9,2.7-2.5,6.5c0.3,3.7,1.4,6,3.5,5.8
					C357.6,611.9,358.7,609.7,358.3,605.6z"/>
			</g>
		</g>
		<g>
			<g>
				<path class="st1" d="M344.1,612.2L344.1,612.2l2.6-1.5l0.4,1.5l-3.2,1.9l-1.7,0.1l-0.6-14.9l2-0.1L344.1,612.2z"/>
			</g>
		</g>
		<g>
			<g>
				<path class="st1" d="M326.3,606.9c0.1-5.1,2-7.9,5.3-7.8c2.9,0,4.9,2.8,4.8,7.8c-0.1,5-2.3,7.7-5.3,7.7
					C328,614.5,326.3,611.7,326.3,606.9z M334.5,606.8c0.1-3.9-1.1-6.1-2.9-6.1c-2.1,0-3.1,2.4-3.2,6.2c-0.1,3.7,0.8,6.1,2.9,6.1
					C333.1,613,334.4,610.9,334.5,606.8z"/>
			</g>
		</g>
		<g>
			<g>
				<path class="st1" d="M319.7,612.1L319.7,612.1l2.7-1.3l0.3,1.6l-3.3,1.6l-1.7-0.1l0.7-14.9l2,0.1L319.7,612.1z"/>
			</g>
		</g>
		<g>
			<g>
				<path class="st1" d="M302.5,605.4c0.5-5.1,2.6-7.7,5.9-7.4c2.9,0.3,4.6,3.2,4.2,8.1c-0.5,5-2.9,7.5-5.9,7.3
					C303.6,613.1,302.1,610.1,302.5,605.4z M310.6,605.9c0.4-3.9-0.6-6.2-2.5-6.3c-2.1-0.2-3.3,2.1-3.6,5.9
					c-0.3,3.7,0.4,6.2,2.5,6.3C308.8,612,310.2,610,310.6,605.9z"/>
			</g>
		</g>
		<g>
			<g>
				<path class="st1" d="M290.6,603.8c0.7-5,2.9-7.6,6.2-7.1c2.9,0.4,4.5,3.4,3.9,8.3c-0.7,5-3.2,7.4-6.2,7
					C291.4,611.6,290,608.6,290.6,603.8z M298.7,604.7c0.5-3.9-0.4-6.2-2.2-6.4c-2.1-0.3-3.4,2-3.9,5.8c-0.5,3.6,0.1,6.2,2.2,6.4
					C296.6,610.7,298.2,608.7,298.7,604.7z"/>
			</g>
		</g>
		<g>
			<g>
				<path class="st1" d="M278.9,601.8c0.9-5,3.2-7.4,6.5-6.8c2.9,0.5,4.3,3.6,3.5,8.4c-0.9,4.9-3.5,7.3-6.5,6.7
					C279.3,609.5,278,606.5,278.9,601.8z M286.9,603c0.7-3.8-0.1-6.2-1.9-6.5c-2-0.4-3.4,1.8-4.1,5.6c-0.6,3.6-0.1,6.2,1.9,6.5
					C284.5,608.9,286.2,607,286.9,603z"/>
			</g>
		</g>
		<g>
			<g>
				<path class="st1" d="M271.4,605.7L271.4,605.7l2.9-0.8l0,1.6l-3.6,1l-1.7-0.4l3.3-14.6l1.9,0.4L271.4,605.7z"/>
			</g>
		</g>
		<g>
			<g>
				<path class="st1" d="M259.5,602.8L259.5,602.8l2.9-0.7l0,1.6l-3.6,0.8l-1.7-0.5l3.9-14.4l1.9,0.5L259.5,602.8z"/>
			</g>
		</g>
		<g>
			<g>
				<path class="st1" d="M247.8,599.3L247.8,599.3l2.9-0.5l-0.1,1.6l-3.6,0.7l-1.6-0.5l4.5-14.2l1.9,0.6L247.8,599.3z"/>
			</g>
		</g>
		<g>
			<g>
				<path class="st1" d="M236.3,595.4L236.3,595.4l3-0.4l-0.2,1.6l-3.7,0.5l-1.6-0.6l5.2-14l1.8,0.7L236.3,595.4z"/>
			</g>
		</g>
		<g>
			<g>
				<path class="st1" d="M221.9,583.8c2-4.7,4.8-6.6,7.8-5.3c2.7,1.1,3.5,4.4,1.6,9c-1.9,4.6-5,6.3-7.8,5.2
					C220.6,591.5,220,588.2,221.9,583.8z M229.5,586.8c1.5-3.6,1.2-6.1-0.5-6.8c-1.9-0.8-3.8,1-5.2,4.6c-1.4,3.4-1.5,6,0.5,6.8
					C225.9,592,227.9,590.5,229.5,586.8z"/>
			</g>
		</g>
		<g>
			<g>
				<path class="st1" d="M211,578.8c2.2-4.6,5.1-6.3,8.1-4.9c2.6,1.2,3.3,4.6,1.2,9.1c-2.1,4.5-5.3,6.1-8,4.8
					C209.4,586.4,209,583.1,211,578.8z M218.5,582c1.7-3.5,1.5-6-0.2-6.8c-1.9-0.9-3.8,0.9-5.4,4.3c-1.6,3.3-1.7,5.9,0.2,6.8
					C214.7,587.1,216.8,585.7,218.5,582z"/>
			</g>
		</g>
		<g>
			<g>
				<path class="st1" d="M200.4,573.3c2.4-4.5,5.3-6.1,8.3-4.6c2.6,1.4,3.1,4.7,0.8,9.1c-2.3,4.4-5.5,5.9-8.2,4.5
					C198.5,580.8,198.2,577.5,200.4,573.3z M207.7,576.8c1.8-3.4,1.8-6,0.1-6.8c-1.8-1-3.8,0.7-5.6,4.1c-1.7,3.3-2,5.8-0.1,6.8
					C203.7,581.7,205.8,580.4,207.7,576.8z"/>
			</g>
		</g>
		<g>
			<g>
				<path class="st1" d="M190.1,567.3c2.6-4.4,5.6-5.9,8.5-4.2c2.5,1.5,2.9,4.8,0.4,9.1c-2.5,4.3-5.8,5.6-8.4,4.1
					C187.8,574.7,187.7,571.4,190.1,567.3z M197.2,571.2c2-3.4,2-5.9,0.4-6.8c-1.8-1-3.9,0.6-5.8,3.9c-1.8,3.2-2.2,5.7-0.4,6.8
					C192.9,575.9,195.1,574.7,197.2,571.2z"/>
			</g>
		</g>
		<g>
			<g>
				<path class="st1" d="M181.7,568.4L181.7,568.4l3,0.2l-0.5,1.5l-3.7-0.3L179,569l8.1-12.6l1.6,1.1L181.7,568.4z"/>
			</g>
		</g>
		<g>
			<g>
				<path class="st1" d="M171.5,561.6L171.5,561.6l3,0.4l-0.6,1.5l-3.7-0.4l-1.4-1l8.6-12.2l1.6,1.1L171.5,561.6z"/>
			</g>
		</g>
		<g>
			<g>
				<path class="st1" d="M161.7,554.4L161.7,554.4l3,0.5l-0.6,1.5l-3.7-0.6l-1.4-1.1l9.1-11.9l1.5,1.2L161.7,554.4z"/>
			</g>
		</g>
		<g>
			<g>
				<path class="st1" d="M151.4,539.1c3.3-3.9,6.5-4.8,9.1-2.7c2.2,1.9,2,5.2-1.2,9.1c-3.2,3.8-6.7,4.6-9,2.6
					C147.9,546,148.4,542.7,151.4,539.1z M157.8,544.1c2.5-3,3-5.4,1.6-6.6c-1.6-1.3-3.9-0.1-6.4,2.8c-2.4,2.8-3.2,5.3-1.6,6.6
					C152.8,548.1,155.2,547.3,157.8,544.1z"/>
			</g>
		</g>
		<g>
			<g>
				<path class="st1" d="M142.6,531c3.4-3.7,6.7-4.5,9.2-2.3c2.2,2,1.8,5.3-1.5,9c-3.4,3.7-6.8,4.3-9.1,2.2
					C138.8,537.8,139.4,534.5,142.6,531z M148.7,536.4c2.6-2.9,3.2-5.3,1.9-6.5c-1.5-1.4-3.9-0.3-6.5,2.5c-2.5,2.7-3.4,5.1-1.9,6.5
					C143.6,540.1,146,539.4,148.7,536.4z"/>
			</g>
		</g>
		<g>
			<g>
				<path class="st1" d="M134.1,522.6c3.6-3.6,6.9-4.2,9.3-1.9c2.1,2.1,1.5,5.4-1.9,8.9c-3.5,3.5-7,4-9.2,1.8
					C130,529.2,130.7,526,134.1,522.6z M140,528.2c2.7-2.7,3.5-5.2,2.2-6.5c-1.5-1.5-3.9-0.5-6.6,2.2c-2.6,2.6-3.6,5-2.2,6.5
					C134.7,531.7,137.1,531.1,140,528.2z"/>
			</g>
		</g>
		<g>
			<g>
				<path class="st1" d="M126,513.8c3.7-3.4,7.1-3.9,9.3-1.5c2,2.2,1.3,5.5-2.3,8.8c-3.7,3.4-7.2,3.7-9.2,1.4
					C121.6,520.3,122.5,517,126,513.8z M131.7,519.6c2.9-2.6,3.7-5,2.4-6.4c-1.4-1.5-3.8-0.6-6.7,2c-2.7,2.5-3.9,4.8-2.4,6.4
					C126.2,522.9,128.7,522.4,131.7,519.6z"/>
			</g>
		</g>
		<g>
			<g>
				<path class="st1" d="M117.7,512.4L117.7,512.4l2.8,1.1l-0.9,1.3l-3.4-1.4l-1.1-1.3l11.4-9.6l1.3,1.5L117.7,512.4z"/>
			</g>
		</g>
		<g>
			<g>
				<path class="st1" d="M110,502.9L110,502.9l2.7,1.2l-1,1.3l-3.4-1.5l-1.1-1.4l11.8-9.1l1.2,1.5L110,502.9z"/>
			</g>
		</g>
		<g>
			<g>
				<path class="st1" d="M104,485.5c4.2-2.9,7.5-3,9.4-0.3c1.7,2.4,0.6,5.6-3.4,8.5c-4.1,2.9-7.6,2.7-9.4,0.2
					C98.8,491.3,100.1,488.2,104,485.5z M108.9,492c3.2-2.2,4.3-4.5,3.2-6c-1.2-1.7-3.7-1.1-6.9,1.1c-3,2.1-4.4,4.3-3.2,6
					C103,494.5,105.5,494.3,108.9,492z"/>
			</g>
		</g>
		<g>
			<g>
				<path class="st1" d="M95.9,483L95.9,483l2.6,1.5l-1.1,1.2l-3.2-1.8l-0.9-1.5l12.6-8.1l1.1,1.6L95.9,483z"/>
			</g>
		</g>
		<g>
			<g>
				<path class="st1" d="M91.5,465.1c4.4-2.6,7.8-2.3,9.4,0.5c1.5,2.5,0.1,5.6-4.2,8.1c-4.3,2.5-7.8,2-9.3-0.6
					C85.8,470.5,87.3,467.5,91.5,465.1z M95.7,472c3.4-2,4.7-4.1,3.7-5.7c-1-1.8-3.6-1.4-6.9,0.5c-3.2,1.9-4.8,3.9-3.7,5.7
					C89.7,474,92.2,474,95.7,472z"/>
			</g>
		</g>
		<g>
			<g>
				<path class="st1" d="M83.6,461.9L83.6,461.9l2.5,1.7l-1.2,1.1l-3.1-2.1l-0.8-1.5l13.2-6.9l0.9,1.7L83.6,461.9z"/>
			</g>
		</g>
		<g>
			<g>
				<path class="st1" d="M80.7,443.7c4.6-2.2,7.9-1.7,9.4,1.3c1.2,2.6-0.4,5.6-4.8,7.7c-4.5,2.1-8,1.4-9.2-1.4
					C74.6,448.5,76.4,445.7,80.7,443.7z M84.4,450.9c3.5-1.7,5-3.7,4.2-5.3c-0.9-1.9-3.5-1.7-6.9-0.1c-3.3,1.6-5.1,3.4-4.2,5.3
					C78.2,452.4,80.7,452.7,84.4,450.9z"/>
			</g>
		</g>
		<g>
			<g>
				<path class="st1" d="M73.2,439.9L73.2,439.9l2.3,1.9l-1.3,1l-2.9-2.3l-0.7-1.6l13.8-5.8l0.8,1.8L73.2,439.9z"/>
			</g>
		</g>
		<g>
			<g>
				<path class="st1" d="M71.9,421.5c4.8-1.8,8.1-1,9.2,2.2c1,2.7-0.9,5.5-5.5,7.3c-4.7,1.7-8,0.7-9.1-2.2
					C65.4,425.7,67.4,423.1,71.9,421.5z M74.9,429c3.6-1.3,5.3-3.2,4.7-5c-0.7-1.9-3.3-2-6.9-0.7c-3.5,1.3-5.4,3-4.7,5
					C68.6,429.9,71.1,430.4,74.9,429z"/>
			</g>
		</g>
		<g>
			<g>
				<path class="st1" d="M68.2,410.1c4.8-1.5,8.1-0.6,9.1,2.6c0.9,2.8-1.1,5.5-5.8,7c-4.8,1.5-8.1,0.3-9-2.6
					C61.6,414.1,63.7,411.5,68.2,410.1z M70.9,417.7c3.7-1.2,5.4-3,4.9-4.7c-0.6-2-3.2-2.2-6.9-1c-3.5,1.1-5.5,2.8-4.9,4.7
					C64.6,418.4,67,419,70.9,417.7z"/>
			</g>
		</g>
		<g>
			<g>
				<path class="st1" d="M65.1,398.5c4.9-1.3,8.1-0.2,9,3c0.8,2.8-1.4,5.4-6.1,6.8c-4.8,1.3-8.1,0-8.9-3
					C58.2,402.3,60.5,399.8,65.1,398.5z M67.4,406.3c3.8-1,5.6-2.8,5.1-4.5c-0.5-2-3.1-2.3-6.8-1.3c-3.6,1-5.6,2.5-5.1,4.5
					C61.1,406.7,63.5,407.4,67.4,406.3z"/>
			</g>
		</g>
		<g>
			<g>
				<path class="st1" d="M62.4,386.9c5-1.1,8.1,0.1,8.8,3.3c0.6,2.8-1.6,5.4-6.4,6.5c-4.9,1.1-8.1-0.4-8.7-3.4
					C55.4,390.3,57.8,387.9,62.4,386.9z M64.4,394.7c3.8-0.9,5.7-2.5,5.3-4.3c-0.5-2-3-2.5-6.8-1.6c-3.6,0.8-5.7,2.3-5.3,4.3
					C58,394.9,60.4,395.6,64.4,394.7z"/>
			</g>
		</g>
		<g>
			<g>
				<path class="st1" d="M55.9,381.5L55.9,381.5l1.8,2.4l-1.4,0.7l-2.3-2.9l-0.3-1.7l14.7-2.6l0.3,1.9L55.9,381.5z"/>
			</g>
		</g>
		<g>
			<g>
				<path class="st1" d="M54,369.5L54,369.5l1.7,2.4l-1.5,0.6l-2.2-3l-0.2-1.7l14.8-2l0.3,1.9L54,369.5z"/>
			</g>
		</g>
		<g>
			<g>
				<path class="st1" d="M52.6,357.3L52.6,357.3l1.6,2.5l-1.5,0.5l-2-3.1l-0.2-1.7l14.9-1.4l0.2,1.9L52.6,357.3z"/>
			</g>
		</g>
		<g>
			<g>
				<path class="st1" d="M56.8,339.4c5.1-0.2,8,1.5,8.1,4.8c0.1,2.9-2.5,5-7.4,5.3c-5,0.2-7.9-1.8-8-4.8
					C49.4,341.5,52.1,339.6,56.8,339.4z M57.5,347.5c3.9-0.2,6-1.5,5.9-3.3c-0.1-2.1-2.6-2.9-6.4-2.8c-3.7,0.2-6,1.2-5.9,3.3
					C51.2,346.5,53.4,347.7,57.5,347.5z"/>
			</g>
		</g>
		<g>
			<g>
				<path class="st1" d="M56.7,327.5c5.1-0.1,7.9,1.8,8,5.1c0,2.9-2.7,4.9-7.6,5.1c-5,0.1-7.8-2-7.9-5.1
					C49.1,329.4,51.9,327.6,56.7,327.5z M57,335.6c3.9-0.1,6.1-1.3,6-3.1c0-2.1-2.5-3-6.3-3c-3.7,0.1-6.1,1-6,3.1
					C50.8,334.4,53,335.7,57,335.6z"/>
			</g>
		</g>
		<g>
			<g>
				<path class="st1" d="M57.1,315.5c5.1,0.2,7.8,2.2,7.7,5.5c-0.1,2.9-2.9,4.8-7.9,4.7c-5-0.2-7.7-2.4-7.6-5.5
					C49.5,317,52.4,315.3,57.1,315.5z M57.1,323.6c3.9,0.1,6.1-1,6.2-2.8c0.1-2.1-2.3-3.1-6.1-3.3c-3.7-0.1-6.1,0.7-6.2,2.8
					C50.9,322.1,53,323.5,57.1,323.6z"/>
			</g>
		</g>
		<g>
			<g>
				<path class="st1" d="M52.2,308.6L52.2,308.6l1.2,2.7l-1.6,0.3l-1.5-3.4l0.1-1.7l14.9,1.2l-0.2,1.9L52.2,308.6z"/>
			</g>
		</g>
		<g>
			<g>
				<path class="st1" d="M59.5,291.7c5,0.6,7.6,2.8,7.2,6.1c-0.4,2.9-3.3,4.5-8.2,4c-5-0.6-7.5-3.1-7.1-6.1
					C51.7,292.5,54.8,291.1,59.5,291.7z M58.7,299.7c3.9,0.5,6.2-0.4,6.4-2.3c0.3-2.1-2-3.3-5.8-3.8c-3.7-0.5-6.2,0.2-6.4,2.3
					C52.7,297.7,54.7,299.2,58.7,299.7z"/>
			</g>
		</g>
		<g>
			<g>
				<path class="st1" d="M55.2,284.4L55.2,284.4l0.9,2.8l-1.6,0.1l-1.2-3.5l0.3-1.7l14.7,2.5l-0.3,1.9L55.2,284.4z"/>
			</g>
		</g>
		<g>
			<g>
				<path class="st1" d="M63.9,268.1c5,1.1,7.3,3.5,6.6,6.7c-0.6,2.9-3.7,4.2-8.5,3.2c-4.9-1-7.2-3.7-6.5-6.7
					C56.1,268.3,59.2,267.1,63.9,268.1z M62.4,276.1c3.8,0.8,6.2,0.1,6.6-1.7c0.4-2-1.7-3.5-5.5-4.3c-3.6-0.8-6.2-0.3-6.6,1.7
					C56.6,273.6,58.4,275.3,62.4,276.1z"/>
			</g>
		</g>
		<g>
			<g>
				<path class="st1" d="M60.2,260.5L60.2,260.5l0.7,2.9l-1.6,0l-0.9-3.6l0.4-1.7l14.5,3.7l-0.5,1.9L60.2,260.5z"/>
			</g>
		</g>
		<g>
			<g>
				<path class="st1" d="M70.3,245.1c4.9,1.5,7,4.1,6,7.3c-0.9,2.8-4,3.9-8.8,2.5c-4.8-1.5-6.8-4.3-5.9-7.2
					C62.5,244.6,65.7,243.7,70.3,245.1z M68.1,252.9c3.7,1.1,6.2,0.6,6.7-1.1c0.6-2-1.4-3.6-5.1-4.7c-3.5-1.1-6.1-0.9-6.7,1.1
					C62.6,249.9,64.3,251.7,68.1,252.9z"/>
			</g>
		</g>
		<g>
			<g>
				<path class="st1" d="M67.3,237.2L67.3,237.2l0.4,3l-1.6-0.1l-0.6-3.7l0.6-1.6l14.1,5l-0.7,1.8L67.3,237.2z"/>
			</g>
		</g>
		<g>
			<g>
				<path class="st1" d="M78.7,222.7c4.7,1.9,6.6,4.7,5.4,7.8c-1.1,2.7-4.4,3.5-9,1.7c-4.6-1.9-6.4-4.9-5.3-7.7
					C71,221.5,74.3,220.9,78.7,222.7z M75.9,230.3c3.6,1.5,6.1,1.2,6.8-0.5c0.8-1.9-1.1-3.7-4.6-5.2c-3.4-1.4-6-1.4-6.8,0.5
					C70.6,226.8,72.1,228.8,75.9,230.3z"/>
			</g>
		</g>
		<g>
			<g>
				<path class="st1" d="M83.7,211.8c4.6,2.1,6.4,5,5,8c-1.2,2.7-4.5,3.3-9,1.3c-4.6-2.1-6.2-5.2-4.9-8
					C76,210.3,79.3,209.8,83.7,211.8z M80.5,219.2c3.5,1.6,6,1.4,6.8-0.2c0.9-1.9-0.9-3.8-4.4-5.4c-3.3-1.5-5.9-1.7-6.8,0.2
					C75.4,215.5,76.8,217.6,80.5,219.2z"/>
			</g>
		</g>
		<g>
			<g>
				<path class="st1" d="M89,201.1c4.5,2.3,6.2,5.3,4.7,8.2c-1.3,2.6-4.7,3.1-9.1,0.9c-4.5-2.3-5.9-5.5-4.6-8.2
					C81.5,199.3,84.8,198.9,89,201.1z M85.6,208.4c3.5,1.8,6,1.7,6.8,0.1c0.9-1.8-0.8-3.8-4.2-5.6c-3.3-1.7-5.9-1.9-6.8-0.1
					C80.6,204.5,81.9,206.6,85.6,208.4z"/>
			</g>
		</g>
		<g>
			<g>
				<path class="st1" d="M94.9,190.7c4.4,2.5,5.9,5.5,4.3,8.4c-1.4,2.5-4.8,2.9-9.1,0.5c-4.4-2.5-5.7-5.7-4.2-8.4
					C87.4,188.5,90.8,188.3,94.9,190.7z M91.1,197.9c3.4,1.9,5.9,2,6.8,0.4c1-1.8-0.6-3.9-3.9-5.7c-3.2-1.8-5.8-2.2-6.8-0.4
					C86.3,193.7,87.6,195.8,91.1,197.9z"/>
			</g>
		</g>
		<g>
			<g>
				<path class="st1" d="M101.2,180.5c4.3,2.7,5.7,5.8,3.9,8.6c-1.5,2.5-4.9,2.7-9.1,0.1c-4.3-2.7-5.4-6-3.8-8.5
					C93.9,178,97.2,178,101.2,180.5z M97.1,187.5c3.3,2.1,5.8,2.2,6.8,0.7c1.1-1.8-0.4-3.9-3.7-5.9c-3.1-2-5.7-2.4-6.8-0.7
					C92.5,183.1,93.7,185.3,97.1,187.5z"/>
			</g>
		</g>
	</g>
</g>
<g class="st2">
	<g>
		<g>
			<path class="st1" d="M330.9,661.8c-39.3,0-77.8-6.8-114.4-20.3c-35.4-13-68-31.9-97.1-56.1C60.9,536.7,20.7,469,6.2,394.7
				C2.1,373.8,0,352.4,0,330.9C0,266.3,18.6,203.8,53.8,150C115.2,56.1,218.8,0,330.9,0c88.4,0,171.5,34.4,234,96.9
				c62.5,62.5,96.9,145.6,96.9,234s-34.4,171.5-96.9,234S419.3,661.8,330.9,661.8z M330.9,26C227.6,26,132.2,77.7,75.5,164.2
				C43.1,213.8,26,271.4,26,330.9c0,19.8,1.9,39.6,5.7,58.9c27.9,142.5,153.7,246,299.2,246c168.1,0,304.9-136.8,304.9-304.9
				C635.8,162.8,499,26,330.9,26z"/>
		</g>
	</g>
</g>
<g class="st3">
	<g>
		<g class="st4">
			<path id="XMLID_17_" class="st1" d="M330.9,553.4c-59.4,0-115.3-23.1-157.3-65.2c-42-42-65.2-97.9-65.2-157.3
				c0-59.4,23.1-115.3,65.2-157.3c42-42,97.9-65.2,157.3-65.2s115.3,23.1,157.3,65.2c42,42,65.2,97.9,65.2,157.3
				c0,59.4-23.1,115.3-65.2,157.3C446.2,530.2,390.3,553.4,330.9,553.4z M330.9,111.4c-121,0-219.5,98.5-219.5,219.5
				c0,121,98.5,219.5,219.5,219.5s219.5-98.5,219.5-219.5C550.4,209.9,451.9,111.4,330.9,111.4z"/>
		</g>
	</g>
</g>
<g>
	<g>
		<g>
			<path class="st5" d="M173.6,222.7"/>
		</g>
	</g>
</g>
<g>
	<g>
		<g>
			<path class="st5" d="M234.2,495.4"/>
		</g>
	</g>
</g>
<g class="st3">
	<g>
		<g>
			<path class="st1" d="M330.9,530.2c-35.6,0-70.5-9.5-101-27.5l8.6-14.6c27.9,16.4,59.8,25.1,92.4,25.1
				c41.4,0,80.4-13.5,112.9-39.1l10.5,13.3C418.8,515.4,376.1,530.2,330.9,530.2z"/>
		</g>
	</g>
</g>
<g>
	<g>
		<g>
			<path class="st5" d="M521.7,330.9"/>
		</g>
	</g>
</g>
<g>
	<g>
		<g>
			<path class="st5" d="M514.6,279"/>
		</g>
	</g>
</g>
<g class="st3">
	<g>
		<g>
			<path class="st1" d="M487.8,239c-32.6-55.5-92.7-90-157-90v-18c35.5,0,70.4,9.4,100.8,27.3c29.6,17.3,54.3,42.1,71.7,71.6
				L487.8,239z"/>
		</g>
	</g>
</g>
<g>
	<g>
		<g class="st0">
			<path id="XMLID_14_" class="st1" d="M330.9,505.9c-96.5,0-175-78.5-175-175c0-96.5,78.5-175,175-175s175,78.5,175,175
				C505.9,427.4,427.4,505.9,330.9,505.9z M330.9,159.9c-94.3,0-171,76.7-171,171s76.7,171,171,171s171-76.7,171-171
				S425.2,159.9,330.9,159.9z"/>
		</g>
	</g>
</g>
<g>
	<g>
		<g>
			<path class="st6" d="M202.1,471.8"/>
		</g>
	</g>
</g>
<g class="st3">
	<g>
		<g>
			<path class="st1" d="M502,422.1l-5.3-2.8c8.7-16.4,15-33.9,18.5-52.1l5.9,1.2C517.4,387.1,511,405.2,502,422.1z"/>
		</g>
	</g>
</g>
<g class="st3">
	<g>
		<g>
			<path class="st1" d="M189,207.8l-4.5-3.9c22.5-25.9,51.5-45.5,83.8-56.5l1.9,5.7C238.8,163.8,210.8,182.7,189,207.8z"/>
		</g>
	</g>
</g>
<g class="st3">
	<g>
		<g>
			<path class="st1" d="M200.1,474c-30.9-28.3-51.5-64.8-59.5-105.6l5.9-1.2c7.7,39.6,27.7,75,57.6,102.4L200.1,474z"/>
		</g>
	</g>
</g>
<g class="st3">
	<g>
		<path class="st1" d="M393.3,239.1c0-3,0.4-5.9,1.1-8.6c-20.7-3.5-48.3-6.6-63.6-6.6c-14.8,0-41.1,2.9-61.6,6.3
			c0.8,2.9,1.2,5.9,1.2,9c0,18-14.1,32.7-31.9,33.6c2.2,29.7,9.8,70.1,18.9,91.9c14.9,36.1,66.6,67.9,73.5,73.5
			c6.8-5.6,58.5-37.3,73.4-73.5c9-21.8,16.7-62.3,18.9-92C406.4,270.6,393.3,256.4,393.3,239.1z M398.3,325.6
			c-2.9,13-6.2,24.5-9.5,32.5c-9.9,24-41.9,47.9-57.9,59.2c0,0,0,0,0,0c-15.9-11.3-48-35.2-57.9-59.2c-3.3-7.9-6.6-19.5-9.5-32.5
			c-2.8-12.7-5.2-26.7-6.8-40.1c16.5-7,28.4-22.6,30.3-41c17-2.3,33.9-3.8,43.9-3.8c0,0,0,0,0,0c10.3,0,28.4,1.7,45.9,4.1
			c2,17.5,12.9,32.5,28.3,39.8C403.6,298.2,401.1,312.6,398.3,325.6z"/>
	</g>
</g>
<g class="st3">
	<g>
		<path class="st7" d="M359.3,323.1c-2-2.6-5-4.3-9-5.3c5.1-2.6,7.3-7,6.7-13.2c-0.2-2.3-0.8-4.2-1.9-5.9c-1-1.7-2.5-3-4.2-4
			c-1.8-1-3.7-1.8-5.8-2.3c-2.1-0.5-4.5-0.9-7.2-1.2v-12.9H330v12.6c-1.4,0-3.5,0-6.3,0.1v-12.7h-7.9v12.9c-1.1,0-2.8,0.1-5,0.1
			l-10.9-0.1v8.4h5.7c2.6,0,4.1,1.2,4.6,3.5v14.7c0.3,0,0.6,0,0.8,0.1h-0.8v20.6c-0.3,1.7-1.3,2.6-3,2.6h-5.7l-1.6,9.4h10.3
			c0.7,0,1.6,0,2.8,0c1.2,0,2.2,0,2.8,0v13.1h7.9v-12.9c1.4,0,3.5,0.1,6.3,0.1v12.9h7.9v-13.1c2.8-0.1,5.3-0.4,7.5-0.8
			c2.2-0.4,4.3-1,6.2-1.8c2-0.8,3.6-1.8,5-3c1.3-1.2,2.4-2.7,3.3-4.6c0.9-1.8,1.4-4,1.7-6.4C362.1,329.3,361.3,325.7,359.3,323.1
			L359.3,323.1z M323.9,300.2c0.2,0,0.9,0,2,0c1.1,0,2,0,2.8-0.1c0.7,0,1.7,0,3,0.1c1.3,0.1,2.3,0.2,3.2,0.4
			c0.9,0.2,1.8,0.5,2.8,0.8c1,0.4,1.8,0.9,2.5,1.4c0.6,0.6,1.1,1.3,1.6,2.2c0.4,0.9,0.6,1.9,0.6,3c0,1-0.2,1.8-0.5,2.6
			c-0.3,0.8-0.8,1.4-1.4,2c-0.6,0.5-1.2,1-1.9,1.4c-0.7,0.4-1.5,0.7-2.5,1c-1,0.2-1.9,0.4-2.6,0.6c-0.8,0.1-1.7,0.2-2.8,0.3
			c-1.1,0-2,0.1-2.6,0.1c-0.6,0-1.4,0-2.4,0c-1,0-1.6,0-1.8,0L323.9,300.2L323.9,300.2z M345.5,335.2c-0.3,0.8-0.7,1.5-1.3,2.1
			c-0.5,0.6-1.2,1.1-2,1.5c-0.8,0.4-1.7,0.8-2.4,1.1c-0.8,0.3-1.7,0.5-2.8,0.7c-1.1,0.2-2.1,0.4-2.9,0.4c-0.8,0.1-1.8,0.2-3,0.2
			c-1.2,0-2.1,0.1-2.7,0.1c-0.7,0-1.5,0-2.5,0c-1,0-1.6,0-1.9,0v-17.3c0.3,0,1.1,0,2.4-0.1c1.4,0,2.5,0,3.3,0s2,0,3.5,0.2
			c1.5,0.1,2.8,0.3,3.8,0.5c1,0.2,2.1,0.5,3.4,1c1.2,0.4,2.2,0.9,3,1.6c0.8,0.6,1.4,1.4,1.9,2.4c0.5,1,0.8,2.1,0.8,3.3
			C346,333.5,345.8,334.4,345.5,335.2L345.5,335.2z M345.5,335.2"/>
	</g>
</g>
</svg>
